<?xml version="1.0" encoding="utf-8" standalone="no"?>
<!DOCTYPE svg PUBLIC "-//W3C//DTD SVG 1.1//EN"
  "http://www.w3.org/Graphics/SVG/1.1/DTD/svg11.dtd">
<svg height="217.882939pt" version="1.1" viewBox="0 0 242.092154 217.882939" width="242.092154pt" xmlns="http://www.w3.org/2000/svg" xmlns:xlink="http://www.w3.org/1999/xlink">
 <metadata>
  <rdf:RDF xmlns:cc="http://creativecommons.org/ns#" xmlns:dc="http://purl.org/dc/elements/1.1/" xmlns:rdf="http://www.w3.org/1999/02/22-rdf-syntax-ns#">
   <cc:Work>
    <dc:type rdf:resource="http://purl.org/dc/dcmitype/StillImage"/>
    <dc:date>2022-06-09T11:31:05.658237</dc:date>
    <dc:format>image/svg+xml</dc:format>
    <dc:creator>
     <cc:Agent>
      <dc:title>Matplotlib v3.4.1, https://matplotlib.org/</dc:title>
     </cc:Agent>
    </dc:creator>
   </cc:Work>
  </rdf:RDF>
 </metadata>
 <defs>
  <style type="text/css">*{stroke-linecap:butt;stroke-linejoin:round;}</style>
 </defs>
 <g id="figure_1">
  <g id="patch_1">
   <path d="M 0 217.882939 
L 242.092154 217.882939 
L 242.092154 0 
L 0 0 
z
" style="fill:#ffffff;"/>
  </g>
  <g id="axes_1">
   <g id="patch_2">
    <path d="M 0 217.882939 
L 242.092154 217.882939 
L 242.092154 0 
L 0 0 
z
" style="fill:#ffffff;"/>
   </g>
   <g id="PathCollection_1">
    <path clip-path="url(#pb79527c8d9)" d="M 2.445375 217.882939 
L 4.890751 217.882939 
L 7.336126 217.882939 
L 9.781501 217.882939 
L 12.226876 217.882939 
L 14.672252 217.882939 
L 17.117627 217.882939 
L 18.803027 217.882939 
L 17.117627 216.887677 
L 15.182074 215.682101 
L 14.672252 215.364908 
L 12.226876 213.776095 
L 11.790825 213.481263 
L 9.781501 212.115984 
L 8.606903 211.280426 
L 7.336126 210.36832 
L 5.615771 209.079588 
L 4.890751 208.529288 
L 2.800113 206.87875 
L 2.445375 206.593765 
L 0.144327 204.677912 
L 0 204.555099 
L 0 204.677912 
L 0 206.87875 
L 0 209.079588 
L 0 211.280426 
L 0 213.481263 
L 0 215.682101 
L 0 217.882939 
z
" style="fill:#ecf4fb;fill-opacity:0.5;"/>
    <path clip-path="url(#pb79527c8d9)" d="M 234.756029 217.882939 
L 237.201404 217.882939 
L 239.646779 217.882939 
L 242.092154 217.882939 
L 242.092154 215.682101 
L 242.092154 213.481263 
L 242.092154 211.280426 
L 242.092154 209.079588 
L 242.092154 206.87875 
L 242.092154 204.677912 
L 242.092154 202.477075 
L 242.092154 201.671331 
L 241.768069 202.477075 
L 240.810214 204.677912 
L 239.758099 206.87875 
L 239.646779 207.097244 
L 238.655111 209.079588 
L 237.450297 211.280426 
L 237.201404 211.707575 
L 236.178865 213.481263 
L 234.795922 215.682101 
L 234.756029 215.742385 
L 233.343152 217.882939 
z
" style="fill:#ecf4fb;fill-opacity:0.5;"/>
    <path clip-path="url(#pb79527c8d9)" d="M 2.445375 8.909831 
L 2.616934 8.803351 
L 4.890751 7.400428 
L 6.273337 6.602513 
L 7.336126 5.98977 
L 9.781501 4.666151 
L 10.298884 4.401676 
L 12.226876 3.409778 
L 14.672252 2.247324 
L 14.775472 2.200838 
L 17.117627 1.131588 
L 19.563002 0.10682 
L 19.833712 0 
L 19.563002 0 
L 17.117627 0 
L 14.672252 0 
L 12.226876 0 
L 9.781501 0 
L 7.336126 0 
L 4.890751 0 
L 2.445375 0 
L 0 0 
L 0 2.200838 
L 0 4.401676 
L 0 6.602513 
L 0 8.803351 
L 0 10.500324 
z
" style="fill:#ecf4fb;fill-opacity:0.5;"/>
    <path clip-path="url(#pb79527c8d9)" d="M 242.092154 6.566219 
L 242.092154 4.401676 
L 242.092154 2.200838 
L 242.092154 0 
L 239.646779 0 
L 237.201404 0 
L 234.859019 0 
L 237.201404 1.959555 
L 237.477583 2.200838 
L 239.646779 4.169339 
L 239.893528 4.401676 
z
" style="fill:#ecf4fb;fill-opacity:0.5;"/>
   </g>
   <g id="PathCollection_2">
    <path clip-path="url(#pb79527c8d9)" d="M 17.117627 216.887677 
L 18.803027 217.882939 
L 19.563002 217.882939 
L 22.008378 217.882939 
L 24.453753 217.882939 
L 26.899128 217.882939 
L 29.344504 217.882939 
L 31.789879 217.882939 
L 34.235254 217.882939 
L 36.680629 217.882939 
L 39.126005 217.882939 
L 41.57138 217.882939 
L 44.016755 217.882939 
L 46.462131 217.882939 
L 48.907506 217.882939 
L 51.352881 217.882939 
L 53.798257 217.882939 
L 56.243632 217.882939 
L 58.689007 217.882939 
L 61.134382 217.882939 
L 63.579758 217.882939 
L 66.025133 217.882939 
L 68.470508 217.882939 
L 70.915884 217.882939 
L 73.361259 217.882939 
L 75.806634 217.882939 
L 78.25201 217.882939 
L 80.697385 217.882939 
L 83.14276 217.882939 
L 85.588135 217.882939 
L 88.033511 217.882939 
L 90.478886 217.882939 
L 92.924261 217.882939 
L 95.369637 217.882939 
L 97.815012 217.882939 
L 100.260387 217.882939 
L 102.705762 217.882939 
L 103.494763 217.882939 
L 102.705762 217.573008 
L 100.260387 216.636258 
L 97.815012 215.717612 
L 97.71705 215.682101 
L 95.369637 214.843395 
L 92.924261 213.997722 
L 91.375067 213.481263 
L 90.478886 213.189157 
L 88.033511 212.424535 
L 85.588135 211.687979 
L 84.188257 211.280426 
L 83.14276 210.986087 
L 80.697385 210.318939 
L 78.25201 209.667788 
L 76.01036 209.079588 
L 75.806634 209.028308 
L 73.361259 208.416005 
L 70.915884 207.801385 
L 68.470508 207.177036 
L 67.332302 206.87875 
L 66.025133 206.551282 
L 63.579758 205.916668 
L 61.134382 205.25217 
L 59.131539 204.677912 
L 58.689007 204.556359 
L 56.243632 203.845981 
L 53.798257 203.085216 
L 51.976162 202.477075 
L 51.352881 202.2765 
L 48.907506 201.434465 
L 46.462131 200.519843 
L 45.853422 200.276237 
L 44.016755 199.560377 
L 41.57138 198.524657 
L 40.584957 198.075399 
L 39.126005 197.422629 
L 36.680629 196.235601 
L 35.985815 195.874561 
L 34.235254 194.97203 
L 31.921147 193.673724 
L 31.789879 193.600163 
L 29.344504 192.144552 
L 28.294967 191.472886 
L 26.899128 190.570492 
L 25.02475 189.272048 
L 24.453753 188.869394 
L 22.058493 187.07121 
L 22.008378 187.032606 
L 19.563002 185.051641 
L 19.349887 184.870372 
L 17.117627 182.900249 
L 16.867104 182.669535 
L 14.672252 180.555874 
L 14.584841 180.468697 
L 12.475965 178.267859 
L 12.226876 177.993069 
L 10.5228 176.067021 
L 9.781501 175.172829 
L 8.71619 173.866184 
L 7.336126 172.04749 
L 7.048886 171.665346 
L 5.491463 169.464508 
L 4.890751 168.549034 
L 4.046532 167.26367 
L 2.712982 165.062833 
L 2.445375 164.589007 
L 1.459554 162.861995 
L 0.309661 160.661157 
L 0 160.022152 
L 0 160.661157 
L 0 162.861995 
L 0 165.062833 
L 0 167.26367 
L 0 169.464508 
L 0 171.665346 
L 0 173.866184 
L 0 176.067021 
L 0 178.267859 
L 0 180.468697 
L 0 182.669535 
L 0 184.870372 
L 0 187.07121 
L 0 189.272048 
L 0 191.472886 
L 0 193.673724 
L 0 195.874561 
L 0 198.075399 
L 0 200.276237 
L 0 202.477075 
L 0 204.555099 
L 0.144327 204.677912 
L 2.445375 206.593765 
L 2.800113 206.87875 
L 4.890751 208.529288 
L 5.615771 209.079588 
L 7.336126 210.36832 
L 8.606903 211.280426 
L 9.781501 212.115984 
L 11.790825 213.481263 
L 12.226876 213.776095 
L 14.672252 215.364908 
L 15.182074 215.682101 
z
" style="fill:#d6e6f4;fill-opacity:0.5;"/>
    <path clip-path="url(#pb79527c8d9)" d="M 198.075399 217.882939 
L 200.520774 217.882939 
L 202.96615 217.882939 
L 205.411525 217.882939 
L 207.8569 217.882939 
L 210.302276 217.882939 
L 212.747651 217.882939 
L 215.193026 217.882939 
L 217.638401 217.882939 
L 220.083777 217.882939 
L 222.529152 217.882939 
L 224.974527 217.882939 
L 227.419903 217.882939 
L 229.865278 217.882939 
L 232.310653 217.882939 
L 233.343152 217.882939 
L 234.756029 215.742385 
L 234.795922 215.682101 
L 236.178865 213.481263 
L 237.201404 211.707575 
L 237.450297 211.280426 
L 238.655111 209.079588 
L 239.646779 207.097244 
L 239.758099 206.87875 
L 240.810214 204.677912 
L 241.768069 202.477075 
L 242.092154 201.671331 
L 242.092154 200.276237 
L 242.092154 198.075399 
L 242.092154 195.874561 
L 242.092154 193.673724 
L 242.092154 191.472886 
L 242.092154 189.272048 
L 242.092154 187.07121 
L 242.092154 184.870372 
L 242.092154 182.669535 
L 242.092154 180.468697 
L 242.092154 178.267859 
L 242.092154 176.067021 
L 242.092154 173.866184 
L 242.092154 171.665346 
L 242.092154 169.464508 
L 242.092154 167.26367 
L 242.092154 165.062833 
L 242.092154 162.861995 
L 242.092154 160.661157 
L 242.092154 158.460319 
L 242.092154 156.259481 
L 242.092154 154.058644 
L 242.092154 151.857806 
L 242.092154 149.656968 
L 242.092154 147.45613 
L 242.092154 145.255293 
L 242.092154 143.054455 
L 242.092154 140.853617 
L 242.092154 138.652779 
L 242.092154 136.451942 
L 242.092154 134.251104 
L 242.092154 132.050266 
L 242.092154 129.849428 
L 242.092154 127.648591 
L 242.092154 125.447753 
L 242.092154 123.246915 
L 242.092154 121.046077 
L 242.092154 118.845239 
L 242.092154 116.644402 
L 242.092154 114.443564 
L 242.092154 112.242726 
L 242.092154 110.041888 
L 242.092154 107.841051 
L 242.092154 105.640213 
L 242.092154 103.439375 
L 242.092154 101.238537 
L 242.092154 99.0377 
L 242.092154 96.836862 
L 242.092154 94.636024 
L 242.092154 92.435186 
L 242.092154 90.234348 
L 242.092154 88.033511 
L 242.092154 85.832673 
L 242.092154 83.631835 
L 242.092154 81.430997 
L 242.092154 79.23016 
L 242.092154 77.029322 
L 242.092154 74.828484 
L 242.092154 72.627646 
L 242.092154 70.426809 
L 242.092154 68.225971 
L 242.092154 66.025133 
L 242.092154 63.824295 
L 242.092154 61.623457 
L 242.092154 59.42262 
L 242.092154 57.221782 
L 242.092154 55.020944 
L 242.092154 52.820106 
L 242.092154 50.619269 
L 242.092154 48.418431 
L 242.092154 46.217593 
L 242.092154 44.016755 
L 242.092154 41.815918 
L 242.092154 39.61508 
L 242.092154 37.414242 
L 242.092154 35.213404 
L 242.092154 33.012567 
L 242.092154 30.811729 
L 242.092154 28.610891 
L 242.092154 26.410053 
L 242.092154 24.209215 
L 242.092154 22.008378 
L 242.092154 19.80754 
L 242.092154 17.606702 
L 242.092154 15.405864 
L 242.092154 13.205027 
L 242.092154 11.004189 
L 242.092154 8.803351 
L 242.092154 6.602513 
L 242.092154 6.566219 
L 239.893528 4.401676 
L 239.646779 4.169339 
L 237.477583 2.200838 
L 237.201404 1.959555 
L 234.859019 0 
L 234.756029 0 
L 232.310653 0 
L 229.865278 0 
L 227.419903 0 
L 224.974527 0 
L 222.529152 0 
L 220.083777 0 
L 217.638401 0 
L 215.193026 0 
L 212.747651 0 
L 210.302276 0 
L 207.8569 0 
L 205.411525 0 
L 202.96615 0 
L 200.520774 0 
L 198.075399 0 
L 195.630024 0 
L 193.184648 0 
L 190.739273 0 
L 188.293898 0 
L 185.848523 0 
L 183.403147 0 
L 180.957772 0 
L 178.512397 0 
L 176.067021 0 
L 173.621646 0 
L 171.176271 0 
L 168.730896 0 
L 166.28552 0 
L 163.840145 0 
L 161.39477 0 
L 158.949394 0 
L 156.504019 0 
L 154.058644 0 
L 151.613268 0 
L 149.167893 0 
L 146.722518 0 
L 144.277143 0 
L 141.831767 0 
L 139.386392 0 
L 136.941017 0 
L 134.495641 0 
L 132.050266 0 
L 129.604891 0 
L 127.159515 0 
L 124.71414 0 
L 122.268765 0 
L 119.82339 0 
L 117.378014 0 
L 114.932639 0 
L 112.487264 0 
L 110.041888 0 
L 107.596513 0 
L 105.151138 0 
L 102.705762 0 
L 100.260387 0 
L 97.815012 0 
L 95.369637 0 
L 92.924261 0 
L 90.478886 0 
L 88.033511 0 
L 85.588135 0 
L 83.14276 0 
L 80.697385 0 
L 78.25201 0 
L 75.806634 0 
L 73.361259 0 
L 70.915884 0 
L 68.470508 0 
L 66.025133 0 
L 63.579758 0 
L 61.134382 0 
L 58.689007 0 
L 56.243632 0 
L 53.798257 0 
L 51.352881 0 
L 48.907506 0 
L 46.462131 0 
L 44.016755 0 
L 41.57138 0 
L 39.126005 0 
L 36.680629 0 
L 34.235254 0 
L 31.789879 0 
L 29.344504 0 
L 26.899128 0 
L 24.453753 0 
L 22.008378 0 
L 19.833712 0 
L 19.563002 0.10682 
L 17.117627 1.131588 
L 14.775472 2.200838 
L 14.672252 2.247324 
L 12.226876 3.409778 
L 10.298884 4.401676 
L 9.781501 4.666151 
L 7.336126 5.98977 
L 6.273337 6.602513 
L 4.890751 7.400428 
L 2.616934 8.803351 
L 2.445375 8.909831 
L 0 10.500324 
L 0 11.004189 
L 0 13.205027 
L 0 15.405864 
L 0 17.606702 
L 0 19.80754 
L 0 22.008378 
L 0 24.209215 
L 0 26.410053 
L 0 28.610891 
L 0 30.811729 
L 0 33.012567 
L 0 35.213404 
L 0 37.414242 
L 0 39.61508 
L 0 41.815918 
L 0 44.016755 
L 0 46.217593 
L 0 47.303724 
L 0.79141 46.217593 
L 2.445375 44.137521 
L 2.543383 44.016755 
L 4.450107 41.815918 
L 4.890751 41.340666 
L 6.546299 39.61508 
L 7.336126 38.841029 
L 8.85734 37.414242 
L 9.781501 36.591459 
L 11.415077 35.213404 
L 12.226876 34.557102 
L 14.263681 33.012567 
L 14.672252 32.712806 
L 17.117627 31.033752 
L 17.465196 30.811729 
L 19.563002 29.497362 
L 21.114887 28.610891 
L 22.008378 28.1057 
L 24.453753 26.83747 
L 25.359091 26.410053 
L 26.899128 25.680688 
L 29.344504 24.638153 
L 30.462793 24.209215 
L 31.789879 23.692046 
L 34.235254 22.838635 
L 36.680629 22.090066 
L 36.98058 22.008378 
L 39.126005 21.405091 
L 41.57138 20.807487 
L 44.016755 20.294728 
L 46.462131 19.860415 
L 46.817307 19.80754 
L 48.907506 19.480701 
L 51.352881 19.169543 
L 53.798257 18.925385 
L 56.243632 18.744004 
L 58.689007 18.621524 
L 61.134382 18.554318 
L 63.579758 18.538907 
L 66.025133 18.571841 
L 68.470508 18.649574 
L 70.915884 18.768332 
L 73.361259 18.923979 
L 75.806634 19.11189 
L 78.25201 19.326819 
L 80.697385 19.562798 
L 83.090191 19.80754 
L 83.14276 19.812852 
L 85.588135 20.061066 
L 88.033511 20.308604 
L 90.478886 20.546379 
L 92.924261 20.764501 
L 95.369637 20.952438 
L 97.815012 21.099274 
L 100.260387 21.194034 
L 102.705762 21.226104 
L 105.151138 21.185705 
L 107.596513 21.064418 
L 110.041888 20.855712 
L 112.487264 20.555443 
L 114.932639 20.162275 
L 116.722048 19.80754 
L 117.378014 19.67677 
L 119.82339 19.101677 
L 122.268765 18.448696 
L 124.71414 17.728552 
L 125.092214 17.606702 
L 127.159515 16.947189 
L 129.604891 16.124076 
L 131.665891 15.405864 
L 132.050266 15.273602 
L 134.495641 14.400924 
L 136.941017 13.531009 
L 137.854953 13.205027 
L 139.386392 12.66557 
L 141.831767 11.819671 
L 144.277143 11.010795 
L 144.297558 11.004189 
L 146.722518 10.224099 
L 149.167893 9.488748 
L 151.613268 8.810815 
L 151.641909 8.803351 
L 154.058644 8.169861 
L 156.504019 7.593319 
L 158.949394 7.083935 
L 161.39477 6.64329 
L 161.657628 6.602513 
L 163.840145 6.255431 
L 166.28552 5.938 
L 168.730896 5.693837 
L 171.176271 5.523756 
L 173.621646 5.428729 
L 176.067021 5.410064 
L 178.512397 5.469555 
L 180.957772 5.609624 
L 183.403147 5.833432 
L 185.848523 6.144979 
L 188.293898 6.549176 
L 188.557414 6.602513 
L 190.739273 7.027326 
L 193.184648 7.603339 
L 195.630024 8.288444 
L 197.214171 8.803351 
L 198.075399 9.077566 
L 200.520774 9.965701 
L 202.96615 10.991787 
L 202.993045 11.004189 
L 205.411525 12.119648 
L 207.481311 13.205027 
L 207.8569 13.404088 
L 210.302276 14.82639 
L 211.208127 15.405864 
L 212.747651 16.418347 
L 214.399071 17.606702 
L 215.193026 18.201157 
L 217.179847 19.80754 
L 217.638401 20.198187 
L 219.632022 22.008378 
L 220.083777 22.446254 
L 221.812321 24.209215 
L 222.529152 25.000153 
L 223.758717 26.410053 
L 224.974527 27.938799 
L 225.495013 28.610891 
L 227.049198 30.811729 
L 227.419903 31.391862 
L 228.445595 33.012567 
L 229.674989 35.213404 
L 229.865278 35.59355 
L 230.782753 37.414242 
L 231.746595 39.61508 
L 232.310653 41.106286 
L 232.584944 41.815918 
L 233.320932 44.016755 
L 233.934456 46.217593 
L 234.434201 48.418431 
L 234.756029 50.214583 
L 234.831876 50.619269 
L 235.142755 52.820106 
L 235.352584 55.020944 
L 235.465142 57.221782 
L 235.483211 59.42262 
L 235.408677 61.623457 
L 235.242639 63.824295 
L 234.985558 66.025133 
L 234.756029 67.4855 
L 234.643475 68.225971 
L 234.225457 70.426809 
L 233.718383 72.627646 
L 233.121317 74.828484 
L 232.433689 77.029322 
L 232.310653 77.38722 
L 231.681754 79.23016 
L 230.845363 81.430997 
L 229.920829 83.631835 
L 229.865278 83.757437 
L 228.940968 85.832673 
L 227.880562 88.033511 
L 227.419903 88.947385 
L 226.760629 90.234348 
L 225.582616 92.435186 
L 224.974527 93.539238 
L 224.356439 94.636024 
L 223.09315 96.836862 
L 222.529152 97.81542 
L 221.805598 99.0377 
L 220.508546 101.238537 
L 220.083777 101.977949 
L 219.221117 103.439375 
L 217.961889 105.640213 
L 217.638401 106.23966 
L 216.753157 107.841051 
L 215.61701 110.041888 
L 215.193026 110.946151 
L 214.574217 112.242726 
L 213.645434 114.443564 
L 212.846809 116.644402 
L 212.747651 116.977128 
L 212.189433 118.845239 
L 211.681595 121.046077 
L 211.324556 123.246915 
L 211.114722 125.447753 
L 211.044317 127.648591 
L 211.102059 129.849428 
L 211.273936 132.050266 
L 211.544029 134.251104 
L 211.895305 136.451942 
L 212.310358 138.652779 
L 212.747651 140.733613 
L 212.772552 140.853617 
L 213.275971 143.054455 
L 213.797427 145.255293 
L 214.323038 147.45613 
L 214.840449 149.656968 
L 215.193026 151.197856 
L 215.344068 151.857806 
L 215.832635 154.058644 
L 216.286434 156.259481 
L 216.698653 158.460319 
L 217.063671 160.661157 
L 217.376882 162.861995 
L 217.634492 165.062833 
L 217.638401 165.10521 
L 217.843521 167.26367 
L 217.988519 169.464508 
L 218.06614 171.665346 
L 218.073276 173.866184 
L 218.006686 176.067021 
L 217.862843 178.267859 
L 217.638401 180.462618 
L 217.637814 180.468697 
L 217.34439 182.669535 
L 216.965041 184.870372 
L 216.493812 187.07121 
L 215.923821 189.272048 
L 215.247213 191.472886 
L 215.193026 191.626824 
L 214.493973 193.673724 
L 213.622489 195.874561 
L 212.747651 197.800089 
L 212.624715 198.075399 
L 211.529236 200.276237 
L 210.302276 202.43493 
L 210.278387 202.477075 
L 208.913217 204.677912 
L 207.8569 206.198493 
L 207.378152 206.87875 
L 205.676756 209.079588 
L 205.411525 209.397551 
L 203.794329 211.280426 
L 202.96615 212.169846 
L 201.694406 213.481263 
L 200.520774 214.610848 
L 199.347766 215.682101 
L 198.075399 216.779526 
L 196.710579 217.882939 
z
" style="fill:#d6e6f4;fill-opacity:0.5;"/>
   </g>
   <g id="PathCollection_3">
    <path clip-path="url(#pb79527c8d9)" d="M 97.815012 215.717612 
L 100.260387 216.636258 
L 102.705762 217.573008 
L 103.494763 217.882939 
L 105.151138 217.882939 
L 107.596513 217.882939 
L 110.041888 217.882939 
L 112.487264 217.882939 
L 114.932639 217.882939 
L 117.378014 217.882939 
L 119.82339 217.882939 
L 122.268765 217.882939 
L 124.71414 217.882939 
L 127.159515 217.882939 
L 129.604891 217.882939 
L 132.050266 217.882939 
L 134.495641 217.882939 
L 136.941017 217.882939 
L 139.386392 217.882939 
L 141.831767 217.882939 
L 144.277143 217.882939 
L 146.722518 217.882939 
L 149.167893 217.882939 
L 151.613268 217.882939 
L 154.058644 217.882939 
L 156.504019 217.882939 
L 158.949394 217.882939 
L 161.39477 217.882939 
L 163.840145 217.882939 
L 166.28552 217.882939 
L 168.730896 217.882939 
L 171.176271 217.882939 
L 173.621646 217.882939 
L 176.067021 217.882939 
L 178.512397 217.882939 
L 180.957772 217.882939 
L 183.403147 217.882939 
L 185.848523 217.882939 
L 188.293898 217.882939 
L 190.739273 217.882939 
L 193.184648 217.882939 
L 195.630024 217.882939 
L 196.710579 217.882939 
L 198.075399 216.779526 
L 199.347766 215.682101 
L 200.520774 214.610848 
L 201.694406 213.481263 
L 202.96615 212.169846 
L 203.794329 211.280426 
L 205.411525 209.397551 
L 205.676756 209.079588 
L 207.378152 206.87875 
L 207.8569 206.198493 
L 208.913217 204.677912 
L 210.278387 202.477075 
L 210.302276 202.43493 
L 211.529236 200.276237 
L 212.624715 198.075399 
L 212.747651 197.800089 
L 213.622489 195.874561 
L 214.493973 193.673724 
L 215.193026 191.626824 
L 215.247213 191.472886 
L 215.923821 189.272048 
L 216.493812 187.07121 
L 216.965041 184.870372 
L 217.34439 182.669535 
L 217.637814 180.468697 
L 217.638401 180.462618 
L 217.862843 178.267859 
L 218.006686 176.067021 
L 218.073276 173.866184 
L 218.06614 171.665346 
L 217.988519 169.464508 
L 217.843521 167.26367 
L 217.638401 165.10521 
L 217.634492 165.062833 
L 217.376882 162.861995 
L 217.063671 160.661157 
L 216.698653 158.460319 
L 216.286434 156.259481 
L 215.832635 154.058644 
L 215.344068 151.857806 
L 215.193026 151.197856 
L 214.840449 149.656968 
L 214.323038 147.45613 
L 213.797427 145.255293 
L 213.275971 143.054455 
L 212.772552 140.853617 
L 212.747651 140.733613 
L 212.310358 138.652779 
L 211.895305 136.451942 
L 211.544029 134.251104 
L 211.273936 132.050266 
L 211.102059 129.849428 
L 211.044317 127.648591 
L 211.114722 125.447753 
L 211.324556 123.246915 
L 211.681595 121.046077 
L 212.189433 118.845239 
L 212.747651 116.977128 
L 212.846809 116.644402 
L 213.645434 114.443564 
L 214.574217 112.242726 
L 215.193026 110.946151 
L 215.61701 110.041888 
L 216.753157 107.841051 
L 217.638401 106.23966 
L 217.961889 105.640213 
L 219.221117 103.439375 
L 220.083777 101.977949 
L 220.508546 101.238537 
L 221.805598 99.0377 
L 222.529152 97.81542 
L 223.09315 96.836862 
L 224.356439 94.636024 
L 224.974527 93.539238 
L 225.582616 92.435186 
L 226.760629 90.234348 
L 227.419903 88.947385 
L 227.880562 88.033511 
L 228.940968 85.832673 
L 229.865278 83.757437 
L 229.920829 83.631835 
L 230.845363 81.430997 
L 231.681754 79.23016 
L 232.310653 77.38722 
L 232.433689 77.029322 
L 233.121317 74.828484 
L 233.718383 72.627646 
L 234.225457 70.426809 
L 234.643475 68.225971 
L 234.756029 67.4855 
L 234.985558 66.025133 
L 235.242639 63.824295 
L 235.408677 61.623457 
L 235.483211 59.42262 
L 235.465142 57.221782 
L 235.352584 55.020944 
L 235.142755 52.820106 
L 234.831876 50.619269 
L 234.756029 50.214583 
L 234.434201 48.418431 
L 233.934456 46.217593 
L 233.320932 44.016755 
L 232.584944 41.815918 
L 232.310653 41.106286 
L 231.746595 39.61508 
L 230.782753 37.414242 
L 229.865278 35.59355 
L 229.674989 35.213404 
L 228.445595 33.012567 
L 227.419903 31.391862 
L 227.049198 30.811729 
L 225.495013 28.610891 
L 224.974527 27.938799 
L 223.758717 26.410053 
L 222.529152 25.000153 
L 221.812321 24.209215 
L 220.083777 22.446254 
L 219.632022 22.008378 
L 217.638401 20.198187 
L 217.179847 19.80754 
L 215.193026 18.201157 
L 214.399071 17.606702 
L 212.747651 16.418347 
L 211.208127 15.405864 
L 210.302276 14.82639 
L 207.8569 13.404088 
L 207.481311 13.205027 
L 205.411525 12.119648 
L 202.993045 11.004189 
L 202.96615 10.991787 
L 200.520774 9.965701 
L 198.075399 9.077566 
L 197.214171 8.803351 
L 195.630024 8.288444 
L 193.184648 7.603339 
L 190.739273 7.027326 
L 188.557414 6.602513 
L 188.293898 6.549176 
L 185.848523 6.144979 
L 183.403147 5.833432 
L 180.957772 5.609624 
L 178.512397 5.469555 
L 176.067021 5.410064 
L 173.621646 5.428729 
L 171.176271 5.523756 
L 168.730896 5.693837 
L 166.28552 5.938 
L 163.840145 6.255431 
L 161.657628 6.602513 
L 161.39477 6.64329 
L 158.949394 7.083935 
L 156.504019 7.593319 
L 154.058644 8.169861 
L 151.641909 8.803351 
L 151.613268 8.810815 
L 149.167893 9.488748 
L 146.722518 10.224099 
L 144.297558 11.004189 
L 144.277143 11.010795 
L 141.831767 11.819671 
L 139.386392 12.66557 
L 137.854953 13.205027 
L 136.941017 13.531009 
L 134.495641 14.400924 
L 132.050266 15.273602 
L 131.665891 15.405864 
L 129.604891 16.124076 
L 127.159515 16.947189 
L 125.092214 17.606702 
L 124.71414 17.728552 
L 122.268765 18.448696 
L 119.82339 19.101677 
L 117.378014 19.67677 
L 116.722048 19.80754 
L 114.932639 20.162275 
L 112.487264 20.555443 
L 110.041888 20.855712 
L 107.596513 21.064418 
L 105.151138 21.185705 
L 102.705762 21.226104 
L 100.260387 21.194034 
L 97.815012 21.099274 
L 95.369637 20.952438 
L 92.924261 20.764501 
L 90.478886 20.546379 
L 88.033511 20.308604 
L 85.588135 20.061066 
L 83.14276 19.812852 
L 83.090191 19.80754 
L 80.697385 19.562798 
L 78.25201 19.326819 
L 75.806634 19.11189 
L 73.361259 18.923979 
L 70.915884 18.768332 
L 68.470508 18.649574 
L 66.025133 18.571841 
L 63.579758 18.538907 
L 61.134382 18.554318 
L 58.689007 18.621524 
L 56.243632 18.744004 
L 53.798257 18.925385 
L 51.352881 19.169543 
L 48.907506 19.480701 
L 46.817307 19.80754 
L 46.462131 19.860415 
L 44.016755 20.294728 
L 41.57138 20.807487 
L 39.126005 21.405091 
L 36.98058 22.008378 
L 36.680629 22.090066 
L 34.235254 22.838635 
L 31.789879 23.692046 
L 30.462793 24.209215 
L 29.344504 24.638153 
L 26.899128 25.680688 
L 25.359091 26.410053 
L 24.453753 26.83747 
L 22.008378 28.1057 
L 21.114887 28.610891 
L 19.563002 29.497362 
L 17.465196 30.811729 
L 17.117627 31.033752 
L 14.672252 32.712806 
L 14.263681 33.012567 
L 12.226876 34.557102 
L 11.415077 35.213404 
L 9.781501 36.591459 
L 8.85734 37.414242 
L 7.336126 38.841029 
L 6.546299 39.61508 
L 4.890751 41.340666 
L 4.450107 41.815918 
L 2.543383 44.016755 
L 2.445375 44.137521 
L 0.79141 46.217593 
L 0 47.303724 
L 0 48.418431 
L 0 50.619269 
L 0 52.820106 
L 0 55.020944 
L 0 57.221782 
L 0 59.42262 
L 0 61.623457 
L 0 63.824295 
L 0 66.025133 
L 0 68.225971 
L 0 70.426809 
L 0 72.627646 
L 0 74.828484 
L 0 77.029322 
L 0 79.23016 
L 0 81.430997 
L 0 83.631835 
L 0 85.832673 
L 0 88.033511 
L 0 90.234348 
L 0 92.435186 
L 0 94.636024 
L 0 96.836862 
L 0 99.0377 
L 0 101.238537 
L 0 103.439375 
L 0 105.640213 
L 0 107.841051 
L 0 110.041888 
L 0 112.242726 
L 0 114.443564 
L 0 116.644402 
L 0 118.845239 
L 0 121.046077 
L 0 123.246915 
L 0 125.447753 
L 0 127.648591 
L 0 129.849428 
L 0 132.050266 
L 0 134.251104 
L 0 136.451942 
L 0 138.652779 
L 0 140.853617 
L 0 143.054455 
L 0 145.255293 
L 0 147.45613 
L 0 149.656968 
L 0 151.857806 
L 0 154.058644 
L 0 156.259481 
L 0 158.460319 
L 0 160.022152 
L 0.309661 160.661157 
L 1.459554 162.861995 
L 2.445375 164.589007 
L 2.712982 165.062833 
L 4.046532 167.26367 
L 4.890751 168.549034 
L 5.491463 169.464508 
L 7.048886 171.665346 
L 7.336126 172.04749 
L 8.71619 173.866184 
L 9.781501 175.172829 
L 10.5228 176.067021 
L 12.226876 177.993069 
L 12.475965 178.267859 
L 14.584841 180.468697 
L 14.672252 180.555874 
L 16.867104 182.669535 
L 17.117627 182.900249 
L 19.349887 184.870372 
L 19.563002 185.051641 
L 22.008378 187.032606 
L 22.058493 187.07121 
L 24.453753 188.869394 
L 25.02475 189.272048 
L 26.899128 190.570492 
L 28.294967 191.472886 
L 29.344504 192.144552 
L 31.789879 193.600163 
L 31.921147 193.673724 
L 34.235254 194.97203 
L 35.985815 195.874561 
L 36.680629 196.235601 
L 39.126005 197.422629 
L 40.584957 198.075399 
L 41.57138 198.524657 
L 44.016755 199.560377 
L 45.853422 200.276237 
L 46.462131 200.519843 
L 48.907506 201.434465 
L 51.352881 202.2765 
L 51.976162 202.477075 
L 53.798257 203.085216 
L 56.243632 203.845981 
L 58.689007 204.556359 
L 59.131539 204.677912 
L 61.134382 205.25217 
L 63.579758 205.916668 
L 66.025133 206.551282 
L 67.332302 206.87875 
L 68.470508 207.177036 
L 70.915884 207.801385 
L 73.361259 208.416005 
L 75.806634 209.028308 
L 76.01036 209.079588 
L 78.25201 209.667788 
L 80.697385 210.318939 
L 83.14276 210.986087 
L 84.188257 211.280426 
L 85.588135 211.687979 
L 88.033511 212.424535 
L 90.478886 213.189157 
L 91.375067 213.481263 
L 92.924261 213.997722 
L 95.369637 214.843395 
L 97.71705 215.682101 
z
M 151.304997 215.682101 
L 149.167893 215.396591 
L 146.722518 214.957155 
L 144.277143 214.401837 
L 141.831767 213.728914 
L 141.044847 213.481263 
L 139.386392 212.955053 
L 136.941017 212.070222 
L 134.995721 211.280426 
L 134.495641 211.072092 
L 132.050266 209.97573 
L 130.210135 209.079588 
L 129.604891 208.773059 
L 127.159515 207.478846 
L 126.06842 206.87875 
L 124.71414 206.098547 
L 122.312831 204.677912 
L 122.268765 204.650478 
L 119.82339 203.148266 
L 118.720826 202.477075 
L 117.378014 201.621158 
L 115.201947 200.276237 
L 114.932639 200.102536 
L 112.487264 198.617505 
L 111.532934 198.075399 
L 110.041888 197.20593 
L 107.596513 195.903563 
L 107.536128 195.874561 
L 105.151138 194.722135 
L 102.705762 193.689158 
L 102.663938 193.673724 
L 100.260387 192.799693 
L 97.815012 192.054165 
L 95.516583 191.472886 
L 95.369637 191.436959 
L 92.924261 190.936461 
L 90.478886 190.530607 
L 88.033511 190.199283 
L 85.588135 189.923453 
L 83.14276 189.685444 
L 80.697385 189.46906 
L 78.40129 189.272048 
L 78.25201 189.260046 
L 75.806634 189.052975 
L 73.361259 188.829298 
L 70.915884 188.578247 
L 68.470508 188.289809 
L 66.025133 187.95445 
L 63.579758 187.562862 
L 61.134382 187.105724 
L 60.975391 187.07121 
L 58.689007 186.599847 
L 56.243632 186.015254 
L 53.798257 185.339492 
L 52.313667 184.870372 
L 51.352881 184.57715 
L 48.907506 183.72857 
L 46.462131 182.755459 
L 46.267128 182.669535 
L 44.016755 181.690032 
L 41.57138 180.475714 
L 41.558414 180.468697 
L 39.126005 179.144369 
L 37.685024 178.267859 
L 36.680629 177.64543 
L 34.373963 176.067021 
L 34.235254 175.968995 
L 31.789879 174.100392 
L 31.504536 173.866184 
L 29.344504 171.999476 
L 28.980942 171.665346 
L 26.899128 169.623818 
L 26.744278 169.464508 
L 24.746341 167.26367 
L 24.453753 166.913297 
L 22.952164 165.062833 
L 22.008378 163.777464 
L 21.346803 162.861995 
L 19.906109 160.661157 
L 19.563002 160.081693 
L 18.601026 158.460319 
L 17.440452 156.259481 
L 17.117627 155.576632 
L 16.38722 154.058644 
L 15.447689 151.857806 
L 14.672252 149.791418 
L 14.62027 149.656968 
L 13.859465 147.45613 
L 13.192427 145.255293 
L 12.607884 143.054455 
L 12.226876 141.419789 
L 12.088968 140.853617 
L 11.617781 138.652779 
L 11.203908 136.451942 
L 10.838413 134.251104 
L 10.512753 132.050266 
L 10.218754 129.849428 
L 9.948626 127.648591 
L 9.781501 126.194262 
L 9.692089 125.447753 
L 9.440721 123.246915 
L 9.194243 121.046077 
L 8.947246 118.845239 
L 8.695496 116.644402 
L 8.436145 114.443564 
L 8.167882 112.242726 
L 7.891034 110.041888 
L 7.607558 107.841051 
L 7.336126 105.757911 
L 7.32054 105.640213 
L 7.027749 103.439375 
L 6.742052 101.238537 
L 6.46996 99.0377 
L 6.218488 96.836862 
L 5.994859 94.636024 
L 5.806272 92.435186 
L 5.659725 90.234348 
L 5.561941 88.033511 
L 5.519366 85.832673 
L 5.53826 83.631835 
L 5.62485 81.430997 
L 5.785536 79.23016 
L 6.027127 77.029322 
L 6.357074 74.828484 
L 6.7837 72.627646 
L 7.316396 70.426809 
L 7.336126 70.358859 
L 7.933463 68.225971 
L 8.672813 66.025133 
L 9.549508 63.824295 
L 9.781501 63.315708 
L 10.542099 61.623457 
L 11.69092 59.42262 
L 12.226876 58.516202 
L 12.995667 57.221782 
L 14.487801 55.020944 
L 14.672252 54.773783 
L 16.169071 52.820106 
L 17.117627 51.710286 
L 18.090164 50.619269 
L 19.563002 49.114387 
L 20.28565 48.418431 
L 22.008378 46.881971 
L 22.813105 46.217593 
L 24.453753 44.941838 
L 25.763066 44.016755 
L 26.899128 43.248067 
L 29.272543 41.815918 
L 29.344504 41.773668 
L 31.789879 40.469363 
L 33.64892 39.61508 
L 34.235254 39.346908 
L 36.680629 38.363206 
L 39.126005 37.537633 
L 39.557205 37.414242 
L 41.57138 36.823576 
L 44.016755 36.236975 
L 46.462131 35.773515 
L 48.907506 35.423917 
L 51.022237 35.213404 
L 51.352881 35.17864 
L 53.798257 35.027283 
L 56.243632 34.977881 
L 58.689007 35.027055 
L 61.134382 35.172368 
L 61.561222 35.213404 
L 63.579758 35.402418 
L 66.025133 35.720376 
L 68.470508 36.128012 
L 70.915884 36.624709 
L 73.361259 37.209145 
L 74.132699 37.414242 
L 75.806634 37.864485 
L 78.25201 38.596598 
L 80.697385 39.40771 
L 81.294038 39.61508 
L 83.14276 40.279052 
L 85.588135 41.213415 
L 87.10779 41.815918 
L 88.033511 42.200575 
L 90.478886 43.228285 
L 92.329947 44.016755 
L 92.924261 44.285267 
L 95.369637 45.356401 
L 97.378347 46.217593 
L 97.815012 46.418177 
L 100.260387 47.455779 
L 102.687899 48.418431 
L 102.705762 48.42609 
L 105.151138 49.32087 
L 107.596513 50.078401 
L 109.882194 50.619269 
L 110.041888 50.660561 
L 112.487264 51.040712 
L 114.932639 51.151562 
L 117.378014 50.946784 
L 118.814819 50.619269 
L 119.82339 50.395329 
L 122.268765 49.492328 
L 124.297085 48.418431 
L 124.71414 48.207911 
L 127.159515 46.625612 
L 127.675821 46.217593 
L 129.604891 44.797902 
L 130.516812 44.016755 
L 132.050266 42.804218 
L 133.164523 41.815918 
L 134.495641 40.73277 
L 135.757735 39.61508 
L 136.941017 38.656719 
L 138.388546 37.414242 
L 139.386392 36.630869 
L 141.132727 35.213404 
L 141.831767 34.692794 
L 144.066894 33.012567 
L 144.277143 32.866676 
L 146.722518 31.172605 
L 147.25623 30.811729 
L 149.167893 29.609579 
L 150.845574 28.610891 
L 151.613268 28.180646 
L 154.058644 26.888184 
L 155.040688 26.410053 
L 156.504019 25.727644 
L 158.949394 24.700815 
L 160.273781 24.209215 
L 161.39477 23.802133 
L 163.840145 23.025309 
L 166.28552 22.38117 
L 168.035868 22.008378 
L 168.730896 21.858986 
L 171.176271 21.447373 
L 173.621646 21.160409 
L 176.067021 20.996479 
L 178.512397 20.955323 
L 180.957772 21.038495 
L 183.403147 21.249732 
L 185.848523 21.595208 
L 187.923306 22.008378 
L 188.293898 22.079602 
L 190.739273 22.689392 
L 193.184648 23.462939 
L 195.11278 24.209215 
L 195.630024 24.409306 
L 198.075399 25.52299 
L 199.724793 26.410053 
L 200.520774 26.850729 
L 202.96615 28.409687 
L 203.249479 28.610891 
L 205.411525 30.241332 
L 206.092871 30.811729 
L 207.8569 32.416025 
L 208.461783 33.012567 
L 210.302276 35.032131 
L 210.458069 35.213404 
L 212.158683 37.414242 
L 212.747651 38.297361 
L 213.602348 39.61508 
L 214.814111 41.815918 
L 215.193026 42.635341 
L 215.832804 44.016755 
L 216.666974 46.217593 
L 217.318505 48.418431 
L 217.638401 49.859333 
L 217.813393 50.619269 
L 218.165156 52.820106 
L 218.364106 55.020944 
L 218.416019 57.221782 
L 218.323858 59.42262 
L 218.088012 61.623457 
L 217.706674 63.824295 
L 217.638401 64.115115 
L 217.197952 66.025133 
L 216.541805 68.225971 
L 215.727666 70.426809 
L 215.193026 71.654589 
L 214.762807 72.627646 
L 213.642588 74.828484 
L 212.747651 76.369157 
L 212.348919 77.029322 
L 210.882764 79.23016 
L 210.302276 80.031899 
L 209.226716 81.430997 
L 207.8569 83.085544 
L 207.369562 83.631835 
L 205.411525 85.722263 
L 205.29858 85.832673 
L 202.99206 88.033511 
L 202.96615 88.058006 
L 200.520774 90.161772 
L 200.426794 90.234348 
L 198.075399 92.084369 
L 197.575397 92.435186 
L 195.630024 93.854058 
L 194.424976 94.636024 
L 193.184648 95.489188 
L 190.985775 96.836862 
L 190.739273 97.000171 
L 188.293898 98.459315 
L 187.207277 99.0377 
L 185.848523 99.843474 
L 183.403147 101.150258 
L 183.219226 101.238537 
L 180.957772 102.48847 
L 179.081212 103.439375 
L 178.512397 103.780815 
L 176.067021 105.137095 
L 175.096445 105.640213 
L 173.621646 106.593423 
L 171.616555 107.841051 
L 171.176271 108.203527 
L 168.897628 110.041888 
L 168.730896 110.238893 
L 167.023029 112.242726 
L 166.28552 113.824896 
L 165.997502 114.443564 
L 165.666336 116.644402 
L 165.944573 118.845239 
L 166.28552 119.762703 
L 166.710437 121.046077 
L 167.87932 123.246915 
L 168.730896 124.434533 
L 169.383388 125.447753 
L 171.150141 127.648591 
L 171.176271 127.675568 
L 173.068995 129.849428 
L 173.621646 130.400868 
L 175.108865 132.050266 
L 176.067021 132.998554 
L 177.207546 134.251104 
L 178.512397 135.560845 
L 179.314621 136.451942 
L 180.957772 138.157593 
L 181.390573 138.652779 
L 183.403147 140.851145 
L 183.405212 140.853617 
L 185.322887 143.054455 
L 185.848523 143.650542 
L 187.146566 145.255293 
L 188.293898 146.687444 
L 188.864025 147.45613 
L 190.463051 149.656968 
L 190.739273 150.046724 
L 191.942191 151.857806 
L 193.184648 153.867373 
L 193.296874 154.058644 
L 194.533628 156.259481 
L 195.630024 158.444209 
L 195.637833 158.460319 
L 196.63333 160.661157 
L 197.497174 162.861995 
L 198.075399 164.580707 
L 198.236336 165.062833 
L 198.868146 167.26367 
L 199.37336 169.464508 
L 199.753946 171.665346 
L 200.01162 173.866184 
L 200.147285 176.067021 
L 200.160511 178.267859 
L 200.049071 180.468697 
L 199.80857 182.669535 
L 199.432174 184.870372 
L 198.910457 187.07121 
L 198.231357 189.272048 
L 198.075399 189.685644 
L 197.414978 191.472886 
L 196.421315 193.673724 
L 195.630024 195.147072 
L 195.237482 195.874561 
L 193.857064 198.075399 
L 193.184648 199.00991 
L 192.24322 200.276237 
L 190.739273 202.050543 
L 190.358096 202.477075 
L 188.293898 204.550012 
L 188.15665 204.677912 
L 185.848523 206.652718 
L 185.557201 206.87875 
L 183.403147 208.447401 
L 182.422922 209.079588 
L 180.957772 209.985079 
L 178.533689 211.280426 
L 178.512397 211.291537 
L 176.067021 212.424428 
L 173.621646 213.3628 
L 173.255057 213.481263 
L 171.176271 214.161291 
L 168.730896 214.805615 
L 166.28552 215.3041 
L 163.840145 215.668572 
L 163.703192 215.682101 
L 161.39477 215.921823 
L 158.949394 216.050835 
L 156.504019 216.059356 
L 154.058644 215.950129 
L 151.613268 215.72438 
z
" style="fill:#bdd7ec;fill-opacity:0.5;"/>
   </g>
   <g id="PathCollection_4">
    <path clip-path="url(#pb79527c8d9)" d="M 151.613268 215.72438 
L 154.058644 215.950129 
L 156.504019 216.059356 
L 158.949394 216.050835 
L 161.39477 215.921823 
L 163.703192 215.682101 
L 163.840145 215.668572 
L 166.28552 215.3041 
L 168.730896 214.805615 
L 171.176271 214.161291 
L 173.255057 213.481263 
L 173.621646 213.3628 
L 176.067021 212.424428 
L 178.512397 211.291537 
L 178.533689 211.280426 
L 180.957772 209.985079 
L 182.422922 209.079588 
L 183.403147 208.447401 
L 185.557201 206.87875 
L 185.848523 206.652718 
L 188.15665 204.677912 
L 188.293898 204.550012 
L 190.358096 202.477075 
L 190.739273 202.050543 
L 192.24322 200.276237 
L 193.184648 199.00991 
L 193.857064 198.075399 
L 195.237482 195.874561 
L 195.630024 195.147072 
L 196.421315 193.673724 
L 197.414978 191.472886 
L 198.075399 189.685644 
L 198.231357 189.272048 
L 198.910457 187.07121 
L 199.432174 184.870372 
L 199.80857 182.669535 
L 200.049071 180.468697 
L 200.160511 178.267859 
L 200.147285 176.067021 
L 200.01162 173.866184 
L 199.753946 171.665346 
L 199.37336 169.464508 
L 198.868146 167.26367 
L 198.236336 165.062833 
L 198.075399 164.580707 
L 197.497174 162.861995 
L 196.63333 160.661157 
L 195.637833 158.460319 
L 195.630024 158.444209 
L 194.533628 156.259481 
L 193.296874 154.058644 
L 193.184648 153.867373 
L 191.942191 151.857806 
L 190.739273 150.046724 
L 190.463051 149.656968 
L 188.864025 147.45613 
L 188.293898 146.687444 
L 187.146566 145.255293 
L 185.848523 143.650542 
L 185.322887 143.054455 
L 183.405212 140.853617 
L 183.403147 140.851145 
L 181.390573 138.652779 
L 180.957772 138.157593 
L 179.314621 136.451942 
L 178.512397 135.560845 
L 177.207546 134.251104 
L 176.067021 132.998554 
L 175.108865 132.050266 
L 173.621646 130.400868 
L 173.068995 129.849428 
L 171.176271 127.675568 
L 171.150141 127.648591 
L 169.383388 125.447753 
L 168.730896 124.434533 
L 167.87932 123.246915 
L 166.710437 121.046077 
L 166.28552 119.762703 
L 165.944573 118.845239 
L 165.666336 116.644402 
L 165.997502 114.443564 
L 166.28552 113.824896 
L 167.023029 112.242726 
L 168.730896 110.238893 
L 168.897628 110.041888 
L 171.176271 108.203527 
L 171.616555 107.841051 
L 173.621646 106.593423 
L 175.096445 105.640213 
L 176.067021 105.137095 
L 178.512397 103.780815 
L 179.081212 103.439375 
L 180.957772 102.48847 
L 183.219226 101.238537 
L 183.403147 101.150258 
L 185.848523 99.843474 
L 187.207277 99.0377 
L 188.293898 98.459315 
L 190.739273 97.000171 
L 190.985775 96.836862 
L 193.184648 95.489188 
L 194.424976 94.636024 
L 195.630024 93.854058 
L 197.575397 92.435186 
L 198.075399 92.084369 
L 200.426794 90.234348 
L 200.520774 90.161772 
L 202.96615 88.058006 
L 202.99206 88.033511 
L 205.29858 85.832673 
L 205.411525 85.722263 
L 207.369562 83.631835 
L 207.8569 83.085544 
L 209.226716 81.430997 
L 210.302276 80.031899 
L 210.882764 79.23016 
L 212.348919 77.029322 
L 212.747651 76.369157 
L 213.642588 74.828484 
L 214.762807 72.627646 
L 215.193026 71.654589 
L 215.727666 70.426809 
L 216.541805 68.225971 
L 217.197952 66.025133 
L 217.638401 64.115115 
L 217.706674 63.824295 
L 218.088012 61.623457 
L 218.323858 59.42262 
L 218.416019 57.221782 
L 218.364106 55.020944 
L 218.165156 52.820106 
L 217.813393 50.619269 
L 217.638401 49.859333 
L 217.318505 48.418431 
L 216.666974 46.217593 
L 215.832804 44.016755 
L 215.193026 42.635341 
L 214.814111 41.815918 
L 213.602348 39.61508 
L 212.747651 38.297361 
L 212.158683 37.414242 
L 210.458069 35.213404 
L 210.302276 35.032131 
L 208.461783 33.012567 
L 207.8569 32.416025 
L 206.092871 30.811729 
L 205.411525 30.241332 
L 203.249479 28.610891 
L 202.96615 28.409687 
L 200.520774 26.850729 
L 199.724793 26.410053 
L 198.075399 25.52299 
L 195.630024 24.409306 
L 195.11278 24.209215 
L 193.184648 23.462939 
L 190.739273 22.689392 
L 188.293898 22.079602 
L 187.923306 22.008378 
L 185.848523 21.595208 
L 183.403147 21.249732 
L 180.957772 21.038495 
L 178.512397 20.955323 
L 176.067021 20.996479 
L 173.621646 21.160409 
L 171.176271 21.447373 
L 168.730896 21.858986 
L 168.035868 22.008378 
L 166.28552 22.38117 
L 163.840145 23.025309 
L 161.39477 23.802133 
L 160.273781 24.209215 
L 158.949394 24.700815 
L 156.504019 25.727644 
L 155.040688 26.410053 
L 154.058644 26.888184 
L 151.613268 28.180646 
L 150.845574 28.610891 
L 149.167893 29.609579 
L 147.25623 30.811729 
L 146.722518 31.172605 
L 144.277143 32.866676 
L 144.066894 33.012567 
L 141.831767 34.692794 
L 141.132727 35.213404 
L 139.386392 36.630869 
L 138.388546 37.414242 
L 136.941017 38.656719 
L 135.757735 39.61508 
L 134.495641 40.73277 
L 133.164523 41.815918 
L 132.050266 42.804218 
L 130.516812 44.016755 
L 129.604891 44.797902 
L 127.675821 46.217593 
L 127.159515 46.625612 
L 124.71414 48.207911 
L 124.297085 48.418431 
L 122.268765 49.492328 
L 119.82339 50.395329 
L 118.814819 50.619269 
L 117.378014 50.946784 
L 114.932639 51.151562 
L 112.487264 51.040712 
L 110.041888 50.660561 
L 109.882194 50.619269 
L 107.596513 50.078401 
L 105.151138 49.32087 
L 102.705762 48.42609 
L 102.687899 48.418431 
L 100.260387 47.455779 
L 97.815012 46.418177 
L 97.378347 46.217593 
L 95.369637 45.356401 
L 92.924261 44.285267 
L 92.329947 44.016755 
L 90.478886 43.228285 
L 88.033511 42.200575 
L 87.10779 41.815918 
L 85.588135 41.213415 
L 83.14276 40.279052 
L 81.294038 39.61508 
L 80.697385 39.40771 
L 78.25201 38.596598 
L 75.806634 37.864485 
L 74.132699 37.414242 
L 73.361259 37.209145 
L 70.915884 36.624709 
L 68.470508 36.128012 
L 66.025133 35.720376 
L 63.579758 35.402418 
L 61.561222 35.213404 
L 61.134382 35.172368 
L 58.689007 35.027055 
L 56.243632 34.977881 
L 53.798257 35.027283 
L 51.352881 35.17864 
L 51.022237 35.213404 
L 48.907506 35.423917 
L 46.462131 35.773515 
L 44.016755 36.236975 
L 41.57138 36.823576 
L 39.557205 37.414242 
L 39.126005 37.537633 
L 36.680629 38.363206 
L 34.235254 39.346908 
L 33.64892 39.61508 
L 31.789879 40.469363 
L 29.344504 41.773668 
L 29.272543 41.815918 
L 26.899128 43.248067 
L 25.763066 44.016755 
L 24.453753 44.941838 
L 22.813105 46.217593 
L 22.008378 46.881971 
L 20.28565 48.418431 
L 19.563002 49.114387 
L 18.090164 50.619269 
L 17.117627 51.710286 
L 16.169071 52.820106 
L 14.672252 54.773783 
L 14.487801 55.020944 
L 12.995667 57.221782 
L 12.226876 58.516202 
L 11.69092 59.42262 
L 10.542099 61.623457 
L 9.781501 63.315708 
L 9.549508 63.824295 
L 8.672813 66.025133 
L 7.933463 68.225971 
L 7.336126 70.358859 
L 7.316396 70.426809 
L 6.7837 72.627646 
L 6.357074 74.828484 
L 6.027127 77.029322 
L 5.785536 79.23016 
L 5.62485 81.430997 
L 5.53826 83.631835 
L 5.519366 85.832673 
L 5.561941 88.033511 
L 5.659725 90.234348 
L 5.806272 92.435186 
L 5.994859 94.636024 
L 6.218488 96.836862 
L 6.46996 99.0377 
L 6.742052 101.238537 
L 7.027749 103.439375 
L 7.32054 105.640213 
L 7.336126 105.757911 
L 7.607558 107.841051 
L 7.891034 110.041888 
L 8.167882 112.242726 
L 8.436145 114.443564 
L 8.695496 116.644402 
L 8.947246 118.845239 
L 9.194243 121.046077 
L 9.440721 123.246915 
L 9.692089 125.447753 
L 9.781501 126.194262 
L 9.948626 127.648591 
L 10.218754 129.849428 
L 10.512753 132.050266 
L 10.838413 134.251104 
L 11.203908 136.451942 
L 11.617781 138.652779 
L 12.088968 140.853617 
L 12.226876 141.419789 
L 12.607884 143.054455 
L 13.192427 145.255293 
L 13.859465 147.45613 
L 14.62027 149.656968 
L 14.672252 149.791418 
L 15.447689 151.857806 
L 16.38722 154.058644 
L 17.117627 155.576632 
L 17.440452 156.259481 
L 18.601026 158.460319 
L 19.563002 160.081693 
L 19.906109 160.661157 
L 21.346803 162.861995 
L 22.008378 163.777464 
L 22.952164 165.062833 
L 24.453753 166.913297 
L 24.746341 167.26367 
L 26.744278 169.464508 
L 26.899128 169.623818 
L 28.980942 171.665346 
L 29.344504 171.999476 
L 31.504536 173.866184 
L 31.789879 174.100392 
L 34.235254 175.968995 
L 34.373963 176.067021 
L 36.680629 177.64543 
L 37.685024 178.267859 
L 39.126005 179.144369 
L 41.558414 180.468697 
L 41.57138 180.475714 
L 44.016755 181.690032 
L 46.267128 182.669535 
L 46.462131 182.755459 
L 48.907506 183.72857 
L 51.352881 184.57715 
L 52.313667 184.870372 
L 53.798257 185.339492 
L 56.243632 186.015254 
L 58.689007 186.599847 
L 60.975391 187.07121 
L 61.134382 187.105724 
L 63.579758 187.562862 
L 66.025133 187.95445 
L 68.470508 188.289809 
L 70.915884 188.578247 
L 73.361259 188.829298 
L 75.806634 189.052975 
L 78.25201 189.260046 
L 78.40129 189.272048 
L 80.697385 189.46906 
L 83.14276 189.685444 
L 85.588135 189.923453 
L 88.033511 190.199283 
L 90.478886 190.530607 
L 92.924261 190.936461 
L 95.369637 191.436959 
L 95.516583 191.472886 
L 97.815012 192.054165 
L 100.260387 192.799693 
L 102.663938 193.673724 
L 102.705762 193.689158 
L 105.151138 194.722135 
L 107.536128 195.874561 
L 107.596513 195.903563 
L 110.041888 197.20593 
L 111.532934 198.075399 
L 112.487264 198.617505 
L 114.932639 200.102536 
L 115.201947 200.276237 
L 117.378014 201.621158 
L 118.720826 202.477075 
L 119.82339 203.148266 
L 122.268765 204.650478 
L 122.312831 204.677912 
L 124.71414 206.098547 
L 126.06842 206.87875 
L 127.159515 207.478846 
L 129.604891 208.773059 
L 130.210135 209.079588 
L 132.050266 209.97573 
L 134.495641 211.072092 
L 134.995721 211.280426 
L 136.941017 212.070222 
L 139.386392 212.955053 
L 141.044847 213.481263 
L 141.831767 213.728914 
L 144.277143 214.401837 
L 146.722518 214.957155 
L 149.167893 215.396591 
L 151.304997 215.682101 
z
M 153.594268 204.677912 
L 151.613268 204.323344 
L 149.167893 203.70312 
L 146.722518 202.887644 
L 145.700667 202.477075 
L 144.277143 201.877637 
L 141.831767 200.656114 
L 141.153529 200.276237 
L 139.386392 199.201682 
L 137.715536 198.075399 
L 136.941017 197.49472 
L 134.905858 195.874561 
L 134.495641 195.503725 
L 132.514274 193.673724 
L 132.050266 193.179548 
L 130.426885 191.472886 
L 129.604891 190.468212 
L 128.58226 189.272048 
L 127.159515 187.337793 
L 126.948655 187.07121 
L 125.434425 184.870372 
L 124.71414 183.652675 
L 124.059426 182.669535 
L 122.781272 180.468697 
L 122.268765 179.452246 
L 121.560768 178.267859 
L 120.386303 176.067021 
L 119.82339 174.888979 
L 119.200064 173.866184 
L 117.944784 171.665346 
L 117.378014 170.621974 
L 116.453181 169.464508 
L 114.932639 167.666645 
L 114.289808 167.26367 
L 112.487264 166.220749 
L 110.041888 165.857651 
L 107.596513 166.070377 
L 105.151138 166.599421 
L 102.882465 167.26367 
L 102.705762 167.305712 
L 100.260387 168.069864 
L 97.815012 168.888059 
L 96.175792 169.464508 
L 95.369637 169.712723 
L 92.924261 170.512086 
L 90.478886 171.281537 
L 89.226887 171.665346 
L 88.033511 172.001234 
L 85.588135 172.662496 
L 83.14276 173.255027 
L 80.697385 173.769263 
L 80.171827 173.866184 
L 78.25201 174.208604 
L 75.806634 174.562471 
L 73.361259 174.823444 
L 70.915884 174.987341 
L 68.470508 175.050181 
L 66.025133 175.007512 
L 63.579758 174.853785 
L 61.134382 174.581806 
L 58.689007 174.182331 
L 57.247304 173.866184 
L 56.243632 173.655947 
L 53.798257 173.000354 
L 51.352881 172.180068 
L 50.077467 171.665346 
L 48.907506 171.196433 
L 46.462131 170.029601 
L 45.442437 169.464508 
L 44.016755 168.653315 
L 41.907743 167.26367 
L 41.57138 167.030592 
L 39.126005 165.12392 
L 39.054401 165.062833 
L 36.68146 162.861995 
L 36.680629 162.861144 
L 34.669779 160.661157 
L 34.235254 160.121774 
L 32.949904 158.460319 
L 31.789879 156.722263 
L 31.486628 156.259481 
L 30.223927 154.058644 
L 29.344504 152.23162 
L 29.162582 151.857806 
L 28.246883 149.656968 
L 27.493919 147.45613 
L 26.899128 145.313796 
L 26.882199 145.255293 
L 26.37044 143.054455 
L 25.973851 140.853617 
L 25.678037 138.652779 
L 25.469566 136.451942 
L 25.335462 134.251104 
L 25.262661 132.050266 
L 25.237506 129.849428 
L 25.245371 127.648591 
L 25.270473 125.447753 
L 25.295972 123.246915 
L 25.304373 121.046077 
L 25.278267 118.845239 
L 25.201378 116.644402 
L 25.059817 114.443564 
L 24.843428 112.242726 
L 24.54701 110.041888 
L 24.453753 109.497011 
L 24.174083 107.841051 
L 23.730851 105.640213 
L 23.228322 103.439375 
L 22.683003 101.238537 
L 22.114809 99.0377 
L 22.008378 98.637323 
L 21.543718 96.836862 
L 20.989261 94.636024 
L 20.471308 92.435186 
L 20.007736 90.234348 
L 19.613887 88.033511 
L 19.563002 87.684738 
L 19.293708 85.832673 
L 19.064851 83.631835 
L 18.938953 81.430997 
L 18.92544 79.23016 
L 19.033795 77.029322 
L 19.274459 74.828484 
L 19.563002 73.178423 
L 19.654642 72.627646 
L 20.170964 70.426809 
L 20.856683 68.225971 
L 21.734335 66.025133 
L 22.008378 65.457997 
L 22.795406 63.824295 
L 24.092739 61.623457 
L 24.453753 61.097639 
L 25.643068 59.42262 
L 26.899128 57.914673 
L 27.51298 57.221782 
L 29.344504 55.407148 
L 29.772532 55.020944 
L 31.789879 53.373239 
L 32.55963 52.820106 
L 34.235254 51.696256 
L 36.126828 50.619269 
L 36.680629 50.316403 
L 39.126005 49.176105 
L 41.159167 48.418431 
L 41.57138 48.264987 
L 44.016755 47.531059 
L 46.462131 46.986933 
L 48.907506 46.615475 
L 51.352881 46.403777 
L 53.798257 46.3435 
L 56.243632 46.430816 
L 58.689007 46.665915 
L 61.134382 47.052158 
L 63.579758 47.595002 
L 66.025133 48.300856 
L 66.37 48.418431 
L 68.470508 49.15701 
L 70.915884 50.190828 
L 71.812726 50.619269 
L 73.361259 51.406376 
L 75.806634 52.818574 
L 75.809137 52.820106 
L 78.25201 54.45371 
L 79.043934 55.020944 
L 80.697385 56.338112 
L 81.76473 57.221782 
L 83.14276 58.511253 
L 84.104999 59.42262 
L 85.588135 61.031856 
L 86.139282 61.623457 
L 87.916503 63.824295 
L 88.033511 63.991693 
L 89.513282 66.025133 
L 90.478886 67.591949 
L 90.891806 68.225971 
L 92.123839 70.426809 
L 92.924261 72.118725 
L 93.183326 72.627646 
L 94.141353 74.828484 
L 94.950742 77.029322 
L 95.369637 78.368296 
L 95.663603 79.23016 
L 96.304212 81.430997 
L 96.855695 83.631835 
L 97.339291 85.832673 
L 97.774613 88.033511 
L 97.815012 88.255067 
L 98.205938 90.234348 
L 98.622159 92.435186 
L 99.037492 94.636024 
L 99.467342 96.836862 
L 99.924689 99.0377 
L 100.260387 100.531451 
L 100.427886 101.238537 
L 100.992481 103.439375 
L 101.602514 105.640213 
L 102.257088 107.841051 
L 102.705762 109.256248 
L 102.963894 110.041888 
L 103.72651 112.242726 
L 104.512409 114.443564 
L 105.151138 116.19753 
L 105.320044 116.644402 
L 106.168039 118.845239 
L 107.009302 121.046077 
L 107.596513 122.605137 
L 107.851397 123.246915 
L 108.713621 125.447753 
L 109.548974 127.648591 
L 110.041888 128.996219 
L 110.381167 129.849428 
L 111.227105 132.050266 
L 112.043727 134.251104 
L 112.487264 135.50051 
L 112.873049 136.451942 
L 113.737714 138.652779 
L 114.597817 140.853617 
L 114.932639 141.736587 
L 115.556577 143.054455 
L 116.638636 145.255293 
L 117.378014 146.661573 
L 117.982433 147.45613 
L 119.82339 149.506297 
L 120.074954 149.656968 
L 122.268765 150.754293 
L 124.71414 151.087894 
L 127.159515 150.987885 
L 129.604891 150.681765 
L 132.050266 150.288524 
L 134.495641 149.876062 
L 135.795408 149.656968 
L 136.941017 149.478937 
L 139.386392 149.118548 
L 141.831767 148.820468 
L 144.277143 148.59822 
L 146.722518 148.461868 
L 149.167893 148.419735 
L 151.613268 148.479759 
L 154.058644 148.650634 
L 156.504019 148.942853 
L 158.949394 149.369653 
L 160.160369 149.656968 
L 161.39477 149.92421 
L 163.840145 150.614075 
L 166.28552 151.488974 
L 167.125695 151.857806 
L 168.730896 152.527528 
L 171.176271 153.783916 
L 171.627687 154.058644 
L 173.621646 155.256798 
L 175.019234 156.259481 
L 176.067021 157.023317 
L 177.751748 158.460319 
L 178.512397 159.142287 
L 179.996024 160.661157 
L 180.957772 161.73755 
L 181.861812 162.861995 
L 183.403147 165.054231 
L 183.408745 165.062833 
L 184.68592 167.26367 
L 185.708991 169.464508 
L 185.848523 169.83627 
L 186.519186 171.665346 
L 187.114866 173.866184 
L 187.502883 176.067021 
L 187.691493 178.267859 
L 187.684161 180.468697 
L 187.478002 182.669535 
L 187.062804 184.870372 
L 186.420798 187.07121 
L 185.848523 188.501306 
L 185.541503 189.272048 
L 184.407354 191.472886 
L 183.403147 193.017649 
L 182.956598 193.673724 
L 181.141948 195.874561 
L 180.957772 196.06884 
L 178.85428 198.075399 
L 178.512397 198.364496 
L 176.067021 200.169958 
L 175.897651 200.276237 
L 173.621646 201.614072 
L 171.781108 202.477075 
L 171.176271 202.752368 
L 168.730896 203.648502 
L 166.28552 204.30775 
L 164.280057 204.677912 
L 163.840145 204.761735 
L 161.39477 205.037338 
L 158.949394 205.125837 
L 156.504019 205.033495 
L 154.058644 204.761665 
z
M 167.791061 81.430997 
L 166.28552 81.021623 
L 163.840145 80.131635 
L 161.922069 79.23016 
L 161.39477 78.965276 
L 158.949394 77.488507 
L 158.299349 77.029322 
L 156.504019 75.594803 
L 155.659523 74.828484 
L 154.058644 73.105461 
L 153.65046 72.627646 
L 152.099389 70.426809 
L 151.613268 69.538885 
L 150.915704 68.225971 
L 150.048847 66.025133 
L 149.474812 63.824295 
L 149.167893 61.7266 
L 149.152313 61.623457 
L 149.048846 59.42262 
L 149.167893 57.41069 
L 149.177777 57.221782 
L 149.506336 55.020944 
L 150.052865 52.820106 
L 150.835617 50.619269 
L 151.613268 48.975588 
L 151.862174 48.418431 
L 153.116136 46.217593 
L 154.058644 44.891156 
L 154.673646 44.016755 
L 156.504019 41.893325 
L 156.572439 41.815918 
L 158.880403 39.61508 
L 158.949394 39.557895 
L 161.39477 37.671447 
L 161.767503 37.414242 
L 163.840145 36.127243 
L 165.581903 35.213404 
L 166.28552 34.869615 
L 168.730896 33.860867 
L 171.176271 33.087672 
L 171.492333 33.012567 
L 173.621646 32.510204 
L 176.067021 32.134147 
L 178.512397 31.954289 
L 180.957772 31.967424 
L 183.403147 32.176787 
L 185.848523 32.592929 
L 187.468296 33.012567 
L 188.293898 33.223143 
L 190.739273 34.07804 
L 193.176501 35.213404 
L 193.184648 35.217345 
L 195.630024 36.659166 
L 196.687615 37.414242 
L 198.075399 38.507946 
L 199.293307 39.61508 
L 200.520774 40.905688 
L 201.306545 41.815918 
L 202.876602 44.016755 
L 202.96615 44.170976 
L 204.112184 46.217593 
L 205.03643 48.418431 
L 205.411525 49.66742 
L 205.70216 50.619269 
L 206.1358 52.820106 
L 206.336419 55.020944 
L 206.313997 57.221782 
L 206.070274 59.42262 
L 205.599661 61.623457 
L 205.411525 62.227392 
L 204.910624 63.824295 
L 203.97351 66.025133 
L 202.96615 67.869301 
L 202.759908 68.225971 
L 201.247138 70.426809 
L 200.520774 71.333327 
L 199.368751 72.627646 
L 198.075399 73.924837 
L 197.039373 74.828484 
L 195.630024 75.97701 
L 194.095602 77.029322 
L 193.184648 77.636444 
L 190.739273 78.983022 
L 190.182734 79.23016 
L 188.293898 80.088235 
L 185.848523 80.951988 
L 184.029001 81.430997 
L 183.403147 81.606677 
L 180.957772 82.089353 
L 178.512397 82.379145 
L 176.067021 82.485248 
L 173.621646 82.409399 
L 171.176271 82.146009 
L 168.730896 81.682226 
z
" style="fill:#99c7e0;fill-opacity:0.5;"/>
   </g>
   <g id="PathCollection_5">
    <path clip-path="url(#pb79527c8d9)" d="M 154.058644 204.761665 
L 156.504019 205.033495 
L 158.949394 205.125837 
L 161.39477 205.037338 
L 163.840145 204.761735 
L 164.280057 204.677912 
L 166.28552 204.30775 
L 168.730896 203.648502 
L 171.176271 202.752368 
L 171.781108 202.477075 
L 173.621646 201.614072 
L 175.897651 200.276237 
L 176.067021 200.169958 
L 178.512397 198.364496 
L 178.85428 198.075399 
L 180.957772 196.06884 
L 181.141948 195.874561 
L 182.956598 193.673724 
L 183.403147 193.017649 
L 184.407354 191.472886 
L 185.541503 189.272048 
L 185.848523 188.501306 
L 186.420798 187.07121 
L 187.062804 184.870372 
L 187.478002 182.669535 
L 187.684161 180.468697 
L 187.691493 178.267859 
L 187.502883 176.067021 
L 187.114866 173.866184 
L 186.519186 171.665346 
L 185.848523 169.83627 
L 185.708991 169.464508 
L 184.68592 167.26367 
L 183.408745 165.062833 
L 183.403147 165.054231 
L 181.861812 162.861995 
L 180.957772 161.73755 
L 179.996024 160.661157 
L 178.512397 159.142287 
L 177.751748 158.460319 
L 176.067021 157.023317 
L 175.019234 156.259481 
L 173.621646 155.256798 
L 171.627687 154.058644 
L 171.176271 153.783916 
L 168.730896 152.527528 
L 167.125695 151.857806 
L 166.28552 151.488974 
L 163.840145 150.614075 
L 161.39477 149.92421 
L 160.160369 149.656968 
L 158.949394 149.369653 
L 156.504019 148.942853 
L 154.058644 148.650634 
L 151.613268 148.479759 
L 149.167893 148.419735 
L 146.722518 148.461868 
L 144.277143 148.59822 
L 141.831767 148.820468 
L 139.386392 149.118548 
L 136.941017 149.478937 
L 135.795408 149.656968 
L 134.495641 149.876062 
L 132.050266 150.288524 
L 129.604891 150.681765 
L 127.159515 150.987885 
L 124.71414 151.087894 
L 122.268765 150.754293 
L 120.074954 149.656968 
L 119.82339 149.506297 
L 117.982433 147.45613 
L 117.378014 146.661573 
L 116.638636 145.255293 
L 115.556577 143.054455 
L 114.932639 141.736587 
L 114.597817 140.853617 
L 113.737714 138.652779 
L 112.873049 136.451942 
L 112.487264 135.50051 
L 112.043727 134.251104 
L 111.227105 132.050266 
L 110.381167 129.849428 
L 110.041888 128.996219 
L 109.548974 127.648591 
L 108.713621 125.447753 
L 107.851397 123.246915 
L 107.596513 122.605137 
L 107.009302 121.046077 
L 106.168039 118.845239 
L 105.320044 116.644402 
L 105.151138 116.19753 
L 104.512409 114.443564 
L 103.72651 112.242726 
L 102.963894 110.041888 
L 102.705762 109.256248 
L 102.257088 107.841051 
L 101.602514 105.640213 
L 100.992481 103.439375 
L 100.427886 101.238537 
L 100.260387 100.531451 
L 99.924689 99.0377 
L 99.467342 96.836862 
L 99.037492 94.636024 
L 98.622159 92.435186 
L 98.205938 90.234348 
L 97.815012 88.255067 
L 97.774613 88.033511 
L 97.339291 85.832673 
L 96.855695 83.631835 
L 96.304212 81.430997 
L 95.663603 79.23016 
L 95.369637 78.368296 
L 94.950742 77.029322 
L 94.141353 74.828484 
L 93.183326 72.627646 
L 92.924261 72.118725 
L 92.123839 70.426809 
L 90.891806 68.225971 
L 90.478886 67.591949 
L 89.513282 66.025133 
L 88.033511 63.991693 
L 87.916503 63.824295 
L 86.139282 61.623457 
L 85.588135 61.031856 
L 84.104999 59.42262 
L 83.14276 58.511253 
L 81.76473 57.221782 
L 80.697385 56.338112 
L 79.043934 55.020944 
L 78.25201 54.45371 
L 75.809137 52.820106 
L 75.806634 52.818574 
L 73.361259 51.406376 
L 71.812726 50.619269 
L 70.915884 50.190828 
L 68.470508 49.15701 
L 66.37 48.418431 
L 66.025133 48.300856 
L 63.579758 47.595002 
L 61.134382 47.052158 
L 58.689007 46.665915 
L 56.243632 46.430816 
L 53.798257 46.3435 
L 51.352881 46.403777 
L 48.907506 46.615475 
L 46.462131 46.986933 
L 44.016755 47.531059 
L 41.57138 48.264987 
L 41.159167 48.418431 
L 39.126005 49.176105 
L 36.680629 50.316403 
L 36.126828 50.619269 
L 34.235254 51.696256 
L 32.55963 52.820106 
L 31.789879 53.373239 
L 29.772532 55.020944 
L 29.344504 55.407148 
L 27.51298 57.221782 
L 26.899128 57.914673 
L 25.643068 59.42262 
L 24.453753 61.097639 
L 24.092739 61.623457 
L 22.795406 63.824295 
L 22.008378 65.457997 
L 21.734335 66.025133 
L 20.856683 68.225971 
L 20.170964 70.426809 
L 19.654642 72.627646 
L 19.563002 73.178423 
L 19.274459 74.828484 
L 19.033795 77.029322 
L 18.92544 79.23016 
L 18.938953 81.430997 
L 19.064851 83.631835 
L 19.293708 85.832673 
L 19.563002 87.684738 
L 19.613887 88.033511 
L 20.007736 90.234348 
L 20.471308 92.435186 
L 20.989261 94.636024 
L 21.543718 96.836862 
L 22.008378 98.637323 
L 22.114809 99.0377 
L 22.683003 101.238537 
L 23.228322 103.439375 
L 23.730851 105.640213 
L 24.174083 107.841051 
L 24.453753 109.497011 
L 24.54701 110.041888 
L 24.843428 112.242726 
L 25.059817 114.443564 
L 25.201378 116.644402 
L 25.278267 118.845239 
L 25.304373 121.046077 
L 25.295972 123.246915 
L 25.270473 125.447753 
L 25.245371 127.648591 
L 25.237506 129.849428 
L 25.262661 132.050266 
L 25.335462 134.251104 
L 25.469566 136.451942 
L 25.678037 138.652779 
L 25.973851 140.853617 
L 26.37044 143.054455 
L 26.882199 145.255293 
L 26.899128 145.313796 
L 27.493919 147.45613 
L 28.246883 149.656968 
L 29.162582 151.857806 
L 29.344504 152.23162 
L 30.223927 154.058644 
L 31.486628 156.259481 
L 31.789879 156.722263 
L 32.949904 158.460319 
L 34.235254 160.121774 
L 34.669779 160.661157 
L 36.680629 162.861144 
L 36.68146 162.861995 
L 39.054401 165.062833 
L 39.126005 165.12392 
L 41.57138 167.030592 
L 41.907743 167.26367 
L 44.016755 168.653315 
L 45.442437 169.464508 
L 46.462131 170.029601 
L 48.907506 171.196433 
L 50.077467 171.665346 
L 51.352881 172.180068 
L 53.798257 173.000354 
L 56.243632 173.655947 
L 57.247304 173.866184 
L 58.689007 174.182331 
L 61.134382 174.581806 
L 63.579758 174.853785 
L 66.025133 175.007512 
L 68.470508 175.050181 
L 70.915884 174.987341 
L 73.361259 174.823444 
L 75.806634 174.562471 
L 78.25201 174.208604 
L 80.171827 173.866184 
L 80.697385 173.769263 
L 83.14276 173.255027 
L 85.588135 172.662496 
L 88.033511 172.001234 
L 89.226887 171.665346 
L 90.478886 171.281537 
L 92.924261 170.512086 
L 95.369637 169.712723 
L 96.175792 169.464508 
L 97.815012 168.888059 
L 100.260387 168.069864 
L 102.705762 167.305712 
L 102.882465 167.26367 
L 105.151138 166.599421 
L 107.596513 166.070377 
L 110.041888 165.857651 
L 112.487264 166.220749 
L 114.289808 167.26367 
L 114.932639 167.666645 
L 116.453181 169.464508 
L 117.378014 170.621974 
L 117.944784 171.665346 
L 119.200064 173.866184 
L 119.82339 174.888979 
L 120.386303 176.067021 
L 121.560768 178.267859 
L 122.268765 179.452246 
L 122.781272 180.468697 
L 124.059426 182.669535 
L 124.71414 183.652675 
L 125.434425 184.870372 
L 126.948655 187.07121 
L 127.159515 187.337793 
L 128.58226 189.272048 
L 129.604891 190.468212 
L 130.426885 191.472886 
L 132.050266 193.179548 
L 132.514274 193.673724 
L 134.495641 195.503725 
L 134.905858 195.874561 
L 136.941017 197.49472 
L 137.715536 198.075399 
L 139.386392 199.201682 
L 141.153529 200.276237 
L 141.831767 200.656114 
L 144.277143 201.877637 
L 145.700667 202.477075 
L 146.722518 202.887644 
L 149.167893 203.70312 
L 151.613268 204.323344 
L 153.594268 204.677912 
z
M 154.469392 195.874561 
L 154.058644 195.777582 
L 151.613268 194.901432 
L 149.194915 193.673724 
L 149.167893 193.658139 
L 146.722518 191.946459 
L 146.142329 191.472886 
L 144.277143 189.597575 
L 143.97631 189.272048 
L 142.374606 187.07121 
L 141.831767 186.035684 
L 141.206191 184.870372 
L 140.397995 182.669535 
L 139.932698 180.468697 
L 139.784067 178.267859 
L 139.954608 176.067021 
L 140.477158 173.866184 
L 141.417285 171.665346 
L 141.831767 170.985212 
L 142.846259 169.464508 
L 144.277143 167.901732 
L 144.964889 167.26367 
L 146.722518 165.938639 
L 148.2246 165.062833 
L 149.167893 164.578255 
L 151.613268 163.63947 
L 154.058644 163.046578 
L 155.537673 162.861995 
L 156.504019 162.741674 
L 158.949394 162.706499 
L 160.514883 162.861995 
L 161.39477 162.942094 
L 163.840145 163.439383 
L 166.28552 164.248686 
L 167.997055 165.062833 
L 168.730896 165.41609 
L 171.176271 167.014169 
L 171.481226 167.26367 
L 173.621646 169.232063 
L 173.83204 169.464508 
L 175.518627 171.665346 
L 176.067021 172.60822 
L 176.732676 173.866184 
L 177.551377 176.067021 
L 178.015315 178.267859 
L 178.152319 180.468697 
L 177.970423 182.669535 
L 177.45062 184.870372 
L 176.546848 187.07121 
L 176.067021 187.891924 
L 175.203025 189.272048 
L 173.621646 191.125757 
L 173.276561 191.472886 
L 171.176271 193.197612 
L 170.428438 193.673724 
L 168.730896 194.642865 
L 166.28552 195.630989 
L 165.345567 195.874561 
L 163.840145 196.265132 
L 161.39477 196.58601 
L 158.949394 196.609021 
L 156.504019 196.34151 
z
M 60.771424 165.062833 
L 58.689007 164.79691 
L 56.243632 164.270148 
L 53.798257 163.502254 
L 52.266137 162.861995 
L 51.352881 162.47357 
L 48.907506 161.147414 
L 48.165518 160.661157 
L 46.462131 159.447971 
L 45.279661 158.460319 
L 44.016755 157.257767 
L 43.074762 156.259481 
L 41.57138 154.355644 
L 41.350447 154.058644 
L 39.982107 151.857806 
L 39.126005 150.075453 
L 38.92498 149.656968 
L 38.104105 147.45613 
L 37.518189 145.255293 
L 37.137432 143.054455 
L 36.939267 140.853617 
L 36.907675 138.652779 
L 37.031209 136.451942 
L 37.300218 134.251104 
L 37.703865 132.050266 
L 38.22745 129.849428 
L 38.850322 127.648591 
L 39.126005 126.739494 
L 39.556551 125.447753 
L 40.318196 123.246915 
L 41.084584 121.046077 
L 41.57138 119.523264 
L 41.819528 118.845239 
L 42.482794 116.644402 
L 42.972833 114.443564 
L 43.221485 112.242726 
L 43.168113 110.041888 
L 42.766413 107.841051 
L 41.991296 105.640213 
L 41.57138 104.8321 
L 40.932531 103.439375 
L 39.642013 101.238537 
L 39.126005 100.500199 
L 38.235834 99.0377 
L 36.768549 96.836862 
L 36.680629 96.714467 
L 35.380151 94.636024 
L 34.235254 92.773033 
L 34.050618 92.435186 
L 32.871328 90.234348 
L 31.827258 88.033511 
L 31.789879 87.94602 
L 30.957751 85.832673 
L 30.261248 83.631835 
L 29.750874 81.430997 
L 29.433502 79.23016 
L 29.344504 77.622122 
L 29.311474 77.029322 
L 29.344504 76.1926 
L 29.394783 74.828484 
L 29.691387 72.627646 
L 30.225827 70.426809 
L 31.03347 68.225971 
L 31.789879 66.724437 
L 32.148325 66.025133 
L 33.621455 63.824295 
L 34.235254 63.084503 
L 35.570117 61.623457 
L 36.680629 60.605344 
L 38.194266 59.42262 
L 39.126005 58.775441 
L 41.57138 57.408136 
L 42.004926 57.221782 
L 44.016755 56.387902 
L 46.462131 55.675255 
L 48.907506 55.236167 
L 51.352881 55.04205 
L 53.798257 55.078429 
L 56.243632 55.34551 
L 58.689007 55.855371 
L 61.134382 56.627063 
L 62.560144 57.221782 
L 63.579758 57.679705 
L 66.025133 59.051187 
L 66.594538 59.42262 
L 68.470508 60.821363 
L 69.429056 61.623457 
L 70.915884 63.103899 
L 71.598145 63.824295 
L 73.29631 66.025133 
L 73.361259 66.130092 
L 74.670503 68.225971 
L 75.722212 70.426809 
L 75.806634 70.659755 
L 76.561207 72.627646 
L 77.17242 74.828484 
L 77.584396 77.029322 
L 77.822992 79.23016 
L 77.907598 81.430997 
L 77.853814 83.631835 
L 77.676323 85.832673 
L 77.391768 88.033511 
L 77.02147 90.234348 
L 76.593767 92.435186 
L 76.145722 94.636024 
L 75.806634 96.427606 
L 75.721166 96.836862 
L 75.364725 99.0377 
L 75.150421 101.238537 
L 75.148512 103.439375 
L 75.423723 105.640213 
L 75.806634 107.060145 
L 76.007064 107.841051 
L 76.870471 110.041888 
L 78.021542 112.242726 
L 78.25201 112.602325 
L 79.330435 114.443564 
L 80.697385 116.53108 
L 80.765718 116.644402 
L 82.202824 118.845239 
L 83.14276 120.26444 
L 83.62256 121.046077 
L 84.961797 123.246915 
L 85.588135 124.330946 
L 86.199178 125.447753 
L 87.310846 127.648591 
L 88.033511 129.279973 
L 88.280332 129.849428 
L 89.114219 132.050266 
L 89.782503 134.251104 
L 90.280186 136.451942 
L 90.478886 137.786753 
L 90.613986 138.652779 
L 90.774234 140.853617 
L 90.735631 143.054455 
L 90.480129 145.255293 
L 90.478886 145.260917 
L 90.022514 147.45613 
L 89.304686 149.656968 
L 88.270881 151.857806 
L 88.033511 152.246186 
L 86.933211 154.058644 
L 85.588135 155.743315 
L 85.164642 156.259481 
L 83.14276 158.227216 
L 82.885674 158.460319 
L 80.697385 160.117932 
L 79.884484 160.661157 
L 78.25201 161.61289 
L 75.806634 162.795048 
L 75.641768 162.861995 
L 73.361259 163.717966 
L 70.915884 164.407218 
L 68.470508 164.879092 
L 66.826549 165.062833 
L 66.025133 165.152449 
L 63.579758 165.233106 
L 61.134382 165.111854 
z
" style="fill:#6aaed6;fill-opacity:0.5;"/>
    <path clip-path="url(#pb79527c8d9)" d="M 168.730896 81.682226 
L 171.176271 82.146009 
L 173.621646 82.409399 
L 176.067021 82.485248 
L 178.512397 82.379145 
L 180.957772 82.089353 
L 183.403147 81.606677 
L 184.029001 81.430997 
L 185.848523 80.951988 
L 188.293898 80.088235 
L 190.182734 79.23016 
L 190.739273 78.983022 
L 193.184648 77.636444 
L 194.095602 77.029322 
L 195.630024 75.97701 
L 197.039373 74.828484 
L 198.075399 73.924837 
L 199.368751 72.627646 
L 200.520774 71.333327 
L 201.247138 70.426809 
L 202.759908 68.225971 
L 202.96615 67.869301 
L 203.97351 66.025133 
L 204.910624 63.824295 
L 205.411525 62.227392 
L 205.599661 61.623457 
L 206.070274 59.42262 
L 206.313997 57.221782 
L 206.336419 55.020944 
L 206.1358 52.820106 
L 205.70216 50.619269 
L 205.411525 49.66742 
L 205.03643 48.418431 
L 204.112184 46.217593 
L 202.96615 44.170976 
L 202.876602 44.016755 
L 201.306545 41.815918 
L 200.520774 40.905688 
L 199.293307 39.61508 
L 198.075399 38.507946 
L 196.687615 37.414242 
L 195.630024 36.659166 
L 193.184648 35.217345 
L 193.176501 35.213404 
L 190.739273 34.07804 
L 188.293898 33.223143 
L 187.468296 33.012567 
L 185.848523 32.592929 
L 183.403147 32.176787 
L 180.957772 31.967424 
L 178.512397 31.954289 
L 176.067021 32.134147 
L 173.621646 32.510204 
L 171.492333 33.012567 
L 171.176271 33.087672 
L 168.730896 33.860867 
L 166.28552 34.869615 
L 165.581903 35.213404 
L 163.840145 36.127243 
L 161.767503 37.414242 
L 161.39477 37.671447 
L 158.949394 39.557895 
L 158.880403 39.61508 
L 156.572439 41.815918 
L 156.504019 41.893325 
L 154.673646 44.016755 
L 154.058644 44.891156 
L 153.116136 46.217593 
L 151.862174 48.418431 
L 151.613268 48.975588 
L 150.835617 50.619269 
L 150.052865 52.820106 
L 149.506336 55.020944 
L 149.177777 57.221782 
L 149.167893 57.41069 
L 149.048846 59.42262 
L 149.152313 61.623457 
L 149.167893 61.7266 
L 149.474812 63.824295 
L 150.048847 66.025133 
L 150.915704 68.225971 
L 151.613268 69.538885 
L 152.099389 70.426809 
L 153.65046 72.627646 
L 154.058644 73.105461 
L 155.659523 74.828484 
L 156.504019 75.594803 
L 158.299349 77.029322 
L 158.949394 77.488507 
L 161.39477 78.965276 
L 161.922069 79.23016 
L 163.840145 80.131635 
L 166.28552 81.021623 
L 167.791061 81.430997 
z
M 175.823805 70.426809 
L 173.621646 69.857031 
L 171.176271 68.819369 
L 170.159738 68.225971 
L 168.730896 67.262939 
L 167.297183 66.025133 
L 166.28552 64.913389 
L 165.429152 63.824295 
L 164.191578 61.623457 
L 163.840145 60.637986 
L 163.419671 59.42262 
L 163.042462 57.221782 
L 163.038705 55.020944 
L 163.402932 52.820106 
L 163.840145 51.536066 
L 164.141966 50.619269 
L 165.297236 48.418431 
L 166.28552 47.098906 
L 166.997519 46.217593 
L 168.730896 44.593403 
L 169.463038 44.016755 
L 171.176271 42.896363 
L 173.406173 41.815918 
L 173.621646 41.721611 
L 176.067021 40.947984 
L 178.512397 40.526356 
L 180.957772 40.430154 
L 183.403147 40.654895 
L 185.848523 41.224423 
L 187.388094 41.815918 
L 188.293898 42.180931 
L 190.739273 43.617578 
L 191.265374 44.016755 
L 193.184648 45.764954 
L 193.599835 46.217593 
L 195.1624 48.418431 
L 195.630024 49.389281 
L 196.195617 50.619269 
L 196.802261 52.820106 
L 197.023788 55.020944 
L 196.883283 57.221782 
L 196.372666 59.42262 
L 195.630024 61.237081 
L 195.461539 61.623457 
L 194.084749 63.824295 
L 193.184648 64.913255 
L 192.080391 66.025133 
L 190.739273 67.162645 
L 189.090399 68.225971 
L 188.293898 68.70184 
L 185.848523 69.761531 
L 183.403147 70.420648 
L 183.357018 70.426809 
L 180.957772 70.768578 
L 178.512397 70.791114 
L 176.067021 70.487773 
z
" style="fill:#6aaed6;fill-opacity:0.5;"/>
   </g>
   <g id="PathCollection_6">
    <path clip-path="url(#pb79527c8d9)" d="M 156.504019 196.34151 
L 158.949394 196.609021 
L 161.39477 196.58601 
L 163.840145 196.265132 
L 165.345567 195.874561 
L 166.28552 195.630989 
L 168.730896 194.642865 
L 170.428438 193.673724 
L 171.176271 193.197612 
L 173.276561 191.472886 
L 173.621646 191.125757 
L 175.203025 189.272048 
L 176.067021 187.891924 
L 176.546848 187.07121 
L 177.45062 184.870372 
L 177.970423 182.669535 
L 178.152319 180.468697 
L 178.015315 178.267859 
L 177.551377 176.067021 
L 176.732676 173.866184 
L 176.067021 172.60822 
L 175.518627 171.665346 
L 173.83204 169.464508 
L 173.621646 169.232063 
L 171.481226 167.26367 
L 171.176271 167.014169 
L 168.730896 165.41609 
L 167.997055 165.062833 
L 166.28552 164.248686 
L 163.840145 163.439383 
L 161.39477 162.942094 
L 160.514883 162.861995 
L 158.949394 162.706499 
L 156.504019 162.741674 
L 155.537673 162.861995 
L 154.058644 163.046578 
L 151.613268 163.63947 
L 149.167893 164.578255 
L 148.2246 165.062833 
L 146.722518 165.938639 
L 144.964889 167.26367 
L 144.277143 167.901732 
L 142.846259 169.464508 
L 141.831767 170.985212 
L 141.417285 171.665346 
L 140.477158 173.866184 
L 139.954608 176.067021 
L 139.784067 178.267859 
L 139.932698 180.468697 
L 140.397995 182.669535 
L 141.206191 184.870372 
L 141.831767 186.035684 
L 142.374606 187.07121 
L 143.97631 189.272048 
L 144.277143 189.597575 
L 146.142329 191.472886 
L 146.722518 191.946459 
L 149.167893 193.658139 
L 149.194915 193.673724 
L 151.613268 194.901432 
L 154.058644 195.777582 
L 154.469392 195.874561 
z
M 157.918852 189.272048 
L 156.504019 188.849314 
L 154.058644 187.420342 
L 153.625272 187.07121 
L 151.761066 184.870372 
L 151.613268 184.541372 
L 150.797637 182.669535 
L 150.511795 180.468697 
L 150.857845 178.267859 
L 151.613268 176.642506 
L 151.922962 176.067021 
L 154.05129 173.866184 
L 154.058644 173.86061 
L 156.504019 172.559848 
L 158.949394 171.975497 
L 161.39477 171.957548 
L 163.840145 172.487826 
L 166.28552 173.699431 
L 166.506042 173.866184 
L 168.730896 176.016147 
L 168.77018 176.067021 
L 169.935573 178.267859 
L 170.396148 180.468697 
L 170.227603 182.669535 
L 169.380162 184.870372 
L 168.730896 185.789415 
L 167.592566 187.07121 
L 166.28552 188.086489 
L 163.840145 189.214862 
L 163.532097 189.272048 
L 161.39477 189.667177 
L 158.949394 189.547997 
z
" style="fill:#4695c8;fill-opacity:0.5;"/>
    <path clip-path="url(#pb79527c8d9)" d="M 61.134382 165.111854 
L 63.579758 165.233106 
L 66.025133 165.152449 
L 66.826549 165.062833 
L 68.470508 164.879092 
L 70.915884 164.407218 
L 73.361259 163.717966 
L 75.641768 162.861995 
L 75.806634 162.795048 
L 78.25201 161.61289 
L 79.884484 160.661157 
L 80.697385 160.117932 
L 82.885674 158.460319 
L 83.14276 158.227216 
L 85.164642 156.259481 
L 85.588135 155.743315 
L 86.933211 154.058644 
L 88.033511 152.246186 
L 88.270881 151.857806 
L 89.304686 149.656968 
L 90.022514 147.45613 
L 90.478886 145.260917 
L 90.480129 145.255293 
L 90.735631 143.054455 
L 90.774234 140.853617 
L 90.613986 138.652779 
L 90.478886 137.786753 
L 90.280186 136.451942 
L 89.782503 134.251104 
L 89.114219 132.050266 
L 88.280332 129.849428 
L 88.033511 129.279973 
L 87.310846 127.648591 
L 86.199178 125.447753 
L 85.588135 124.330946 
L 84.961797 123.246915 
L 83.62256 121.046077 
L 83.14276 120.26444 
L 82.202824 118.845239 
L 80.765718 116.644402 
L 80.697385 116.53108 
L 79.330435 114.443564 
L 78.25201 112.602325 
L 78.021542 112.242726 
L 76.870471 110.041888 
L 76.007064 107.841051 
L 75.806634 107.060145 
L 75.423723 105.640213 
L 75.148512 103.439375 
L 75.150421 101.238537 
L 75.364725 99.0377 
L 75.721166 96.836862 
L 75.806634 96.427606 
L 76.145722 94.636024 
L 76.593767 92.435186 
L 77.02147 90.234348 
L 77.391768 88.033511 
L 77.676323 85.832673 
L 77.853814 83.631835 
L 77.907598 81.430997 
L 77.822992 79.23016 
L 77.584396 77.029322 
L 77.17242 74.828484 
L 76.561207 72.627646 
L 75.806634 70.659755 
L 75.722212 70.426809 
L 74.670503 68.225971 
L 73.361259 66.130092 
L 73.29631 66.025133 
L 71.598145 63.824295 
L 70.915884 63.103899 
L 69.429056 61.623457 
L 68.470508 60.821363 
L 66.594538 59.42262 
L 66.025133 59.051187 
L 63.579758 57.679705 
L 62.560144 57.221782 
L 61.134382 56.627063 
L 58.689007 55.855371 
L 56.243632 55.34551 
L 53.798257 55.078429 
L 51.352881 55.04205 
L 48.907506 55.236167 
L 46.462131 55.675255 
L 44.016755 56.387902 
L 42.004926 57.221782 
L 41.57138 57.408136 
L 39.126005 58.775441 
L 38.194266 59.42262 
L 36.680629 60.605344 
L 35.570117 61.623457 
L 34.235254 63.084503 
L 33.621455 63.824295 
L 32.148325 66.025133 
L 31.789879 66.724437 
L 31.03347 68.225971 
L 30.225827 70.426809 
L 29.691387 72.627646 
L 29.394783 74.828484 
L 29.344504 76.1926 
L 29.311474 77.029322 
L 29.344504 77.622122 
L 29.433502 79.23016 
L 29.750874 81.430997 
L 30.261248 83.631835 
L 30.957751 85.832673 
L 31.789879 87.94602 
L 31.827258 88.033511 
L 32.871328 90.234348 
L 34.050618 92.435186 
L 34.235254 92.773033 
L 35.380151 94.636024 
L 36.680629 96.714467 
L 36.768549 96.836862 
L 38.235834 99.0377 
L 39.126005 100.500199 
L 39.642013 101.238537 
L 40.932531 103.439375 
L 41.57138 104.8321 
L 41.991296 105.640213 
L 42.766413 107.841051 
L 43.168113 110.041888 
L 43.221485 112.242726 
L 42.972833 114.443564 
L 42.482794 116.644402 
L 41.819528 118.845239 
L 41.57138 119.523264 
L 41.084584 121.046077 
L 40.318196 123.246915 
L 39.556551 125.447753 
L 39.126005 126.739494 
L 38.850322 127.648591 
L 38.22745 129.849428 
L 37.703865 132.050266 
L 37.300218 134.251104 
L 37.031209 136.451942 
L 36.907675 138.652779 
L 36.939267 140.853617 
L 37.137432 143.054455 
L 37.518189 145.255293 
L 38.104105 147.45613 
L 38.92498 149.656968 
L 39.126005 150.075453 
L 39.982107 151.857806 
L 41.350447 154.058644 
L 41.57138 154.355644 
L 43.074762 156.259481 
L 44.016755 157.257767 
L 45.279661 158.460319 
L 46.462131 159.447971 
L 48.165518 160.661157 
L 48.907506 161.147414 
L 51.352881 162.47357 
L 52.266137 162.861995 
L 53.798257 163.502254 
L 56.243632 164.270148 
L 58.689007 164.79691 
L 60.771424 165.062833 
z
M 55.409381 156.259481 
L 53.798257 155.524363 
L 51.58865 154.058644 
L 51.352881 153.872633 
L 49.315989 151.857806 
L 48.907506 151.311485 
L 47.787332 149.656968 
L 46.788062 147.45613 
L 46.462131 146.225238 
L 46.196736 145.255293 
L 45.957232 143.054455 
L 46.055412 140.853617 
L 46.462131 138.745853 
L 46.481188 138.652779 
L 47.24681 136.451942 
L 48.389976 134.251104 
L 48.907506 133.44678 
L 50.017656 132.050266 
L 51.352881 130.61274 
L 52.312713 129.849428 
L 53.798257 128.724896 
L 55.948534 127.648591 
L 56.243632 127.496709 
L 58.689007 126.732476 
L 61.134382 126.44333 
L 63.579758 126.580323 
L 66.025133 127.145667 
L 67.246445 127.648591 
L 68.470508 128.140043 
L 70.915884 129.635219 
L 71.182175 129.849428 
L 73.361259 131.769403 
L 73.617565 132.050266 
L 75.344717 134.251104 
L 75.806634 135.01067 
L 76.5895 136.451942 
L 77.432097 138.652779 
L 77.910927 140.853617 
L 78.050331 143.054455 
L 77.853763 145.255293 
L 77.290722 147.45613 
L 76.287934 149.656968 
L 75.806634 150.377596 
L 74.762358 151.857806 
L 73.361259 153.276896 
L 72.458882 154.058644 
L 70.915884 155.116964 
L 68.665905 156.259481 
L 68.470508 156.346087 
L 66.025133 157.124379 
L 63.579758 157.525232 
L 61.134382 157.578059 
L 58.689007 157.285549 
L 56.243632 156.617068 
z
M 46.773641 88.033511 
L 46.462131 87.91576 
L 44.016755 86.43892 
L 43.309531 85.832673 
L 41.57138 84.21837 
L 41.087975 83.631835 
L 39.56802 81.430997 
L 39.126005 80.559647 
L 38.544059 79.23016 
L 37.942124 77.029322 
L 37.730995 74.828484 
L 37.911491 72.627646 
L 38.519742 70.426809 
L 39.126005 69.194201 
L 39.626428 68.225971 
L 41.400598 66.025133 
L 41.57138 65.862543 
L 44.016755 64.014708 
L 44.386123 63.824295 
L 46.462131 62.869607 
L 48.907506 62.239764 
L 51.352881 62.041445 
L 53.798257 62.241331 
L 56.243632 62.860966 
L 58.430335 63.824295 
L 58.689007 63.957089 
L 61.134382 65.686559 
L 61.524523 66.025133 
L 63.431148 68.225971 
L 63.579758 68.480015 
L 64.690125 70.426809 
L 65.447998 72.627646 
L 65.799111 74.828484 
L 65.789939 77.029322 
L 65.419725 79.23016 
L 64.655408 81.430997 
L 63.579758 83.417774 
L 63.439814 83.631835 
L 61.578444 85.832673 
L 61.134382 86.269705 
L 58.689007 87.966354 
L 58.532598 88.033511 
L 56.243632 88.986594 
L 53.798257 89.430005 
L 51.352881 89.392053 
L 48.907506 88.897782 
z
" style="fill:#4695c8;fill-opacity:0.5;"/>
    <path clip-path="url(#pb79527c8d9)" d="M 176.067021 70.487773 
L 178.512397 70.791114 
L 180.957772 70.768578 
L 183.357018 70.426809 
L 183.403147 70.420648 
L 185.848523 69.761531 
L 188.293898 68.70184 
L 189.090399 68.225971 
L 190.739273 67.162645 
L 192.080391 66.025133 
L 193.184648 64.913255 
L 194.084749 63.824295 
L 195.461539 61.623457 
L 195.630024 61.237081 
L 196.372666 59.42262 
L 196.883283 57.221782 
L 197.023788 55.020944 
L 196.802261 52.820106 
L 196.195617 50.619269 
L 195.630024 49.389281 
L 195.1624 48.418431 
L 193.599835 46.217593 
L 193.184648 45.764954 
L 191.265374 44.016755 
L 190.739273 43.617578 
L 188.293898 42.180931 
L 187.388094 41.815918 
L 185.848523 41.224423 
L 183.403147 40.654895 
L 180.957772 40.430154 
L 178.512397 40.526356 
L 176.067021 40.947984 
L 173.621646 41.721611 
L 173.406173 41.815918 
L 171.176271 42.896363 
L 169.463038 44.016755 
L 168.730896 44.593403 
L 166.997519 46.217593 
L 166.28552 47.098906 
L 165.297236 48.418431 
L 164.141966 50.619269 
L 163.840145 51.536066 
L 163.402932 52.820106 
L 163.038705 55.020944 
L 163.042462 57.221782 
L 163.419671 59.42262 
L 163.840145 60.637986 
L 164.191578 61.623457 
L 165.429152 63.824295 
L 166.28552 64.913389 
L 167.297183 66.025133 
L 168.730896 67.262939 
L 170.159738 68.225971 
L 171.176271 68.819369 
L 173.621646 69.857031 
L 175.823805 70.426809 
z
M 177.088154 61.623457 
L 176.067021 61.120233 
L 174.14013 59.42262 
L 173.621646 58.616394 
L 172.888466 57.221782 
L 172.510192 55.020944 
L 172.878443 52.820106 
L 173.621646 51.411643 
L 174.095234 50.619269 
L 176.067021 48.837816 
L 176.835798 48.418431 
L 178.512397 47.70163 
L 180.957772 47.335354 
L 183.403147 47.637582 
L 185.268122 48.418431 
L 185.848523 48.708623 
L 187.949855 50.619269 
L 188.293898 51.194097 
L 189.110963 52.820106 
L 189.421214 55.020944 
L 188.982665 57.221782 
L 188.293898 58.501692 
L 187.663547 59.42262 
L 185.848523 61.0381 
L 184.644336 61.623457 
L 183.403147 62.15636 
L 180.957772 62.510252 
L 178.512397 62.198526 
z
" style="fill:#4695c8;fill-opacity:0.5;"/>
   </g>
   <g id="PathCollection_7">
    <path clip-path="url(#pb79527c8d9)" d="M 158.949394 189.547997 
L 161.39477 189.667177 
L 163.532097 189.272048 
L 163.840145 189.214862 
L 166.28552 188.086489 
L 167.592566 187.07121 
L 168.730896 185.789415 
L 169.380162 184.870372 
L 170.227603 182.669535 
L 170.396148 180.468697 
L 169.935573 178.267859 
L 168.77018 176.067021 
L 168.730896 176.016147 
L 166.506042 173.866184 
L 166.28552 173.699431 
L 163.840145 172.487826 
L 161.39477 171.957548 
L 158.949394 171.975497 
L 156.504019 172.559848 
L 154.058644 173.86061 
L 154.05129 173.866184 
L 151.922962 176.067021 
L 151.613268 176.642506 
L 150.857845 178.267859 
L 150.511795 180.468697 
L 150.797637 182.669535 
L 151.613268 184.541372 
L 151.761066 184.870372 
L 153.625272 187.07121 
L 154.058644 187.420342 
L 156.504019 188.849314 
L 157.918852 189.272048 
z
M 158.913481 182.669535 
L 158.697387 180.468697 
L 158.949394 180.150611 
L 161.39477 178.967148 
L 163.608136 180.468697 
L 163.367357 182.669535 
L 161.39477 183.826806 
L 158.949394 182.705982 
z
" style="fill:#2979b9;fill-opacity:0.5;"/>
    <path clip-path="url(#pb79527c8d9)" d="M 56.243632 156.617068 
L 58.689007 157.285549 
L 61.134382 157.578059 
L 63.579758 157.525232 
L 66.025133 157.124379 
L 68.470508 156.346087 
L 68.665905 156.259481 
L 70.915884 155.116964 
L 72.458882 154.058644 
L 73.361259 153.276896 
L 74.762358 151.857806 
L 75.806634 150.377596 
L 76.287934 149.656968 
L 77.290722 147.45613 
L 77.853763 145.255293 
L 78.050331 143.054455 
L 77.910927 140.853617 
L 77.432097 138.652779 
L 76.5895 136.451942 
L 75.806634 135.01067 
L 75.344717 134.251104 
L 73.617565 132.050266 
L 73.361259 131.769403 
L 71.182175 129.849428 
L 70.915884 129.635219 
L 68.470508 128.140043 
L 67.246445 127.648591 
L 66.025133 127.145667 
L 63.579758 126.580323 
L 61.134382 126.44333 
L 58.689007 126.732476 
L 56.243632 127.496709 
L 55.948534 127.648591 
L 53.798257 128.724896 
L 52.312713 129.849428 
L 51.352881 130.61274 
L 50.017656 132.050266 
L 48.907506 133.44678 
L 48.389976 134.251104 
L 47.24681 136.451942 
L 46.481188 138.652779 
L 46.462131 138.745853 
L 46.055412 140.853617 
L 45.957232 143.054455 
L 46.196736 145.255293 
L 46.462131 146.225238 
L 46.788062 147.45613 
L 47.787332 149.656968 
L 48.907506 151.311485 
L 49.315989 151.857806 
L 51.352881 153.872633 
L 51.58865 154.058644 
L 53.798257 155.524363 
L 55.409381 156.259481 
z
M 56.147479 149.656968 
L 54.233011 147.45613 
L 53.798257 146.227944 
L 53.468071 145.255293 
L 53.504836 143.054455 
L 53.798257 142.181006 
L 54.350538 140.853617 
L 56.243632 138.686451 
L 56.297878 138.652779 
L 58.689007 137.408167 
L 61.134382 137.044594 
L 63.579758 137.437922 
L 65.894259 138.652779 
L 66.025133 138.741232 
L 67.865191 140.853617 
L 68.470508 142.379259 
L 68.699126 143.054455 
L 68.725086 145.255293 
L 68.470508 145.989455 
L 67.952127 147.45613 
L 66.025133 149.652492 
L 66.019317 149.656968 
L 63.579758 150.906837 
L 61.134382 151.305275 
L 58.689007 150.956524 
L 56.243632 149.732451 
z
" style="fill:#2979b9;fill-opacity:0.5;"/>
    <path clip-path="url(#pb79527c8d9)" d="M 48.907506 88.897782 
L 51.352881 89.392053 
L 53.798257 89.430005 
L 56.243632 88.986594 
L 58.532598 88.033511 
L 58.689007 87.966354 
L 61.134382 86.269705 
L 61.578444 85.832673 
L 63.439814 83.631835 
L 63.579758 83.417774 
L 64.655408 81.430997 
L 65.419725 79.23016 
L 65.789939 77.029322 
L 65.799111 74.828484 
L 65.447998 72.627646 
L 64.690125 70.426809 
L 63.579758 68.480015 
L 63.431148 68.225971 
L 61.524523 66.025133 
L 61.134382 65.686559 
L 58.689007 63.957089 
L 58.430335 63.824295 
L 56.243632 62.860966 
L 53.798257 62.241331 
L 51.352881 62.041445 
L 48.907506 62.239764 
L 46.462131 62.869607 
L 44.386123 63.824295 
L 44.016755 64.014708 
L 41.57138 65.862543 
L 41.400598 66.025133 
L 39.626428 68.225971 
L 39.126005 69.194201 
L 38.519742 70.426809 
L 37.911491 72.627646 
L 37.730995 74.828484 
L 37.942124 77.029322 
L 38.544059 79.23016 
L 39.126005 80.559647 
L 39.56802 81.430997 
L 41.087975 83.631835 
L 41.57138 84.21837 
L 43.309531 85.832673 
L 44.016755 86.43892 
L 46.462131 87.91576 
L 46.773641 88.033511 
z
M 46.225595 77.029322 
L 45.020395 74.828484 
L 44.870354 72.627646 
L 45.798278 70.426809 
L 46.462131 69.713747 
L 48.901672 68.225971 
L 48.907506 68.223313 
L 51.352881 67.961726 
L 52.365093 68.225971 
L 53.798257 68.696437 
L 55.890995 70.426809 
L 56.243632 71.147581 
L 56.902505 72.627646 
L 56.860731 74.828484 
L 56.243632 76.212134 
L 55.726146 77.029322 
L 53.798257 78.573284 
L 51.352881 79.19627 
L 48.907506 78.850074 
L 46.462131 77.296471 
z
" style="fill:#2979b9;fill-opacity:0.5;"/>
    <path clip-path="url(#pb79527c8d9)" d="M 178.512397 62.198526 
L 180.957772 62.510252 
L 183.403147 62.15636 
L 184.644336 61.623457 
L 185.848523 61.0381 
L 187.663547 59.42262 
L 188.293898 58.501692 
L 188.982665 57.221782 
L 189.421214 55.020944 
L 189.110963 52.820106 
L 188.293898 51.194097 
L 187.949855 50.619269 
L 185.848523 48.708623 
L 185.268122 48.418431 
L 183.403147 47.637582 
L 180.957772 47.335354 
L 178.512397 47.70163 
L 176.835798 48.418431 
L 176.067021 48.837816 
L 174.095234 50.619269 
L 173.621646 51.411643 
L 172.878443 52.820106 
L 172.510192 55.020944 
L 172.888466 57.221782 
L 173.621646 58.616394 
L 174.14013 59.42262 
L 176.067021 61.120233 
L 177.088154 61.623457 
z
M 180.120102 55.020944 
L 180.957772 53.707172 
L 182.390569 55.020944 
L 180.957772 55.765953 
z
" style="fill:#2979b9;fill-opacity:0.5;"/>
   </g>
   <g id="PathCollection_8">
    <path clip-path="url(#pb79527c8d9)" d="M 158.949394 182.705982 
L 161.39477 183.826806 
L 163.367357 182.669535 
L 163.608136 180.468697 
L 161.39477 178.967148 
L 158.949394 180.150611 
L 158.697387 180.468697 
L 158.913481 182.669535 
z
" style="fill:#105ba4;fill-opacity:0.5;"/>
    <path clip-path="url(#pb79527c8d9)" d="M 56.243632 149.732451 
L 58.689007 150.956524 
L 61.134382 151.305275 
L 63.579758 150.906837 
L 66.019317 149.656968 
L 66.025133 149.652492 
L 67.952127 147.45613 
L 68.470508 145.989455 
L 68.725086 145.255293 
L 68.699126 143.054455 
L 68.470508 142.379259 
L 67.865191 140.853617 
L 66.025133 138.741232 
L 65.894259 138.652779 
L 63.579758 137.437922 
L 61.134382 137.044594 
L 58.689007 137.408167 
L 56.297878 138.652779 
L 56.243632 138.686451 
L 54.350538 140.853617 
L 53.798257 142.181006 
L 53.504836 143.054455 
L 53.468071 145.255293 
L 53.798257 146.227944 
L 54.233011 147.45613 
L 56.147479 149.656968 
z
M 60.618761 145.255293 
L 61.134382 144.85119 
L 61.449905 145.255293 
L 61.134382 145.548089 
z
" style="fill:#105ba4;fill-opacity:0.5;"/>
    <path clip-path="url(#pb79527c8d9)" d="M 46.462131 77.296471 
L 48.907506 78.850074 
L 51.352881 79.19627 
L 53.798257 78.573284 
L 55.726146 77.029322 
L 56.243632 76.212134 
L 56.860731 74.828484 
L 56.902505 72.627646 
L 56.243632 71.147581 
L 55.890995 70.426809 
L 53.798257 68.696437 
L 52.365093 68.225971 
L 51.352881 67.961726 
L 48.907506 68.223313 
L 48.901672 68.225971 
L 46.462131 69.713747 
L 45.798278 70.426809 
L 44.870354 72.627646 
L 45.020395 74.828484 
L 46.225595 77.029322 
z
" style="fill:#105ba4;fill-opacity:0.5;"/>
    <path clip-path="url(#pb79527c8d9)" d="M 180.957772 55.765953 
L 182.390569 55.020944 
L 180.957772 53.707172 
L 180.120102 55.020944 
z
" style="fill:#105ba4;fill-opacity:0.5;"/>
   </g>
   <g id="PathCollection_9">
    <path clip-path="url(#pb79527c8d9)" d="M 61.134382 145.548089 
L 61.449905 145.255293 
L 61.134382 144.85119 
L 60.618761 145.255293 
z
" style="fill:#083e81;fill-opacity:0.5;"/>
   </g>
   <g id="matplotlib.axis_1"/>
   <g id="matplotlib.axis_2"/>
   <g id="line2d_1">
    <defs>
     <path d="M 0 2.5 
C 0.663008 2.5 1.29895 2.236584 1.767767 1.767767 
C 2.236584 1.29895 2.5 0.663008 2.5 0 
C 2.5 -0.663008 2.236584 -1.29895 1.767767 -1.767767 
C 1.29895 -2.236584 0.663008 -2.5 0 -2.5 
C -0.663008 -2.5 -1.29895 -2.236584 -1.767767 -1.767767 
C -2.236584 -1.29895 -2.5 -0.663008 -2.5 0 
C -2.5 0.663008 -2.236584 1.29895 -1.767767 1.767767 
C -1.29895 2.236584 -0.663008 2.5 0 2.5 
z
" id="m05a617f084" style="stroke:#ff0000;"/>
    </defs>
    <g clip-path="url(#pb79527c8d9)">
     <use style="fill:#ff0000;stroke:#ff0000;" x="60.523039" xlink:href="#m05a617f084" y="145.255293"/>
     <use style="fill:#ff0000;stroke:#ff0000;" x="161.39477" xlink:href="#m05a617f084" y="181.569116"/>
     <use style="fill:#ff0000;stroke:#ff0000;" x="50.435866" xlink:href="#m05a617f084" y="72.627646"/>
     <use style="fill:#ff0000;stroke:#ff0000;" x="181.569116" xlink:href="#m05a617f084" y="54.470735"/>
    </g>
   </g>
   <g id="patch_3">
    <path d="M 0 217.882939 
L 0 0 
" style="fill:none;stroke:#000000;stroke-linecap:square;stroke-linejoin:miter;stroke-width:0.5;"/>
   </g>
   <g id="patch_4">
    <path d="M 242.092154 217.882939 
L 242.092154 0 
" style="fill:none;stroke:#000000;stroke-linecap:square;stroke-linejoin:miter;stroke-width:0.5;"/>
   </g>
   <g id="patch_5">
    <path d="M 0 217.882939 
L 242.092154 217.882939 
" style="fill:none;stroke:#000000;stroke-linecap:square;stroke-linejoin:miter;stroke-width:0.5;"/>
   </g>
   <g id="patch_6">
    <path d="M 0 0 
L 242.092154 0 
" style="fill:none;stroke:#000000;stroke-linecap:square;stroke-linejoin:miter;stroke-width:0.5;"/>
   </g>
  </g>
 </g>
 <defs>
  <clipPath id="pb79527c8d9">
   <rect height="217.882939" width="242.092154" x="0" y="0"/>
  </clipPath>
 </defs>
</svg>
