<?xml version="1.0" encoding="UTF-8" standalone="no"?>
<!-- Created with Inkscape (http://www.inkscape.org/) -->

<svg
   xmlns:dc="http://purl.org/dc/elements/1.1/"
   xmlns:cc="http://creativecommons.org/ns#"
   xmlns:rdf="http://www.w3.org/1999/02/22-rdf-syntax-ns#"
   xmlns:svg="http://www.w3.org/2000/svg"
   xmlns="http://www.w3.org/2000/svg"
   xmlns:sodipodi="http://sodipodi.sourceforge.net/DTD/sodipodi-0.dtd"
   xmlns:inkscape="http://www.inkscape.org/namespaces/inkscape"
   version="1.1"
   id="svg1119"
   xml:space="preserve"
   width="755.90668"
   height="268.34668"
   viewBox="0 0 755.90668 268.34668"
   sodipodi:docname="Logo_CASUS_weiß.svg"
   inkscape:version="0.92.4 (5da689c313, 2019-01-14)"><metadata
     id="metadata1125"><rdf:RDF><cc:Work
         rdf:about=""><dc:format>image/svg+xml</dc:format><dc:type
           rdf:resource="http://purl.org/dc/dcmitype/StillImage" /><dc:title></dc:title></cc:Work></rdf:RDF></metadata><defs
     id="defs1123" /><sodipodi:namedview
     pagecolor="#ffffff"
     bordercolor="#666666"
     borderopacity="1"
     objecttolerance="10"
     gridtolerance="10"
     guidetolerance="10"
     inkscape:pageopacity="0"
     inkscape:pageshadow="2"
     inkscape:window-width="2560"
     inkscape:window-height="1349"
     id="namedview1121"
     showgrid="false"
     inkscape:zoom="0.87945936"
     inkscape:cx="133.08687"
     inkscape:cy="134.17334"
     inkscape:window-x="0"
     inkscape:window-y="42"
     inkscape:window-maximized="1"
     inkscape:current-layer="g1127" /><g
     id="g1127"
     inkscape:groupmode="layer"
     inkscape:label="ink_ext_XXXXXX"
     transform="matrix(1.3333333,0,0,-1.3333333,0,268.34667)"><g
       id="g1129"
       transform="scale(0.1)"><path
         d="m 1737.24,1622.38 c -36.08,-28.09 -71.66,-55.78 -106.99,-83.29 -173.76,199.78 -390.89,307.5 -656.473,305.77 -265.246,-1.73 -480.761,-112.02 -652.316,-314.15 -35.629,26.99 -71.734,54.34 -107.848,81.69 372.047,481.03 1120.227,506.92 1523.627,9.98"
         style="fill:#ffffff;fill-opacity:1;fill-rule:nonzero;stroke:none"
         id="path1131"
         inkscape:connector-curvature="0" /><path
         d="m 1188.01,1595.5 c -17.37,-44.18 -34.49,-87.74 -51.77,-131.7 -129.71,41.09 -255.388,33.83 -376.455,-27.64 -90.719,-46.07 -159.531,-115.1 -207.207,-204.98 -35.367,-66.68 -53.441,-138.03 -55.168,-213.39 -1.715,-75.052 13.293,-146.802 45.133,-214.849 31.957,-68.3 77.777,-125.863 136.945,-173.589 -27.793,-38.293 -55.156,-75.993 -83.304,-114.774 -43.098,33.492 -80.676,71.57 -113.293,114.563 -66.289,87.39 -107.243,185.468 -121.782,294.16 -15.293,114.329 -1.058,225.179 45.407,330.849 144.8,329.31 503.629,443.73 781.494,341.35"
         style="fill:#ffffff;fill-opacity:1;fill-rule:nonzero;stroke:none"
         id="path1133"
         inkscape:connector-curvature="0" /><path
         d="m 1191.08,767.691 c 27.97,-27.929 55.46,-55.359 82.94,-82.8 -136.46,-133.18 -389.954,-168.243 -575.016,-13.2 -193.106,161.778 -211.117,448.429 -39.164,633.419 168.605,181.38 441.56,180.32 609.63,28.88 -27.69,-27.94 -55.34,-55.83 -83.2,-83.95 -71,57.95 -151.44,83.61 -241.821,73.76 -82.226,-8.96 -151.34,-45.27 -205.461,-107.89 -105.898,-122.53 -104.269,-302.711 3.426,-421.75 58.512,-64.68 131.871,-99.808 218.828,-105.43 70.008,-4.531 157.178,15.122 229.838,78.961"
         style="fill:#ffffff;fill-opacity:1;fill-rule:nonzero;stroke:none"
         id="path1135"
         inkscape:connector-curvature="0" /><path
         d="m 295.684,1412.71 c 35.351,-22.3 70.703,-44.59 105.679,-66.65 C 294.523,1149.77 280.281,948.75 365.258,741.801 457.641,538.031 613.68,410.441 830.293,353.172 822.984,312.859 814.594,272.02 806.738,231.25 777.676,229.391 648.836,278.398 583.273,316.531 444.777,397.102 338.926,508.762 267.121,652.02 131.152,923.301 175.82,1221.25 295.684,1412.71"
         style="fill:#ffffff;fill-opacity:1;fill-rule:nonzero;stroke:none"
         id="path1137"
         inkscape:connector-curvature="0" /><path
         d="m 1754.32,819.129 c 25.84,109.691 29,218.811 8.92,328.421 -23.88,130.45 -77.07,247.83 -159.86,351.56 -83.71,104.89 -187.17,184.16 -310.39,237.44 -50.78,21.97 -124.72,44.71 -139.87,43.26 -7.34,-39.73 -14.71,-79.61 -22.07,-119.42 179.3,-46.05 318.01,-147.52 415.86,-302.64 98.13,-155.56 124.3,-324.87 86.68,-505.25 l 120.73,-33.371"
         style="fill:#ffffff;fill-opacity:1;fill-rule:nonzero;stroke:none"
         id="path1139"
         inkscape:connector-curvature="0" /><path
         d="m 1821.15,980.969 c 46.29,0 91.67,0 136.96,0 4.05,-27.547 -7.55,-140.778 -28.92,-221 -19.17,-71.957 -45.3,-141.117 -79.63,-207.18 -34.46,-66.32 -75.99,-127.84 -125.46,-185.25 -34.11,31.711 -67.56,62.789 -101.53,94.359 124.87,150.633 191.06,323.293 198.58,519.071"
         style="fill:#ffffff;fill-opacity:1;fill-rule:nonzero;stroke:none"
         id="path1141"
         inkscape:connector-curvature="0" /><path
         d="M 218.586,648.91 C 176.977,628.199 136.395,607.988 94.7773,587.27 52.9023,674.629 25.1797,765.66 10.9609,860.762 -8.09766,988.238 -2.41406,1114.64 28.875,1241.08 c 44.5625,-12.9 88.266,-25.55 132.676,-38.41 -21.742,-93.43 -28.094,-187.19 -18.348,-282.022 9.711,-94.507 34.836,-184.707 75.383,-271.738"
         style="fill:#ffffff;fill-opacity:1;fill-rule:nonzero;stroke:none"
         id="path1143"
         inkscape:connector-curvature="0" /><path
         d="m 1589.71,864.621 c 17.41,77.207 20.23,153.929 8.33,231.159 -12.05,78.19 -37.68,151.64 -78.18,220.94 -40.74,-25.72 -80.8,-51.01 -121.04,-76.41 58.32,-106.5 76.37,-218.41 52.74,-337.509 l 138.15,-38.18"
         style="fill:#ffffff;fill-opacity:1;fill-rule:nonzero;stroke:none"
         id="path1145"
         inkscape:connector-curvature="0" /><path
         d="m 797.559,185.512 c -117.172,26.476 -222.985,75.039 -318.973,146 C 449.93,295.441 421.676,259.871 392.695,223.398 506.496,137.941 631.816,80.3984 770.633,49.5391 l 26.926,135.9729"
         style="fill:#ffffff;fill-opacity:1;fill-rule:nonzero;stroke:none"
         id="path1147"
         inkscape:connector-curvature="0" /><path
         d="m 1205.07,580.93 c -19.95,-10.602 -40.9,-19.309 -62.24,-29.231 12.53,-43.629 25.2,-87.769 38.02,-132.39 34.04,4.941 148.74,63.492 170.11,86.742 -5.13,6.57 -10.25,13.109 -15.38,19.679 l -71.82,90.129 c -20.23,-12.179 -38.99,-24.468 -58.69,-34.929"
         style="fill:#ffffff;fill-opacity:1;fill-rule:nonzero;stroke:none"
         id="path1149"
         inkscape:connector-curvature="0" /><path
         d="M 817.363,40.5391 C 878.121,30.1719 938.031,25.8516 999.238,26.9805 l -2.363,54.1015 c -1.395,28.207 -2.785,56.34 -4.187,84.699 -50.165,-1.051 -99.043,3.11 -148.375,10.86 L 817.363,40.5391"
         style="fill:#ffffff;fill-opacity:1;fill-rule:nonzero;stroke:none"
         id="path1151"
         inkscape:connector-curvature="0" /><path
         d="m 1185.65,191.352 c -48.07,-12.25 -96.34,-19.711 -144.92,-23.832 l 6.05,-138.3911 c 59.25,4.043 117.74,13.6328 175.96,28.9102 l -37.09,133.3129"
         style="fill:#ffffff;fill-opacity:1;fill-rule:nonzero;stroke:none"
         id="path1153"
         inkscape:connector-curvature="0" /><path
         d="m 1427.46,137.172 c -22.16,40.906 -43.74,80.758 -65.67,121.25 -42.26,-21.66 -85.31,-39.242 -130.4,-53.934 l 37.1,-133.3591 c 55.39,17.582 107.71,39.1801 158.97,66.0431"
         style="fill:#ffffff;fill-opacity:1;fill-rule:nonzero;stroke:none"
         id="path1155"
         inkscape:connector-curvature="0" /><path
         d="m 1300.04,646.691 89.27,-112.031 c 40.99,35.238 76.48,74.34 106.98,118.711 -40.86,26.008 -80.83,51.449 -121.08,77.078 -22.18,-30.949 -46.76,-58.347 -75.17,-83.758"
         style="fill:#ffffff;fill-opacity:1;fill-rule:nonzero;stroke:none"
         id="path1157"
         inkscape:connector-curvature="0" /><path
         d="m 1439.01,856.898 c -10.2,-30.398 -22.85,-58.589 -38.18,-86.046 l 121.12,-77.012 c 23.38,40.109 41.88,80.988 55.34,124.84 l -138.28,38.218"
         style="fill:#ffffff;fill-opacity:1;fill-rule:nonzero;stroke:none"
         id="path1159"
         inkscape:connector-curvature="0" /><path
         d="m 4210.03,1167.06 c 0,77.97 -22.13,112.79 -47.02,132.47 -17.29,13.63 -32.5,19.68 -72.61,24.22 l -293.21,11.36 c -18.67,1.51 -35.27,2.27 -48.41,20.44 -2.76,3.02 -8.3,12.11 -8.3,23.46 0,11.36 6.23,21.19 8.3,24.22 11.76,16.66 29,21.25 47.67,22 27.42,0.73 347.46,-0.09 374.83,0 v 117.19 c -42.54,-0.65 -426.06,2.45 -446.51,0 -40.8,-5.29 -76.26,-14.28 -104.61,-47.59 -8.3,-9.84 -15.21,-21.19 -20.06,-34.06 -12.44,-34.07 -12.44,-92.36 -12.44,-96.14 0,-54.5 13.83,-87.05 29.04,-105.22 23.51,-28.01 57.4,-34.07 67.08,-35.58 6.91,-1.51 14.52,-2.27 21.44,-3.78 22.82,-1.51 45.64,-3.79 68.46,-5.3 71.22,-4.54 143.14,-5.3 215.06,-6.81 34.58,-5.3 49.79,-4.55 61.55,-22.71 6.22,-9.84 6.92,-18.93 6.92,-23.47 0,-18.17 -13.14,-34.82 -28.36,-40.88 -15.21,-6.81 -36.65,-4.54 -41.49,-4.54 -27.25,-0.61 -266.18,4.09 -382.08,4.07 v -118.36 c 134.72,0.85 427.58,-2.351 476.82,0.75 33.96,3.21 60.16,10.59 82.98,28.76 8.3,6.81 13.83,13.63 20.06,22.71 15.21,23.46 24.89,52.23 24.89,112.79"
         style="fill:#ffffff;fill-opacity:1;fill-rule:nonzero;stroke:none"
         id="path1161"
         inkscape:connector-curvature="0" /><path
         d="m 4967,1542.43 h -141.71 c 0,0 -67.46,-313.73 -72.14,-333.15 -7.05,-29.26 -28.2,-71.21 -71.68,-80.12 -22.54,-4.62 -49.31,-4.8 -49.31,-4.8 0,0 -26.78,0.18 -49.32,4.8 -43.47,8.91 -64.62,50.86 -71.67,80.12 -4.68,19.42 -72.15,333.15 -72.15,333.15 h -141.71 l 82.25,-373.85 c 42.3,-184.42 208.69,-164.87 252.6,-167.17 43.9,2.3 210.29,-17.25 252.59,167.17 l 82.25,373.85"
         style="fill:#ffffff;fill-opacity:1;fill-rule:nonzero;stroke:none"
         id="path1163"
         inkscape:connector-curvature="0" /><path
         d="m 5669.29,1166.1 c 0,77.97 -22.13,112.79 -47.02,132.47 -17.29,13.63 -32.5,19.69 -72.61,24.23 l -293.21,11.35 c -18.67,1.52 -35.27,2.27 -48.41,20.44 -2.77,3.03 -8.3,12.11 -8.3,23.47 0,11.35 6.23,21.19 8.3,24.22 11.76,16.65 29,21.24 47.67,22 27.42,0.73 347.46,-0.1 374.83,0 v 117.19 c -42.54,-0.66 -426.06,2.44 -446.51,0 -40.8,-5.3 -76.26,-14.29 -104.61,-47.59 -8.3,-9.84 -15.21,-21.2 -20.06,-34.07 -12.45,-34.06 -12.45,-92.35 -12.45,-96.13 0,-54.51 13.83,-87.06 29.05,-105.23 23.51,-28 57.4,-34.06 67.08,-35.57 6.91,-1.52 14.52,-2.27 21.43,-3.79 22.82,-1.51 45.64,-3.78 68.47,-5.3 71.22,-4.54 143.14,-5.3 215.06,-6.81 34.58,-5.3 49.79,-4.54 61.55,-22.71 6.22,-9.84 6.91,-18.93 6.91,-23.47 0,-18.16 -13.13,-34.82 -28.35,-40.87 -15.21,-6.82 -36.65,-4.54 -41.49,-4.54 -27.25,-0.61 -266.18,4.08 -382.08,4.07 V 1001.1 c 134.72,0.84 427.58,-2.362 476.82,0.74 33.96,3.22 60.16,10.6 82.98,28.76 8.3,6.82 13.83,13.63 20.06,22.71 15.21,23.47 24.89,52.24 24.89,112.79"
         style="fill:#ffffff;fill-opacity:1;fill-rule:nonzero;stroke:none"
         id="path1165"
         inkscape:connector-curvature="0" /><path
         d="m 3497.4,1001.41 -82.26,373.85 c -42.3,184.41 -208.68,164.86 -252.59,167.17 -43.91,-2.31 -210.29,17.24 -252.59,-167.17 l -82.25,-373.85 h 141.7 c 0,0 15.45,71.82 32.07,148.85 h 128.22 l 33.97,118.77 h -136.5 c 7.56,34.8 13.16,60.41 14.39,65.52 7.05,29.26 28.2,71.22 71.68,80.12 22.54,4.63 49.31,4.81 49.31,4.81 0,0 26.77,-0.18 49.31,-4.81 43.48,-8.9 64.63,-50.86 71.68,-80.12 4.68,-19.41 72.15,-333.14 72.15,-333.14 h 141.71"
         style="fill:#ffffff;fill-opacity:1;fill-rule:nonzero;stroke:none"
         id="path1167"
         inkscape:connector-curvature="0" /><path
         d="m 2793.99,1510.73 c -65.61,24.22 -142.84,36.56 -225.11,32.65 -227.25,-10.93 -405.66,-140.93 -398.48,-290.39 7.17,-149.37 197.23,-261.799 424.48,-250.78 26.16,1.17 51.57,4.22 76.23,8.51 l 35.89,146.02 c -36.27,-10.7 -77.24,-17.97 -121.01,-20.08 -151.43,-7.26 -277.1,47.5 -280.69,122.35 -3.6,74.84 116.25,141.33 267.68,148.59 72.43,3.52 138.78,-7.26 188.89,-27.65 l 32.12,130.78"
         style="fill:#ffffff;fill-opacity:1;fill-rule:nonzero;stroke:none"
         id="path1169"
         inkscape:connector-curvature="0" /><path
         d="m 2332.87,355.441 c 6.63,0 13.29,-0.339 20,-1.011 6.7,-0.68 13.06,-1.461 19.06,-2.36 l 1.94,17.34 c -3.48,0.61 -7.2,1.192 -11.15,1.731 -3.96,0.531 -8.06,1.007 -12.29,1.429 -4.24,0.418 -8.56,0.739 -12.97,0.969 -4.4,0.223 -8.8,0.332 -13.17,0.332 -10.72,0 -20.25,-0.871 -28.58,-2.609 -8.34,-1.742 -15.34,-4.653 -21.01,-8.75 -5.66,-4.102 -9.97,-9.492 -12.92,-16.172 -2.94,-6.668 -4.42,-14.918 -4.42,-24.738 0,-8.762 1.25,-16.043 3.75,-21.852 2.5,-5.809 6.12,-10.691 10.86,-14.648 4.74,-3.954 10.54,-7.313 17.38,-10.063 6.85,-2.75 14.62,-5.41 23.32,-7.988 6.68,-2.02 12.7,-4.063 18.06,-6.11 5.36,-2.043 9.92,-4.5 13.68,-7.359 3.76,-2.863 6.65,-6.332 8.67,-10.402 2.02,-4.071 3.03,-9.16 3.03,-15.282 0,-7.289 -1.18,-13.257 -3.54,-17.886 -2.36,-4.633 -5.67,-8.25 -9.93,-10.864 -4.27,-2.597 -9.33,-4.398 -15.2,-5.378 -5.86,-0.981 -12.3,-1.481 -19.32,-1.481 -3.59,0 -7.33,0.09 -11.23,0.262 -3.9,0.168 -7.87,0.418 -11.92,0.75 -4.04,0.34 -8.09,0.73 -12.16,1.179 -4.07,0.45 -8.04,0.961 -11.91,1.52 l -2.11,-17.68 c 3.82,-0.789 7.61,-1.461 11.37,-2.019 3.76,-0.563 7.63,-1.039 11.62,-1.43 3.98,-0.391 8.2,-0.691 12.67,-0.891 4.46,-0.191 9.3,-0.289 14.52,-0.289 11.16,0 21.07,0.981 29.71,2.95 8.64,1.961 15.93,5.129 21.85,9.507 5.92,4.383 10.41,10.071 13.47,17.09 3.05,7.012 4.58,15.571 4.58,25.672 0,8.649 -1.34,16.031 -4.04,22.141 -2.69,6.121 -6.45,11.34 -11.28,15.66 -4.82,4.32 -10.58,7.937 -17.25,10.859 -6.68,2.918 -14.01,5.532 -21.98,7.828 -8.47,2.411 -15.58,4.641 -21.34,6.692 -5.75,2.051 -10.38,4.461 -13.88,7.238 -3.51,2.781 -6.02,6.203 -7.54,10.274 -1.51,4.07 -2.27,9.328 -2.27,15.777 0,4.383 0.67,8.172 2.02,11.371 1.35,3.199 3.21,5.898 5.6,8.121 2.38,2.219 5.24,4.008 8.58,5.391 3.34,1.367 7.02,2.437 11.03,3.199 4.01,0.758 8.26,1.269 12.75,1.559 4.49,0.281 9.12,0.421 13.89,0.421"
         style="fill:#ffffff;fill-opacity:1;fill-rule:nonzero;stroke:none"
         id="path1171"
         inkscape:connector-curvature="0" /><path
         d="m 2488.69,175.711 v 76.269 l 63.13,119.872 h -22.56 l -51.18,-97.903 -50.26,97.903 h -23.48 l 62.54,-119.872 v -76.269 h 21.81"
         style="fill:#ffffff;fill-opacity:1;fill-rule:nonzero;stroke:none"
         id="path1173"
         inkscape:connector-curvature="0" /><path
         d="m 2648.21,355.441 c 6.62,0 13.28,-0.339 19.99,-1.011 6.71,-0.68 13.06,-1.461 19.07,-2.36 l 1.93,17.34 c -3.48,0.61 -7.19,1.192 -11.15,1.731 -3.96,0.531 -8.05,1.007 -12.29,1.429 -4.24,0.418 -8.56,0.739 -12.97,0.969 -4.4,0.223 -8.79,0.332 -13.17,0.332 -10.72,0 -20.24,-0.871 -28.58,-2.609 -8.33,-1.742 -15.33,-4.653 -21,-8.75 -5.67,-4.102 -9.98,-9.492 -12.92,-16.172 -2.95,-6.668 -4.42,-14.918 -4.42,-24.738 0,-8.762 1.25,-16.043 3.74,-21.852 2.5,-5.809 6.12,-10.691 10.86,-14.648 4.74,-3.954 10.54,-7.313 17.39,-10.063 6.84,-2.75 14.61,-5.41 23.31,-7.988 6.68,-2.02 12.7,-4.063 18.06,-6.11 5.36,-2.043 9.92,-4.5 13.68,-7.359 3.76,-2.863 6.65,-6.332 8.67,-10.402 2.02,-4.071 3.03,-9.16 3.03,-15.282 0,-7.289 -1.18,-13.257 -3.53,-17.886 -2.36,-4.633 -5.67,-8.25 -9.94,-10.864 -4.26,-2.597 -9.33,-4.398 -15.19,-5.378 -5.87,-0.981 -12.31,-1.481 -19.32,-1.481 -3.59,0 -7.34,0.09 -11.24,0.262 -3.9,0.168 -7.87,0.418 -11.91,0.75 -4.04,0.34 -8.1,0.73 -12.17,1.179 -4.06,0.45 -8.04,0.961 -11.91,1.52 l -2.1,-17.68 c 3.81,-0.789 7.6,-1.461 11.36,-2.019 3.76,-0.563 7.63,-1.039 11.62,-1.43 3.98,-0.391 8.21,-0.691 12.67,-0.891 4.46,-0.191 9.3,-0.289 14.52,-0.289 11.17,0 21.07,0.981 29.72,2.95 8.64,1.961 15.92,5.129 21.84,9.507 5.92,4.383 10.41,10.071 13.47,17.09 3.06,7.012 4.59,15.571 4.59,25.672 0,8.649 -1.35,16.031 -4.04,22.141 -2.7,6.121 -6.46,11.34 -11.28,15.66 -4.83,4.32 -10.58,7.937 -17.26,10.859 -6.68,2.918 -14,5.532 -21.97,7.828 -8.48,2.411 -15.59,4.641 -21.34,6.692 -5.75,2.051 -10.38,4.461 -13.89,7.238 -3.51,2.781 -6.02,6.203 -7.54,10.274 -1.51,4.07 -2.27,9.328 -2.27,15.777 0,4.383 0.67,8.172 2.02,11.371 1.35,3.199 3.21,5.898 5.6,8.121 2.38,2.219 5.25,4.008 8.59,5.391 3.34,1.367 7.01,2.437 11.02,3.199 4.02,0.758 8.27,1.269 12.76,1.559 4.49,0.281 9.12,0.421 13.89,0.421"
         style="fill:#ffffff;fill-opacity:1;fill-rule:nonzero;stroke:none"
         id="path1175"
         inkscape:connector-curvature="0" /><path
         d="m 2849.14,354.012 v 17.84 h -128.96 v -17.84 h 53.71 V 175.711 h 21.63 v 178.301 h 53.62"
         style="fill:#ffffff;fill-opacity:1;fill-rule:nonzero;stroke:none"
         id="path1177"
         inkscape:connector-curvature="0" /><path
         d="m 2993.01,354.262 v 16.918 c -4.04,0.172 -8.24,0.32 -12.59,0.461 -4.35,0.14 -8.65,0.269 -12.92,0.379 -4.26,0.109 -8.35,0.199 -12.25,0.25 -3.9,0.062 -7.42,0.089 -10.56,0.089 -5.56,0 -11,-0.121 -16.33,-0.339 -5.34,-0.219 -10.39,-0.782 -15.16,-1.68 -4.77,-0.899 -9.17,-2.262 -13.21,-4.09 -4.04,-1.82 -7.52,-4.352 -10.44,-7.57 -2.92,-3.231 -5.21,-7.27 -6.86,-12.121 -1.66,-4.86 -2.48,-10.739 -2.48,-17.637 V 218.469 c 0,-6.949 0.82,-12.848 2.48,-17.668 1.65,-4.832 3.94,-8.84 6.86,-12.039 2.92,-3.203 6.4,-5.711 10.44,-7.543 4.04,-1.821 8.44,-3.168 13.21,-4.039 4.77,-0.871 9.84,-1.41 15.2,-1.641 5.36,-0.219 10.79,-0.328 16.29,-0.328 3.76,0 7.66,0.008 11.7,0.039 4.04,0.031 8.12,0.078 12.25,0.172 4.12,0.078 8.25,0.18 12.37,0.289 4.13,0.109 8.12,0.25 12,0.418 v 17.172 h -49.16 c -6.01,0 -11.23,0.211 -15.66,0.64 -4.44,0.418 -8.2,1.149 -11.28,2.18 -3.09,1.039 -5.61,2.449 -7.58,4.207 -1.96,1.774 -3.51,4.043 -4.63,6.82 -1.12,2.782 -1.88,6.09 -2.27,9.942 -0.39,3.84 -0.59,8.34 -0.59,13.512 v 36.187 h 87.13 v 17.602 h -87.13 v 32.32 c 0,5.168 0.2,9.68 0.59,13.559 0.39,3.871 1.15,7.191 2.27,9.968 1.12,2.782 2.67,5.082 4.63,6.903 1.97,1.828 4.49,3.257 7.58,4.3 3.08,1.039 6.84,1.77 11.28,2.188 4.43,0.422 9.65,0.633 15.66,0.633 h 49.16"
         style="fill:#ffffff;fill-opacity:1;fill-rule:nonzero;stroke:none"
         id="path1179"
         inkscape:connector-curvature="0" /><path
         d="m 3128.95,230.68 -58.25,129.55 c -2.13,4.77 -4.56,8.239 -7.28,10.399 -2.72,2.16 -5.68,3.242 -8.88,3.242 -4.38,0 -7.69,-1.191 -9.94,-3.582 -2.24,-2.379 -3.53,-6.211 -3.87,-11.488 l -11.11,-183.09 h 20.46 l 9.59,164.148 L 3116.16,213 c 1.57,-3.531 3.32,-6.211 5.26,-8.039 1.94,-1.82 4.42,-2.731 7.45,-2.731 3.03,0 5.5,0.911 7.41,2.731 1.91,1.828 3.64,4.508 5.22,8.039 l 56.57,126.949 9.34,-164.238 h 21.3 l -10.61,183.008 c -0.28,5.269 -1.58,9.121 -3.91,11.531 -2.33,2.422 -5.69,3.621 -10.06,3.621 -3.26,0 -6.26,-1.121 -9.01,-3.371 -2.75,-2.238 -5.19,-5.75 -7.32,-10.52 l -58.85,-129.3"
         style="fill:#ffffff;fill-opacity:1;fill-rule:nonzero;stroke:none"
         id="path1181"
         inkscape:connector-curvature="0" /><path
         d="m 3339.4,355.441 c 6.62,0 13.29,-0.339 19.99,-1.011 6.71,-0.68 13.07,-1.461 19.07,-2.36 l 1.94,17.34 c -3.48,0.61 -7.2,1.192 -11.16,1.731 -3.95,0.531 -8.05,1.007 -12.29,1.429 -4.23,0.418 -8.56,0.739 -12.96,0.969 -4.41,0.223 -8.8,0.332 -13.18,0.332 -10.71,0 -20.24,-0.871 -28.57,-2.609 -8.34,-1.742 -15.34,-4.653 -21.01,-8.75 -5.67,-4.102 -9.97,-9.492 -12.92,-16.172 -2.95,-6.668 -4.42,-14.918 -4.42,-24.738 0,-8.762 1.25,-16.043 3.75,-21.852 2.49,-5.809 6.11,-10.691 10.86,-14.648 4.74,-3.954 10.53,-7.313 17.38,-10.063 6.85,-2.75 14.62,-5.41 23.32,-7.988 6.68,-2.02 12.7,-4.063 18.05,-6.11 5.36,-2.043 9.92,-4.5 13.68,-7.359 3.76,-2.863 6.65,-6.332 8.67,-10.402 2.03,-4.071 3.04,-9.16 3.04,-15.282 0,-7.289 -1.18,-13.257 -3.54,-17.886 -2.36,-4.633 -5.67,-8.25 -9.93,-10.864 -4.27,-2.597 -9.33,-4.398 -15.2,-5.378 -5.86,-0.981 -12.3,-1.481 -19.32,-1.481 -3.59,0 -7.34,0.09 -11.24,0.262 -3.9,0.168 -7.87,0.418 -11.91,0.75 -4.04,0.34 -8.09,0.73 -12.16,1.179 -4.07,0.45 -8.04,0.961 -11.91,1.52 l -2.11,-17.68 c 3.82,-0.789 7.61,-1.461 11.37,-2.019 3.76,-0.563 7.63,-1.039 11.61,-1.43 3.99,-0.391 8.21,-0.691 12.67,-0.891 4.46,-0.191 9.3,-0.289 14.52,-0.289 11.17,0 21.08,0.981 29.72,2.95 8.64,1.961 15.92,5.129 21.84,9.507 5.93,4.383 10.42,10.071 13.47,17.09 3.06,7.012 4.59,15.571 4.59,25.672 0,8.649 -1.35,16.031 -4.04,22.141 -2.69,6.121 -6.45,11.34 -11.28,15.66 -4.83,4.32 -10.58,7.937 -17.26,10.859 -6.67,2.918 -14,5.532 -21.97,7.828 -8.47,2.411 -15.59,4.641 -21.34,6.692 -5.75,2.051 -10.38,4.461 -13.89,7.238 -3.5,2.781 -6.02,6.203 -7.53,10.274 -1.52,4.07 -2.27,9.328 -2.27,15.777 0,4.383 0.67,8.172 2.02,11.371 1.34,3.199 3.21,5.898 5.59,8.121 2.39,2.219 5.25,4.008 8.59,5.391 3.34,1.367 7.02,2.437 11.03,3.199 4.01,0.758 8.26,1.269 12.75,1.559 4.49,0.281 9.12,0.421 13.89,0.421"
         style="fill:#ffffff;fill-opacity:1;fill-rule:nonzero;stroke:none"
         id="path1183"
         inkscape:connector-curvature="0" /><path
         d="m 3642.03,239.102 v 132.75 h -21.47 V 236.91 c 0,-7.582 -0.9,-14.172 -2.69,-19.781 -1.8,-5.609 -4.66,-10.27 -8.59,-13.981 -3.93,-3.699 -9.02,-6.449 -15.28,-8.25 -6.25,-1.789 -13.85,-2.687 -22.77,-2.687 -8.87,0 -16.41,0.898 -22.64,2.687 -6.23,1.801 -11.33,4.551 -15.28,8.25 -3.96,3.711 -6.85,8.372 -8.67,13.981 -1.83,5.609 -2.74,12.199 -2.74,19.781 v 134.942 h -21.38 v -132.75 c 0,-8.641 0.76,-16.262 2.27,-22.864 1.52,-6.59 3.71,-12.308 6.57,-17.168 2.86,-4.851 6.37,-8.89 10.52,-12.121 4.15,-3.23 8.84,-5.82 14.06,-7.789 5.22,-1.961 10.96,-3.371 17.21,-4.211 6.26,-0.84 12.95,-1.258 20.08,-1.258 10.72,0 20.43,0.981 29.13,2.95 8.7,1.961 16.13,5.398 22.31,10.308 6.17,4.91 10.94,11.59 14.31,20.031 3.36,8.45 5.05,19.149 5.05,32.122"
         style="fill:#ffffff;fill-opacity:1;fill-rule:nonzero;stroke:none"
         id="path1185"
         inkscape:connector-curvature="0" /><path
         d="m 3818.55,204.25 -96.64,155.559 c -2.91,4.722 -5.87,8.242 -8.88,10.57 -3,2.332 -6.41,3.492 -10.22,3.492 -1.97,0 -3.76,-0.289 -5.39,-0.883 -1.63,-0.59 -3.03,-1.5 -4.21,-2.738 -1.18,-1.23 -2.09,-2.828 -2.74,-4.801 -0.64,-1.961 -0.96,-4.289 -0.96,-6.98 V 175.711 h 19.86 V 343.48 l 96.56,-155.652 c 2.97,-4.769 5.92,-8.316 8.84,-10.648 2.91,-2.328 6.37,-3.489 10.35,-3.489 1.96,0 3.76,0.289 5.39,0.879 1.63,0.59 3.03,1.52 4.21,2.782 1.18,1.257 2.09,2.859 2.73,4.796 0.65,1.942 0.97,4.25 0.97,6.954 v 182.75 h -19.87 V 204.25"
         style="fill:#ffffff;fill-opacity:1;fill-rule:nonzero;stroke:none"
         id="path1187"
         inkscape:connector-curvature="0" /><path
         d="m 4180.19,354.262 v 16.918 c -4.04,0.172 -8.24,0.32 -12.59,0.461 -4.34,0.14 -8.65,0.269 -12.92,0.379 -4.26,0.109 -8.34,0.199 -12.25,0.25 -3.9,0.062 -7.42,0.089 -10.56,0.089 -5.56,0 -11,-0.121 -16.33,-0.339 -5.33,-0.219 -10.38,-0.782 -15.15,-1.68 -4.77,-0.899 -9.18,-2.262 -13.22,-4.09 -4.04,-1.82 -7.52,-4.352 -10.44,-7.57 -2.92,-3.231 -5.2,-7.27 -6.86,-12.121 -1.65,-4.86 -2.48,-10.739 -2.48,-17.637 V 218.469 c 0,-6.949 0.83,-12.848 2.48,-17.668 1.66,-4.832 3.94,-8.84 6.86,-12.039 2.92,-3.203 6.4,-5.711 10.44,-7.543 4.04,-1.821 8.45,-3.168 13.22,-4.039 4.77,-0.871 9.83,-1.41 15.19,-1.641 5.36,-0.219 10.79,-0.328 16.29,-0.328 3.76,0 7.66,0.008 11.7,0.039 4.04,0.031 8.12,0.078 12.25,0.172 4.12,0.078 8.25,0.18 12.37,0.289 4.13,0.109 8.13,0.25 12,0.418 v 17.172 h -49.16 c -6.01,0 -11.23,0.211 -15.66,0.64 -4.43,0.418 -8.19,1.149 -11.28,2.18 -3.09,1.039 -5.61,2.449 -7.58,4.207 -1.96,1.774 -3.5,4.043 -4.63,6.82 -1.12,2.782 -1.88,6.09 -2.27,9.942 -0.39,3.84 -0.59,8.34 -0.59,13.512 v 36.187 h 87.13 v 17.602 h -87.13 v 32.32 c 0,5.168 0.2,9.68 0.59,13.559 0.39,3.871 1.15,7.191 2.27,9.968 1.13,2.782 2.67,5.082 4.63,6.903 1.97,1.828 4.49,3.257 7.58,4.3 3.09,1.039 6.85,1.77 11.28,2.188 4.43,0.422 9.65,0.633 15.66,0.633 h 49.16"
         style="fill:#ffffff;fill-opacity:1;fill-rule:nonzero;stroke:none"
         id="path1189"
         inkscape:connector-curvature="0" /><path
         d="m 4355.54,315.699 c 0,8.36 -0.92,15.621 -2.74,21.762 -1.82,6.148 -4.4,11.379 -7.74,15.699 -3.34,4.328 -7.34,7.828 -12,10.531 -4.66,2.688 -9.82,4.789 -15.49,6.309 -5.67,1.52 -11.73,2.539 -18.18,3.07 -6.46,0.539 -13.16,0.801 -20.12,0.801 -10.55,0 -20.99,-0.402 -31.32,-1.223 -10.32,-0.808 -19.84,-1.949 -28.53,-3.41 V 175.711 h 21.55 v 81.82 c 2.41,-0.109 5.38,-0.25 8.92,-0.422 3.54,-0.16 7.2,-0.32 10.99,-0.461 3.78,-0.136 7.5,-0.25 11.15,-0.339 3.65,-0.079 6.82,-0.118 9.51,-0.118 h 3.03 l 45.54,-80.48 h 25.26 l -48.07,82.25 c 7.3,1.168 13.9,3.039 19.83,5.59 5.92,2.558 10.98,6.109 15.19,10.648 4.21,4.551 7.46,10.223 9.76,17.012 2.31,6.789 3.46,14.949 3.46,24.488 z m -21.55,0 c 0,-8.301 -1.22,-15.148 -3.67,-20.539 -2.44,-5.379 -5.99,-9.648 -10.64,-12.789 -4.66,-3.152 -10.39,-5.332 -17.18,-6.57 -6.79,-1.231 -14.53,-1.852 -23.23,-1.852 -2.86,0 -5.73,0.012 -8.59,0.039 -2.86,0.032 -5.83,0.102 -8.92,0.211 -3.09,0.11 -6.34,0.281 -9.77,0.512 -3.42,0.219 -7.09,0.559 -11.02,1.008 v 77.953 c 7.07,0.949 14,1.629 20.79,2.019 6.79,0.391 12.96,0.59 18.52,0.59 9.82,0 18.14,-0.742 24.96,-2.23 6.82,-1.492 12.36,-3.86 16.62,-7.121 4.27,-3.25 7.36,-7.45 9.26,-12.578 1.91,-5.141 2.87,-11.352 2.87,-18.653"
         style="fill:#ffffff;fill-opacity:1;fill-rule:nonzero;stroke:none"
         id="path1191"
         inkscape:connector-curvature="0" /><path
         d="m 4465.81,355.441 c 6.62,0 13.28,-0.339 19.99,-1.011 6.71,-0.68 13.06,-1.461 19.07,-2.36 l 1.93,17.34 c -3.48,0.61 -7.19,1.192 -11.15,1.731 -3.96,0.531 -8.05,1.007 -12.29,1.429 -4.24,0.418 -8.56,0.739 -12.96,0.969 -4.41,0.223 -8.8,0.332 -13.18,0.332 -10.72,0 -20.24,-0.871 -28.58,-2.609 -8.33,-1.742 -15.33,-4.653 -21,-8.75 -5.67,-4.102 -9.98,-9.492 -12.92,-16.172 -2.95,-6.668 -4.42,-14.918 -4.42,-24.738 0,-8.762 1.25,-16.043 3.74,-21.852 2.5,-5.809 6.12,-10.691 10.86,-14.648 4.75,-3.954 10.54,-7.313 17.39,-10.063 6.84,-2.75 14.62,-5.41 23.31,-7.988 6.68,-2.02 12.7,-4.063 18.06,-6.11 5.36,-2.043 9.92,-4.5 13.68,-7.359 3.76,-2.863 6.65,-6.332 8.67,-10.402 2.02,-4.071 3.03,-9.16 3.03,-15.282 0,-7.289 -1.18,-13.257 -3.53,-17.886 -2.36,-4.633 -5.67,-8.25 -9.94,-10.864 -4.26,-2.597 -9.33,-4.398 -15.19,-5.378 -5.87,-0.981 -12.31,-1.481 -19.32,-1.481 -3.59,0 -7.34,0.09 -11.24,0.262 -3.9,0.168 -7.87,0.418 -11.91,0.75 -4.04,0.34 -8.1,0.73 -12.16,1.179 -4.07,0.45 -8.04,0.961 -11.92,1.52 l -2.1,-17.68 c 3.82,-0.789 7.6,-1.461 11.36,-2.019 3.76,-0.563 7.64,-1.039 11.62,-1.43 3.99,-0.391 8.21,-0.691 12.67,-0.891 4.46,-0.191 9.3,-0.289 14.52,-0.289 11.17,0 21.07,0.981 29.72,2.95 8.64,1.961 15.92,5.129 21.84,9.507 5.92,4.383 10.41,10.071 13.47,17.09 3.06,7.012 4.59,15.571 4.59,25.672 0,8.649 -1.35,16.031 -4.04,22.141 -2.7,6.121 -6.46,11.34 -11.28,15.66 -4.83,4.32 -10.58,7.937 -17.26,10.859 -6.68,2.918 -14,5.532 -21.97,7.828 -8.48,2.411 -15.59,4.641 -21.34,6.692 -5.75,2.051 -10.38,4.461 -13.89,7.238 -3.51,2.781 -6.02,6.203 -7.53,10.274 -1.52,4.07 -2.28,9.328 -2.28,15.777 0,4.383 0.68,8.172 2.02,11.371 1.35,3.199 3.22,5.898 5.6,8.121 2.39,2.219 5.25,4.008 8.59,5.391 3.34,1.367 7.01,2.437 11.03,3.199 4.01,0.758 8.26,1.269 12.75,1.559 4.49,0.281 9.12,0.421 13.89,0.421"
         style="fill:#ffffff;fill-opacity:1;fill-rule:nonzero;stroke:none"
         id="path1193"
         inkscape:connector-curvature="0" /><path
         d="m 4666.75,354.012 v 17.84 h -128.97 v -17.84 h 53.71 V 175.711 h 21.63 v 178.301 h 53.63"
         style="fill:#ffffff;fill-opacity:1;fill-rule:nonzero;stroke:none"
         id="path1195"
         inkscape:connector-curvature="0" /><path
         d="m 4835.02,175.711 -67,183.43 c -3.6,9.82 -9.38,14.73 -17.35,14.73 -7.85,0 -13.58,-4.91 -17.17,-14.73 l -67.93,-183.43 h 22.14 l 20.2,56.398 h 83.84 l 20.21,-56.398 z m -49.41,73.66 h -71.47 l 35.78,99.668 z"
         style="fill:#ffffff;fill-opacity:1;fill-rule:nonzero;stroke:none"
         id="path1197"
         inkscape:connector-curvature="0" /><path
         d="m 4995.81,204.25 -96.64,155.559 c -2.92,4.722 -5.88,8.242 -8.88,10.57 -3,2.332 -6.41,3.492 -10.23,3.492 -1.96,0 -3.76,-0.289 -5.39,-0.883 -1.62,-0.59 -3.03,-1.5 -4.21,-2.738 -1.17,-1.23 -2.09,-2.828 -2.73,-4.801 -0.65,-1.961 -0.97,-4.289 -0.97,-6.98 V 175.711 h 19.87 V 343.48 l 96.55,-155.652 c 2.98,-4.769 5.92,-8.316 8.84,-10.648 2.92,-2.328 6.37,-3.489 10.36,-3.489 1.96,0 3.76,0.289 5.38,0.879 1.63,0.59 3.03,1.52 4.21,2.782 1.18,1.257 2.09,2.859 2.74,4.796 0.64,1.942 0.97,4.25 0.97,6.954 v 182.75 h -19.87 V 204.25"
         style="fill:#ffffff;fill-opacity:1;fill-rule:nonzero;stroke:none"
         id="path1199"
         inkscape:connector-curvature="0" /><path
         d="m 5208.11,273.781 c 0,11.11 -0.42,21.297 -1.26,30.559 -0.84,9.262 -2.41,17.59 -4.71,25 -2.3,7.41 -5.45,13.898 -9.43,19.488 -3.99,5.582 -9.14,10.231 -15.45,13.934 -6.31,3.699 -13.92,6.476 -22.81,8.328 -8.9,1.859 -19.38,2.781 -31.44,2.781 -10.44,0 -20.81,-0.391 -31.11,-1.18 -10.3,-0.781 -19.79,-1.882 -28.49,-3.281 V 178.32 c 8.7,-1.461 18.19,-2.601 28.49,-3.41 10.3,-0.808 20.67,-1.219 31.11,-1.219 12.06,0 22.54,0.93 31.44,2.778 8.89,1.851 16.5,4.633 22.81,8.332 6.31,3.711 11.46,8.347 15.45,13.929 3.98,5.59 7.13,12.079 9.43,19.489 2.3,7.41 3.87,15.742 4.71,25 0.84,9.261 1.26,19.453 1.26,30.562 z m -21.72,0 c 0,-7.742 -0.11,-15.152 -0.33,-22.222 -0.23,-7.071 -1,-13.649 -2.32,-19.739 -1.32,-6.09 -3.36,-11.59 -6.14,-16.5 -2.78,-4.91 -6.74,-9.121 -11.87,-12.629 -5.14,-3.511 -11.65,-6.203 -19.53,-8.082 -7.89,-1.879 -17.55,-2.82 -29,-2.82 -2.47,0 -5.07,0.07 -7.79,0.211 -2.72,0.141 -5.47,0.32 -8.25,0.551 -2.78,0.219 -5.54,0.488 -8.29,0.801 -2.75,0.296 -5.39,0.628 -7.91,0.968 v 159.008 c 2.52,0.344 5.16,0.652 7.91,0.934 2.75,0.277 5.51,0.527 8.29,0.758 2.78,0.218 5.53,0.402 8.25,0.539 2.72,0.14 5.32,0.211 7.79,0.211 11.45,0 21.11,-0.938 29,-2.821 7.88,-1.879 14.39,-4.57 19.53,-8.078 5.13,-3.512 9.09,-7.711 11.87,-12.633 2.78,-4.906 4.82,-10.398 6.14,-16.488 1.32,-6.09 2.09,-12.672 2.32,-19.738 0.22,-7.082 0.33,-14.481 0.33,-22.231"
         style="fill:#ffffff;fill-opacity:1;fill-rule:nonzero;stroke:none"
         id="path1201"
         inkscape:connector-curvature="0" /><path
         d="m 4028.21,273.781 c 0,11.11 -0.42,21.297 -1.26,30.559 -0.85,9.262 -2.42,17.59 -4.72,25 -2.3,7.41 -5.44,13.898 -9.43,19.488 -3.98,5.582 -9.13,10.231 -15.44,13.934 -6.32,3.699 -13.92,6.476 -22.82,8.328 -8.89,1.859 -19.37,2.781 -31.44,2.781 -10.44,0 -20.81,-0.391 -31.1,-1.18 -10.3,-0.781 -19.8,-1.882 -28.5,-3.281 V 178.32 c 8.7,-1.461 18.2,-2.601 28.5,-3.41 10.29,-0.808 20.66,-1.219 31.1,-1.219 12.07,0 22.55,0.93 31.44,2.778 8.9,1.851 16.5,4.633 22.82,8.332 6.31,3.711 11.46,8.347 15.44,13.929 3.99,5.59 7.13,12.079 9.43,19.489 2.3,7.41 3.87,15.742 4.72,25 0.84,9.261 1.26,19.453 1.26,30.562 z m -21.72,0 c 0,-7.742 -0.11,-15.152 -0.34,-22.222 -0.22,-7.071 -0.99,-13.649 -2.31,-19.739 -1.32,-6.09 -3.37,-11.59 -6.15,-16.5 -2.78,-4.91 -6.73,-9.121 -11.87,-12.629 -5.13,-3.511 -11.64,-6.203 -19.53,-8.082 -7.88,-1.879 -17.55,-2.82 -29,-2.82 -2.47,0 -5.06,0.07 -7.78,0.211 -2.73,0.141 -5.48,0.32 -8.25,0.551 -2.78,0.219 -5.55,0.488 -8.29,0.801 -2.75,0.296 -5.39,0.628 -7.92,0.968 v 159.008 c 2.53,0.344 5.17,0.652 7.92,0.934 2.74,0.277 5.51,0.527 8.29,0.758 2.77,0.218 5.52,0.402 8.25,0.539 2.72,0.14 5.31,0.211 7.78,0.211 11.45,0 21.12,-0.938 29,-2.821 7.89,-1.879 14.4,-4.57 19.53,-8.078 5.14,-3.512 9.09,-7.711 11.87,-12.633 2.78,-4.906 4.83,-10.398 6.15,-16.488 1.31,-6.09 2.09,-12.672 2.31,-19.738 0.23,-7.082 0.34,-14.481 0.34,-22.231"
         style="fill:#ffffff;fill-opacity:1;fill-rule:nonzero;stroke:none"
         id="path1203"
         inkscape:connector-curvature="0" /><path
         d="M 5251.55,371.852 V 175.711 h 21.64 v 196.141 h -21.64"
         style="fill:#ffffff;fill-opacity:1;fill-rule:nonzero;stroke:none"
         id="path1205"
         inkscape:connector-curvature="0" /><path
         d="m 5450.05,204.25 -96.64,155.559 c -2.92,4.722 -5.88,8.242 -8.88,10.57 -3.01,2.332 -6.42,3.492 -10.23,3.492 -1.97,0 -3.76,-0.289 -5.39,-0.883 -1.63,-0.59 -3.03,-1.5 -4.21,-2.738 -1.18,-1.23 -2.09,-2.828 -2.73,-4.801 -0.65,-1.961 -0.97,-4.289 -0.97,-6.98 V 175.711 h 19.86 V 343.48 l 96.56,-155.652 c 2.97,-4.769 5.92,-8.316 8.84,-10.648 2.92,-2.328 6.37,-3.489 10.35,-3.489 1.97,0 3.76,0.289 5.39,0.879 1.63,0.59 3.03,1.52 4.21,2.782 1.18,1.257 2.09,2.859 2.74,4.796 0.64,1.942 0.96,4.25 0.96,6.954 v 182.75 h -19.86 V 204.25"
         style="fill:#ffffff;fill-opacity:1;fill-rule:nonzero;stroke:none"
         id="path1207"
         inkscape:connector-curvature="0" /><path
         d="m 5597.7,278.582 v -17.434 h 35.69 v -44.949 c 0,-2.41 -0.08,-4.668 -0.25,-6.777 -0.17,-2.102 -0.62,-4.043 -1.35,-5.801 -0.73,-1.769 -1.81,-3.371 -3.24,-4.801 -1.43,-1.429 -3.39,-2.64 -5.89,-3.621 -2.5,-0.98 -5.61,-1.738 -9.34,-2.269 -3.74,-0.539 -8.27,-0.801 -13.6,-0.801 -9.99,0 -18.53,0.801 -25.63,2.391 -7.1,1.601 -13.06,3.98 -17.89,7.121 -4.83,3.14 -8.66,7.007 -11.49,11.621 -2.84,4.597 -5,9.929 -6.48,15.988 -1.49,6.059 -2.46,12.809 -2.91,20.238 -0.45,7.442 -0.67,15.543 -0.67,24.293 0,8.809 0.21,16.957 0.63,24.457 0.42,7.492 1.38,14.25 2.86,20.282 1.49,6.039 3.65,11.351 6.48,15.96 2.84,4.598 6.67,8.442 11.5,11.532 4.82,3.078 10.78,5.41 17.88,6.988 7.1,1.57 15.68,2.352 25.72,2.352 3.42,0 7.09,-0.071 10.99,-0.211 3.9,-0.141 7.88,-0.352 11.95,-0.629 4.07,-0.282 8.17,-0.633 12.29,-1.051 4.13,-0.422 8.12,-0.891 12,-1.391 l 1.93,17.34 c -8.75,1.57 -17.97,2.711 -27.65,3.41 -9.68,0.7 -19.66,1.051 -29.93,1.051 -10.55,0 -19.81,-0.84 -27.78,-2.519 -7.97,-1.692 -14.87,-4.282 -20.71,-7.793 -5.83,-3.508 -10.69,-7.957 -14.56,-13.34 -3.87,-5.387 -6.97,-11.789 -9.3,-19.199 -2.33,-7.399 -3.97,-15.86 -4.93,-25.379 -0.95,-9.512 -1.43,-20.129 -1.43,-31.86 0,-11.621 0.48,-22.152 1.43,-31.609 0.96,-9.461 2.6,-17.891 4.93,-25.301 2.33,-7.402 5.43,-13.812 9.3,-19.23 3.87,-5.422 8.73,-9.911 14.56,-13.469 5.84,-3.563 12.76,-6.203 20.76,-7.91 7.99,-1.711 17.24,-2.571 27.73,-2.571 6.06,0 11.86,0.098 17.39,0.289 5.52,0.2 10.63,0.649 15.32,1.348 4.68,0.703 8.92,1.762 12.71,3.16 3.79,1.403 7.03,3.313 9.72,5.723 2.69,2.418 4.76,5.418 6.19,9.008 1.43,3.59 2.14,7.91 2.14,12.961 v 72.402 h -57.07"
         style="fill:#ffffff;fill-opacity:1;fill-rule:nonzero;stroke:none"
         id="path1209"
         inkscape:connector-curvature="0" /><path
         d="m 2386.16,566.641 -1.94,17 c -5.66,-0.84 -11.36,-1.551 -17.08,-2.141 -5.73,-0.59 -11.48,-0.891 -17.26,-0.891 -9.88,0 -18.34,0.789 -25.38,2.36 -7.05,1.57 -12.98,3.91 -17.81,7.031 -4.82,3.109 -8.68,6.969 -11.57,11.57 -2.89,4.61 -5.09,9.942 -6.61,16 -1.51,6.059 -2.51,12.821 -2.99,20.289 -0.47,7.461 -0.71,15.602 -0.71,24.411 0,8.812 0.21,16.929 0.63,24.371 0.42,7.429 1.37,14.179 2.86,20.238 1.49,6.07 3.65,11.402 6.48,16 2.84,4.601 6.67,8.461 11.49,11.57 4.83,3.121 10.79,5.481 17.89,7.071 7.1,1.601 15.67,2.402 25.72,2.402 5.72,0 11.52,-0.32 17.38,-0.961 5.87,-0.652 11.49,-1.371 16.88,-2.152 l 2.02,17.261 c -6.23,1.282 -13.1,2.321 -20.62,3.11 -7.52,0.789 -15.55,1.179 -24.08,1.179 -10.55,0 -19.82,-0.859 -27.82,-2.57 -8,-1.711 -14.92,-4.328 -20.75,-7.867 -5.84,-3.531 -10.68,-8.024 -14.52,-13.473 -3.85,-5.437 -6.93,-11.871 -9.26,-19.277 -2.33,-7.402 -3.97,-15.844 -4.93,-25.293 -0.95,-9.457 -1.43,-19.988 -1.43,-31.609 0,-11.622 0.48,-22.161 1.43,-31.61 0.96,-9.461 2.58,-17.89 4.88,-25.301 2.31,-7.41 5.39,-13.82 9.26,-19.23 3.88,-5.418 8.73,-9.91 14.57,-13.469 5.83,-3.57 12.75,-6.199 20.75,-7.91 8,-1.719 17.27,-2.57 27.82,-2.57 8.64,0 16.7,0.422 24.16,1.261 7.46,0.84 14.31,1.911 20.54,3.2 z m 142.52,176.109 v 16.922 c -4.04,0.156 -8.24,0.316 -12.59,0.457 -4.35,0.141 -8.65,0.269 -12.92,0.383 -4.26,0.109 -8.35,0.187 -12.25,0.25 -3.9,0.058 -7.42,0.078 -10.56,0.078 -5.56,0 -11,-0.11 -16.33,-0.328 -5.33,-0.223 -10.38,-0.782 -15.15,-1.692 -4.77,-0.89 -9.18,-2.25 -13.22,-4.082 -4.04,-1.816 -7.52,-4.347 -10.44,-7.578 -2.92,-3.219 -5.2,-7.262 -6.86,-12.121 -1.66,-4.848 -2.48,-10.73 -2.48,-17.629 V 606.961 c 0,-6.961 0.82,-12.852 2.48,-17.68 1.66,-4.82 3.94,-8.84 6.86,-12.031 2.92,-3.199 6.4,-5.711 10.44,-7.539 4.04,-1.82 8.45,-3.172 13.22,-4.039 4.77,-0.871 9.83,-1.422 15.19,-1.641 5.36,-0.222 10.79,-0.34 16.29,-0.34 3.76,0 7.66,0.02 11.7,0.039 4.04,0.032 8.12,0.09 12.25,0.168 4.12,0.09 8.25,0.192 12.37,0.301 4.13,0.11 8.13,0.25 12,0.422 v 17.168 h -49.16 c -6.01,0 -11.23,0.211 -15.66,0.633 -4.43,0.418 -8.19,1.148 -11.28,2.187 -3.09,1.039 -5.61,2.442 -7.58,4.211 -1.96,1.77 -3.5,4.039 -4.63,6.821 -1.12,2.781 -1.88,6.089 -2.27,9.929 -0.39,3.852 -0.59,8.352 -0.59,13.508 v 36.203 h 87.13 v 17.598 h -87.13 v 32.32 c 0,5.16 0.2,9.68 0.59,13.551 0.39,3.879 1.15,7.199 2.27,9.98 1.13,2.782 2.67,5.079 4.63,6.899 1.97,1.832 4.49,3.262 7.58,4.301 3.09,1.031 6.85,1.761 11.28,2.179 4.43,0.422 9.65,0.641 15.66,0.641 z m 168.7,-150.012 -96.64,155.563 c -2.92,4.719 -5.88,8.238 -8.89,10.57 -3,2.32 -6.41,3.488 -10.22,3.488 -1.97,0 -3.76,-0.3 -5.39,-0.879 -1.63,-0.589 -3.03,-1.511 -4.21,-2.742 -1.18,-1.238 -2.09,-2.828 -2.74,-4.797 -0.64,-1.961 -0.96,-4.293 -0.96,-6.992 v -182.75 h 19.86 v 167.77 l 96.56,-155.649 c 2.97,-4.769 5.92,-8.32 8.84,-10.648 2.92,-2.332 6.37,-3.492 10.35,-3.492 1.97,0 3.76,0.289 5.39,0.879 1.63,0.589 3.03,1.519 4.21,2.781 1.18,1.262 2.09,2.859 2.73,4.801 0.65,1.929 0.97,4.25 0.97,6.937 V 760.34 h -19.86 z m 183.34,149.75 v 17.852 h -128.97 v -17.852 h 53.71 V 564.199 h 21.64 v 178.289 z m 143.86,0.262 v 16.922 c -4.04,0.156 -8.23,0.316 -12.58,0.457 -4.35,0.141 -8.66,0.269 -12.93,0.383 -4.26,0.109 -8.34,0.187 -12.24,0.25 -3.9,0.058 -7.43,0.078 -10.57,0.078 -5.55,0 -11,-0.11 -16.33,-0.328 -5.33,-0.223 -10.38,-0.782 -15.15,-1.692 -4.77,-0.89 -9.18,-2.25 -13.22,-4.082 -4.04,-1.816 -7.52,-4.347 -10.44,-7.578 -2.92,-3.219 -5.2,-7.262 -6.86,-12.121 -1.65,-4.848 -2.48,-10.73 -2.48,-17.629 V 606.961 c 0,-6.961 0.83,-12.852 2.48,-17.68 1.66,-4.82 3.94,-8.84 6.86,-12.031 2.92,-3.199 6.4,-5.711 10.44,-7.539 4.04,-1.82 8.45,-3.172 13.22,-4.039 4.77,-0.871 9.83,-1.422 15.19,-1.641 5.36,-0.222 10.79,-0.34 16.29,-0.34 3.76,0 7.66,0.02 11.7,0.039 4.04,0.032 8.13,0.09 12.25,0.168 4.13,0.09 8.25,0.192 12.38,0.301 4.12,0.11 8.12,0.25 11.99,0.422 v 17.168 h -49.16 c -6.01,0 -11.22,0.211 -15.66,0.633 -4.43,0.418 -8.19,1.148 -11.28,2.187 -3.08,1.039 -5.61,2.442 -7.57,4.211 -1.97,1.77 -3.51,4.039 -4.63,6.821 -1.13,2.781 -1.88,6.089 -2.28,9.929 -0.39,3.852 -0.59,8.352 -0.59,13.508 v 36.203 h 87.13 v 17.598 h -87.13 v 32.32 c 0,5.16 0.2,9.68 0.59,13.551 0.4,3.879 1.15,7.199 2.28,9.98 1.12,2.782 2.66,5.079 4.63,6.899 1.96,1.832 4.49,3.262 7.57,4.301 3.09,1.031 6.85,1.761 11.28,2.179 4.44,0.422 9.65,0.641 15.66,0.641 z m 39.23,-178.551 h 21.55 v 81.821 c 2.41,-0.11 5.39,-0.25 8.92,-0.418 3.54,-0.172 7.2,-0.321 10.99,-0.461 3.79,-0.141 7.5,-0.25 11.15,-0.34 3.65,-0.082 6.82,-0.129 9.51,-0.129 h 3.03 l 45.55,-80.473 h 25.25 l -48.07,82.242 c 7.3,1.18 13.91,3.047 19.83,5.598 5.92,2.551 10.98,6.102 15.19,10.652 4.21,4.547 7.47,10.207 9.77,17 2.3,6.789 3.45,14.957 3.45,24.5 0,8.36 -0.91,15.618 -2.74,21.758 -1.82,6.153 -4.4,11.379 -7.74,15.699 -3.34,4.321 -7.34,7.832 -12,10.524 -4.66,2.699 -9.82,4.797 -15.49,6.316 -5.67,1.512 -11.73,2.543 -18.18,3.071 -6.45,0.531 -13.16,0.8 -20.12,0.8 -10.55,0 -20.99,-0.41 -31.31,-1.218 -10.33,-0.821 -19.84,-1.95 -28.54,-3.411 z m 21.55,100 v 77.961 c 7.07,0.949 14,1.621 20.79,2.02 6.79,0.39 12.96,0.59 18.52,0.59 9.82,0 18.14,-0.75 24.96,-2.239 6.82,-1.48 12.36,-3.851 16.63,-7.109 4.26,-3.25 7.35,-7.453 9.26,-12.582 1.9,-5.141 2.86,-11.352 2.86,-18.649 0,-8.312 -1.22,-15.152 -3.66,-20.543 -2.45,-5.386 -5.99,-9.648 -10.65,-12.789 -4.66,-3.148 -10.39,-5.339 -17.18,-6.57 -6.79,-1.238 -14.53,-1.848 -23.23,-1.848 -2.86,0 -5.72,0.008 -8.59,0.039 -2.86,0.032 -5.83,0.098 -8.92,0.211 -3.09,0.11 -6.34,0.278 -9.76,0.5 -3.43,0.231 -7.1,0.571 -11.03,1.008 z m 234.1,-100 h 21.55 v 91.082 h 87.13 v 17.598 h -87.13 v 32.32 c 0,5.16 0.2,9.68 0.59,13.551 0.39,3.879 1.15,7.199 2.27,9.98 1.12,2.782 2.67,5.079 4.63,6.899 1.97,1.832 4.51,3.262 7.62,4.301 3.12,1.031 6.89,1.761 11.32,2.179 4.44,0.422 9.66,0.641 15.66,0.641 h 49.08 v 16.922 c -3.99,0.219 -8.17,0.418 -12.54,0.578 -4.38,0.172 -8.69,0.301 -12.93,0.379 -4.23,0.09 -8.32,0.141 -12.24,0.172 -3.93,0.027 -7.44,0.039 -10.53,0.039 -5.55,0 -11,-0.11 -16.33,-0.328 -5.33,-0.223 -10.38,-0.782 -15.15,-1.692 -4.77,-0.89 -9.18,-2.25 -13.22,-4.082 -4.04,-1.816 -7.52,-4.347 -10.44,-7.578 -2.91,-3.219 -5.2,-7.262 -6.86,-12.121 -1.65,-4.848 -2.48,-10.73 -2.48,-17.629 z m 220.47,-2.019 c 9.87,0 18.6,0.832 26.18,2.48 7.57,1.66 14.17,4.211 19.78,7.66 5.61,3.45 10.32,7.871 14.14,13.258 3.82,5.391 6.89,11.793 9.22,19.192 2.33,7.41 4,15.89 5.01,25.429 1.01,9.539 1.51,20.231 1.51,32.071 0,11.839 -0.5,22.531 -1.51,32.07 -1.01,9.539 -2.68,18.019 -5.01,25.422 -2.33,7.41 -5.4,13.808 -9.22,19.199 -3.82,5.379 -8.53,9.801 -14.14,13.258 -5.61,3.453 -12.21,6 -19.78,7.66 -7.58,1.652 -16.31,2.48 -26.18,2.48 -9.88,0 -18.61,-0.828 -26.18,-2.48 -7.58,-1.66 -14.19,-4.207 -19.83,-7.66 -5.64,-3.457 -10.37,-7.879 -14.18,-13.258 -3.82,-5.391 -6.89,-11.789 -9.22,-19.199 -2.33,-7.403 -4,-15.883 -5.01,-25.422 -1.01,-9.539 -1.52,-20.231 -1.52,-32.07 0,-11.84 0.51,-22.532 1.52,-32.071 1.01,-9.539 2.68,-18.019 5.01,-25.429 2.33,-7.399 5.4,-13.801 9.22,-19.192 3.81,-5.387 8.54,-9.808 14.18,-13.258 5.64,-3.449 12.25,-6 19.83,-7.66 7.57,-1.648 16.3,-2.48 26.18,-2.48 z m 0,18.261 c -8.7,0 -16.07,0.918 -22.1,2.739 -6.03,1.82 -11.04,4.429 -15.03,7.832 -3.98,3.386 -7.1,7.519 -9.34,12.367 -2.25,4.859 -3.93,10.32 -5.05,16.383 -1.13,6.058 -1.81,12.668 -2.07,19.816 -0.25,7.16 -0.37,14.723 -0.37,22.692 0,8.019 0.12,15.609 0.37,22.769 0.26,7.152 0.94,13.762 2.07,19.82 1.12,6.071 2.8,11.512 5.05,16.332 2.24,4.829 5.36,8.938 9.34,12.34 3.99,3.391 9,6 15.03,7.828 6.03,1.821 13.4,2.731 22.1,2.731 8.64,0 15.98,-0.91 22.01,-2.731 6.03,-1.828 11.04,-4.437 15.03,-7.828 3.98,-3.402 7.11,-7.511 9.38,-12.34 2.27,-4.82 3.97,-10.261 5.09,-16.332 1.13,-6.058 1.81,-12.668 2.07,-19.82 0.25,-7.16 0.38,-14.75 0.38,-22.769 0,-7.969 -0.13,-15.532 -0.38,-22.692 -0.26,-7.148 -0.94,-13.758 -2.07,-19.816 -1.12,-6.063 -2.82,-11.524 -5.09,-16.383 -2.27,-4.848 -5.4,-8.981 -9.38,-12.367 -3.99,-3.403 -9,-6.012 -15.03,-7.832 -6.03,-1.821 -13.37,-2.739 -22.01,-2.739 z m 118.78,-16.242 h 21.55 v 81.821 c 2.41,-0.11 5.38,-0.25 8.92,-0.418 3.53,-0.172 7.2,-0.321 10.98,-0.461 3.79,-0.141 7.51,-0.25 11.16,-0.34 3.65,-0.082 6.82,-0.129 9.51,-0.129 h 3.03 l 45.54,-80.473 h 25.26 l -48.07,82.242 c 7.3,1.18 13.9,3.047 19.82,5.598 5.93,2.551 10.99,6.102 15.2,10.652 4.21,4.547 7.46,10.207 9.76,17 2.3,6.789 3.46,14.957 3.46,24.5 0,8.36 -0.92,15.618 -2.74,21.758 -1.82,6.153 -4.41,11.379 -7.74,15.699 -3.34,4.321 -7.34,7.832 -12,10.524 -4.66,2.699 -9.82,4.797 -15.49,6.316 -5.67,1.512 -11.73,2.543 -18.18,3.071 -6.46,0.531 -13.16,0.8 -20.12,0.8 -10.55,0 -20.99,-0.41 -31.32,-1.218 -10.32,-0.821 -19.84,-1.95 -28.53,-3.411 z m 21.55,100 v 77.961 c 7.07,0.949 14,1.621 20.79,2.02 6.79,0.39 12.96,0.59 18.52,0.59 9.82,0 18.14,-0.75 24.96,-2.239 6.82,-1.48 12.36,-3.851 16.62,-7.109 4.27,-3.25 7.35,-7.453 9.26,-12.582 1.91,-5.141 2.87,-11.352 2.87,-18.649 0,-8.312 -1.23,-15.152 -3.67,-20.543 -2.44,-5.386 -5.99,-9.648 -10.65,-12.789 -4.65,-3.148 -10.38,-5.339 -17.17,-6.57 -6.79,-1.238 -14.53,-1.848 -23.23,-1.848 -2.86,0 -5.73,0.008 -8.59,0.039 -2.86,0.032 -5.84,0.098 -8.92,0.211 -3.09,0.11 -6.34,0.278 -9.77,0.5 -3.42,0.231 -7.1,0.571 -11.02,1.008 z m 218.52,-100 h 22.14 l 20.21,56.403 h 83.84 l 20.2,-56.403 h 23.07 l -67.01,183.43 c -3.59,9.82 -9.37,14.73 -17.34,14.73 -7.86,0 -13.58,-4.91 -17.17,-14.73 z m 120.05,73.66 h -71.47 l 35.77,99.672 z m 134.6,106.403 c 11.45,0 21.12,-0.942 29,-2.821 7.89,-1.882 14.4,-4.57 19.53,-8.082 5.14,-3.507 9.09,-7.718 11.87,-12.629 2.78,-4.91 4.83,-10.41 6.15,-16.5 1.31,-6.089 2.08,-12.671 2.31,-19.742 0.23,-7.066 0.34,-14.476 0.34,-22.218 0,-7.75 -0.11,-15.149 -0.34,-22.231 -0.22,-7.07 -1,-13.648 -2.31,-19.738 -1.32,-6.082 -3.37,-11.582 -6.15,-16.5 -2.78,-4.91 -6.73,-9.11 -11.87,-12.621 -5.13,-3.508 -11.64,-6.2 -19.53,-8.078 -7.88,-1.883 -17.55,-2.821 -29,-2.821 -2.47,0 -5.06,0.071 -7.79,0.207 -2.72,0.141 -5.47,0.321 -8.25,0.543 -2.77,0.231 -5.54,0.5 -8.29,0.797 -2.75,0.313 -5.38,0.641 -7.91,0.973 V 741.82 c 2.53,0.34 5.16,0.641 7.91,0.93 2.75,0.281 5.52,0.531 8.29,0.75 2.78,0.23 5.53,0.41 8.25,0.551 2.73,0.14 5.32,0.211 7.79,0.211 z m -53.79,13.636 V 566.809 c 8.7,-1.457 18.2,-2.598 28.49,-3.411 10.3,-0.82 20.67,-1.218 31.11,-1.218 12.07,0 22.55,0.922 31.44,2.781 8.9,1.848 16.5,4.629 22.81,8.328 6.32,3.699 11.47,8.352 15.45,13.93 3.99,5.59 7.13,12.082 9.43,19.492 2.3,7.41 3.87,15.738 4.71,25 0.85,9.258 1.27,19.449 1.27,30.559 0,11.109 -0.42,21.3 -1.27,30.558 -0.84,9.262 -2.41,17.594 -4.71,25 -2.3,7.41 -5.44,13.902 -9.43,19.492 -3.98,5.578 -9.13,10.219 -15.45,13.93 -6.31,3.699 -13.91,6.48 -22.81,8.328 -8.89,1.852 -19.37,2.781 -31.44,2.781 -10.44,0 -20.81,-0.39 -31.11,-1.179 -10.29,-0.782 -19.79,-1.879 -28.49,-3.282 z m 264.5,-180.91 63.98,183.352 h -22.06 l -58.08,-170.301 -57.33,170.301 h -22.98 l 63.55,-183.352 c 1.8,-5.218 4.05,-8.988 6.74,-11.316 2.69,-2.332 5.98,-3.492 9.85,-3.492 3.93,0 7.18,1.16 9.76,3.492 2.58,2.328 4.77,6.098 6.57,11.316 z m 61.03,-12.789 h 22.14 l 20.21,56.403 h 83.84 l 20.2,-56.403 h 23.07 l -67.01,183.43 c -3.59,9.82 -9.37,14.73 -17.34,14.73 -7.86,0 -13.58,-4.91 -17.17,-14.73 z m 120.04,73.66 h -71.46 l 35.77,99.672 z m 210.2,-45.121 -96.63,155.563 c -2.92,4.719 -5.88,8.238 -8.89,10.57 -3,2.32 -6.41,3.488 -10.22,3.488 -1.97,0 -3.76,-0.3 -5.39,-0.879 -1.63,-0.589 -3.03,-1.511 -4.21,-2.742 -1.18,-1.238 -2.09,-2.828 -2.74,-4.797 -0.64,-1.961 -0.96,-4.293 -0.96,-6.992 v -182.75 h 19.86 v 167.77 l 96.56,-155.649 c 2.97,-4.769 5.92,-8.32 8.84,-10.648 2.91,-2.332 6.37,-3.492 10.35,-3.492 1.96,0 3.76,0.289 5.39,0.879 1.63,0.589 3.03,1.519 4.21,2.781 1.18,1.262 2.09,2.859 2.73,4.801 0.65,1.929 0.97,4.25 0.97,6.937 V 760.34 h -19.87 z m 185.54,-26.097 -1.94,17 c -5.66,-0.84 -11.36,-1.551 -17.09,-2.141 -5.72,-0.59 -11.47,-0.891 -17.25,-0.891 -9.88,0 -18.34,0.789 -25.38,2.36 -7.05,1.57 -12.98,3.91 -17.81,7.031 -4.82,3.109 -8.68,6.969 -11.57,11.57 -2.89,4.61 -5.09,9.942 -6.61,16 -1.52,6.059 -2.51,12.821 -2.99,20.289 -0.48,7.461 -0.71,15.602 -0.71,24.411 0,8.812 0.21,16.929 0.63,24.371 0.42,7.429 1.37,14.179 2.86,20.238 1.49,6.07 3.65,11.402 6.48,16 2.84,4.601 6.67,8.461 11.49,11.57 4.83,3.121 10.79,5.481 17.89,7.071 7.1,1.601 15.67,2.402 25.72,2.402 5.72,0 11.52,-0.32 17.38,-0.961 5.87,-0.652 11.49,-1.371 16.88,-2.152 l 2.02,17.261 c -6.23,1.282 -13.1,2.321 -20.62,3.11 -7.52,0.789 -15.55,1.179 -24.08,1.179 -10.55,0 -19.83,-0.859 -27.82,-2.57 -8,-1.711 -14.92,-4.328 -20.75,-7.867 -5.84,-3.531 -10.68,-8.024 -14.52,-13.473 -3.85,-5.437 -6.93,-11.871 -9.26,-19.277 -2.33,-7.402 -3.97,-15.844 -4.93,-25.293 -0.95,-9.457 -1.43,-19.988 -1.43,-31.609 0,-11.622 0.48,-22.161 1.43,-31.61 0.96,-9.461 2.58,-17.89 4.88,-25.301 2.31,-7.41 5.39,-13.82 9.26,-19.23 3.88,-5.418 8.73,-9.91 14.57,-13.469 5.83,-3.57 12.75,-6.199 20.75,-7.91 7.99,-1.719 17.27,-2.57 27.82,-2.57 8.64,0 16.7,0.422 24.16,1.261 7.46,0.84 14.31,1.911 20.54,3.2 z m 142.52,176.109 v 16.922 c -4.04,0.156 -8.24,0.316 -12.59,0.457 -4.35,0.141 -8.65,0.269 -12.92,0.383 -4.26,0.109 -8.35,0.187 -12.25,0.25 -3.9,0.058 -7.42,0.078 -10.56,0.078 -5.56,0 -11,-0.11 -16.33,-0.328 -5.33,-0.223 -10.38,-0.782 -15.15,-1.692 -4.78,-0.89 -9.18,-2.25 -13.22,-4.082 -4.04,-1.816 -7.52,-4.347 -10.44,-7.578 -2.92,-3.219 -5.2,-7.262 -6.86,-12.121 -1.66,-4.848 -2.48,-10.73 -2.48,-17.629 V 606.961 c 0,-6.961 0.82,-12.852 2.48,-17.68 1.66,-4.82 3.94,-8.84 6.86,-12.031 2.92,-3.199 6.4,-5.711 10.44,-7.539 4.04,-1.82 8.44,-3.172 13.22,-4.039 4.77,-0.871 9.83,-1.422 15.19,-1.641 5.36,-0.222 10.79,-0.34 16.29,-0.34 3.76,0 7.66,0.02 11.7,0.039 4.04,0.032 8.12,0.09 12.25,0.168 4.12,0.09 8.25,0.192 12.37,0.301 4.13,0.11 8.13,0.25 12,0.422 v 17.168 h -49.16 c -6.01,0 -11.23,0.211 -15.66,0.633 -4.43,0.418 -8.19,1.148 -11.28,2.187 -3.09,1.039 -5.61,2.442 -7.58,4.211 -1.96,1.77 -3.5,4.039 -4.63,6.821 -1.12,2.781 -1.88,6.089 -2.27,9.929 -0.39,3.852 -0.59,8.352 -0.59,13.508 v 36.203 h 87.13 v 17.598 h -87.13 v 32.32 c 0,5.16 0.2,9.68 0.59,13.551 0.39,3.879 1.15,7.199 2.27,9.98 1.13,2.782 2.67,5.079 4.63,6.899 1.97,1.832 4.49,3.262 7.58,4.301 3.09,1.031 6.85,1.761 11.28,2.179 4.43,0.422 9.65,0.641 15.66,0.641 z m 93.1,1.512 c 11.45,0 21.12,-0.942 29,-2.821 7.89,-1.882 14.4,-4.57 19.53,-8.082 5.14,-3.507 9.09,-7.718 11.87,-12.629 2.78,-4.91 4.83,-10.41 6.15,-16.5 1.31,-6.089 2.08,-12.671 2.31,-19.742 0.22,-7.066 0.34,-14.476 0.34,-22.218 0,-7.75 -0.12,-15.149 -0.34,-22.231 -0.22,-7.07 -1,-13.648 -2.31,-19.738 -1.32,-6.082 -3.37,-11.582 -6.15,-16.5 -2.78,-4.91 -6.73,-9.11 -11.87,-12.621 -5.13,-3.508 -11.64,-6.2 -19.53,-8.078 -7.88,-1.883 -17.55,-2.821 -29,-2.821 -2.47,0 -5.06,0.071 -7.79,0.207 -2.72,0.141 -5.47,0.321 -8.25,0.543 -2.77,0.231 -5.54,0.5 -8.29,0.797 -2.75,0.313 -5.39,0.641 -7.91,0.973 V 741.82 c 2.52,0.34 5.16,0.641 7.91,0.93 2.75,0.281 5.52,0.531 8.29,0.75 2.78,0.23 5.53,0.41 8.25,0.551 2.73,0.14 5.32,0.211 7.79,0.211 z m -53.79,13.636 V 566.809 c 8.7,-1.457 18.2,-2.598 28.49,-3.411 10.3,-0.82 20.67,-1.218 31.11,-1.218 12.07,0 22.55,0.922 31.44,2.781 8.9,1.848 16.5,4.629 22.81,8.328 6.32,3.699 11.47,8.352 15.45,13.93 3.99,5.59 7.13,12.082 9.43,19.492 2.3,7.41 3.87,15.738 4.71,25 0.84,9.258 1.27,19.449 1.27,30.559 0,11.109 -0.43,21.3 -1.27,30.558 -0.84,9.262 -2.41,17.594 -4.71,25 -2.3,7.41 -5.44,13.902 -9.43,19.492 -3.98,5.578 -9.13,10.219 -15.45,13.93 -6.31,3.699 -13.91,6.48 -22.81,8.328 -8.89,1.852 -19.37,2.781 -31.44,2.781 -10.44,0 -20.81,-0.39 -31.11,-1.179 -10.29,-0.782 -19.79,-1.879 -28.49,-3.282"
         style="fill:#ffffff;fill-opacity:1;fill-rule:nonzero;stroke:none"
         id="path1211"
         inkscape:connector-curvature="0" /></g></g></svg>