<?xml version="1.0" encoding="UTF-8" standalone="no"?>
<!DOCTYPE svg PUBLIC "-//W3C//DTD SVG 1.1//EN" "http://www.w3.org/Graphics/SVG/1.1/DTD/svg11.dtd">
<svg xmlns="http://www.w3.org/2000/svg" xmlns:xlink="http://www.w3.org/1999/xlink" version="1.1" width="566.93pt" height="201.26pt" viewBox="0 0 566.93 201.26">
<g enable-background="new">
<path transform="matrix(.1,0,0,-.1,0,201.26)" d="M 1136.25 570.898 L 1187.21 393.52 C 1265.74 416.328 1339.63 453.871 1404.62 504.301 L 1289 652.289 C 1244.21 616.172 1192.56 588.238 1136.25 570.898 " fill="#b2edff"/>
<path transform="matrix(.1,0,0,-.1,0,201.26)" d="M 1548.58 663.301 L 1389.94 764.379 C 1371.99 736.371 1351.31 710.801 1328.42 687.871 L 1328.42 687.852 C 1327.68 687.07 1326.89 686.371 1326.14 685.629 C 1322.89 682.398 1319.62 679.199 1316.28 676.082 C 1307.49 667.781 1298.36 659.852 1288.94 652.25 L 1404.61 504.219 C 1460.26 548.07 1509.08 601.551 1548.58 663.301 " fill="#005096"/>
<path transform="matrix(.1,0,0,-.1,0,201.26)" d="M 1208.07 1622.86 C 1143.32 1644.65 1074.07 1656.63 1001.97 1656.63 C 673.07 1656.63 401.5 1411.25 360.309 1093.56 C 360.168 1092.48 360.031 1091.39 359.895 1090.3 C 358.188 1076.59 356.941 1062.74 356.105 1048.77 C 355.922 1045.69 355.738 1042.6 355.602 1039.5 C 355.449 1036.16 355.324 1032.82 355.223 1029.48 C 355.074 1024.44 354.98 1019.4 354.949 1014.36 C 354.938 1012.78 354.891 1011.21 354.891 1009.63 C 354.898 1000.8 355.117 992.031 355.477 983.281 C 355.543 981.578 355.629 979.898 355.711 978.211 C 365.59 775.82 468.449 597.949 622.488 486.25 C 659.773 537.602 696.785 588.582 732.262 637.48 C 616.789 720.922 541.574 856.641 541.574 1010 C 541.574 1263.71 747.262 1469.42 1000.99 1469.42 C 1060.7 1469.42 1117.68 1457.89 1170.01 1437.15 L 1238.47 1611.37 C 1228.42 1615.45 1218.3 1619.34 1208.07 1622.86 " fill="#005096"/>
<path transform="matrix(.1,0,0,-.1,0,201.26)" d="M 210.859 1220.88 L 35.1953 1271.79 C 10.0977 1180.17 -2.28516 1083.46 .332031 983.559 C 4.31641 831.32 42.2461 687.949 106.68 560.488 L 270.605 642.121 C 214.785 752.781 183.281 877.82 183.301 1010.25 C 183.281 1083.11 192.93 1153.68 210.859 1220.88 " fill="#b2edff"/>
<path transform="matrix(.1,0,0,-.1,0,201.26)" d="M 1478.79 131.719 L 1391.9 292.27 C 1338.36 262.828 1281.47 239.379 1222.31 222.422 L 1273.48 46.6016 C 1345.12 67.332 1413.98 95.9414 1478.79 131.719 " fill="#00c3ff"/>
<path transform="matrix(.1,0,0,-.1,0,201.26)" d="M 845.582 206.699 C 713.75 232.352 595.59 288.539 496.695 366.371 L 382.984 223.211 C 504.316 127.07 649.629 57.7383 811.914 26.3906 L 845.582 206.699 " fill="#80e1ff"/>
<path transform="matrix(.1,0,0,-.1,0,201.26)" d="M 1044.51 9.12109 L 1035.47 192.289 C 973.066 189.711 909.449 194.281 845.59 206.719 L 844.574 201.309 L 811.918 26.4102 C 890.133 11.2891 968.07 5.80078 1044.51 9.12109 " fill="#b2edff"/>
<path transform="matrix(.1,0,0,-.1,0,201.26)" d="M 1273.42 46.5586 L 1222.25 222.391 C 1162.01 205.281 1099.38 195.039 1035.48 192.211 L 1044.51 9.10156 C 1044.5 9.12109 1044.48 9.12109 1044.46 9.12109 L 1044.46 9.05859 C 1122.82 12.6016 1199.61 25.3281 1273.42 46.5586 " fill="#005096"/>
<path transform="matrix(.1,0,0,-.1,0,201.26)" d="M 1612.01 463.91 L 1746.39 338.988 C 1810.02 409.512 1864.63 490.309 1907.25 580.691 C 1972.21 718.441 2002.87 863.531 2002.71 1006.34 L 1819.36 1007.24 C 1819.34 890.359 1794.49 771.66 1741.33 658.93 C 1706.99 586.109 1663.01 521.059 1612.01 463.91 " fill="#00c3ff"/>
<path transform="matrix(.1,0,0,-.1,0,201.26)" d="M 1426.63 834.57 C 1416.32 809.691 1403.91 786.391 1389.97 764.441 L 1548.61 663.34 C 1568.35 694.422 1585.92 727.391 1600.5 762.559 C 1610.79 787.422 1619.41 812.52 1626.43 837.801 L 1444.95 887.719 C 1439.99 869.871 1433.9 852.109 1426.63 834.57 " fill="#b2edff"/>
<path transform="matrix(.1,0,0,-.1,0,201.26)" d="M 1323.02 1337.52 C 1240.11 1419.05 1126.45 1469.4 1000.99 1469.4 C 747.262 1469.4 541.574 1263.7 541.574 1009.98 C 541.574 756.25 747.262 550.559 1000.99 550.559 C 1129.2 550.559 1245.1 603.141 1328.43 687.828 L 1212.96 803.301 C 1159.16 748.141 1084.13 713.77 1000.99 713.77 C 837.402 713.77 704.785 846.391 704.785 1009.98 C 704.785 1173.57 837.402 1306.18 1000.99 1306.18 C 1081.6 1306.18 1154.6 1273.88 1208.01 1221.63 L 1323.02 1337.52 " fill="#a0e300"/>
<path transform="matrix(.1,0,0,-.1,0,201.26)" d="M 309.609 1446.88 C 229.727 1320.49 183.313 1170.82 183.313 1010.26 C 183.313 611.621 468.277 279.711 845.57 206.699 L 878.344 375.102 C 580.121 432.809 354.875 695.16 354.875 1010.26 C 354.875 1137.17 391.563 1255.47 454.703 1355.37 L 309.609 1446.88 " fill="#00c3ff"/>
<path transform="matrix(.1,0,0,-.1,0,201.26)" d="M 1548.28 1350.7 C 1494.24 1316.61 1440.6 1282.72 1389.18 1250.24 C 1455.65 1144.95 1478.64 1014.01 1445.08 887.68 L 1626.41 837.809 C 1674.41 1016.51 1642.26 1201.76 1548.28 1350.7 " fill="#005096"/>
<path transform="matrix(.1,0,0,-.1,0,201.26)" d="M 1156.9 1810.63 L 1126.17 1644.61 C 1350.35 1602.6 1549.83 1423.19 1619.19 1196.92 C 1620.9 1191.43 1622.54 1185.9 1624.1 1180.36 C 1624.48 1178.97 1624.88 1177.6 1625.25 1176.21 C 1655 1068.13 1656.99 951.641 1626.41 837.801 L 1624.9 838.211 C 1624.89 838.191 1624.89 838.172 1624.88 838.148 C 1681.36 822.5 1737.23 806.969 1790.43 792.191 C 1809.08 860.691 1819.17 932.719 1819.17 1007.13 C 1819.17 1196.66 1754.71 1371.08 1646.58 1509.79 L 1646.51 1509.73 C 1571.91 1605.43 1476.54 1684.14 1367.17 1739.07 C 1366.28 1739.52 1365.39 1739.95 1364.5 1740.39 C 1358.48 1743.4 1352.41 1746.31 1346.3 1749.16 C 1345.75 1749.44 1345.21 1749.69 1344.65 1749.95 C 1338.01 1753.03 1331.31 1756.04 1324.56 1758.95 C 1323.7 1759.32 1322.82 1759.67 1321.95 1760.04 C 1316.43 1762.41 1310.88 1764.71 1305.3 1766.94 C 1303.33 1767.74 1301.35 1768.52 1299.37 1769.3 C 1294.6 1771.18 1289.8 1772.99 1284.99 1774.77 C 1283.03 1775.49 1281.09 1776.23 1279.12 1776.95 C 1272.76 1779.26 1266.37 1781.49 1259.93 1783.64 C 1258.06 1784.26 1256.16 1784.85 1254.28 1785.47 C 1249.58 1787 1244.87 1788.5 1240.13 1789.95 C 1237.38 1790.79 1234.62 1791.61 1231.85 1792.43 C 1227.82 1793.6 1223.77 1794.75 1219.72 1795.88 C 1216.9 1796.66 1214.08 1797.45 1211.25 1798.2 C 1205.98 1799.61 1200.7 1800.94 1195.39 1802.23 C 1191.99 1803.07 1188.58 1803.85 1185.16 1804.65 C 1180.74 1805.67 1176.31 1806.66 1171.86 1807.62 C 1168.78 1808.29 1165.68 1808.91 1162.58 1809.52 C 1160.69 1809.91 1158.79 1810.26 1156.9 1810.63 " fill="#66dbff"/>
<path transform="matrix(.1,0,0,-.1,0,201.26)" d="M 1789.76 1621.23 C 1607.38 1857.05 1321.86 2009.07 1000.69 2009.07 C 674.863 2009.07 385.594 1852.74 203.621 1611.08 L 348.32 1501.41 C 497.82 1698.34 734.355 1825.61 1000.69 1825.61 C 1263.21 1825.61 1496.7 1701.88 1646.51 1509.73 L 1789.76 1621.23 " fill="#005096"/>
<path transform="matrix(.1,0,0,-.1,0,201.26)" d="M 4215.07 1171.66 C 4215.07 1249.36 4193.01 1284.06 4168.21 1303.68 C 4150.97 1317.25 4135.81 1323.29 4095.85 1327.82 L 3803.65 1339.13 C 3785.04 1340.64 3768.5 1341.39 3755.41 1359.5 C 3752.65 1362.52 3747.14 1371.57 3747.14 1382.89 C 3747.14 1394.2 3753.34 1404 3755.41 1407.02 C 3767.12 1423.62 3784.3 1428.2 3802.91 1428.95 C 3830.23 1429.68 4149.17 1428.86 4176.45 1428.95 L 4176.45 1545.73 C 4134.06 1545.08 3751.85 1548.17 3731.48 1545.73 C 3690.82 1540.45 3655.48 1531.5 3627.22 1498.3 C 3618.95 1488.5 3612.07 1477.18 3607.24 1464.36 C 3594.84 1430.41 3594.84 1372.32 3594.84 1368.55 C 3594.84 1314.24 3608.62 1281.8 3623.78 1263.7 C 3647.21 1235.78 3680.98 1229.75 3690.63 1228.24 C 3697.52 1226.73 3705.1 1225.98 3711.99 1224.47 C 3734.73 1222.96 3757.47 1220.7 3780.21 1219.19 C 3851.2 1214.66 3922.87 1213.91 3994.54 1212.4 C 4029 1207.12 4044.16 1207.87 4055.87 1189.77 C 4062.08 1179.96 4062.77 1170.91 4062.77 1166.38 C 4062.77 1148.28 4049.67 1131.68 4034.51 1125.65 C 4019.35 1118.86 3997.98 1121.12 3993.16 1121.12 C 3966.01 1120.51 3727.9 1125.19 3612.4 1125.18 L 3612.4 1007.23 C 3746.66 1008.07 4038.51 1004.88 4087.57 1007.97 C 4121.42 1011.17 4147.53 1018.53 4170.27 1036.63 C 4178.54 1043.42 4184.05 1050.21 4190.26 1059.26 C 4205.42 1082.65 4215.07 1111.32 4215.07 1171.66 " fill="#005096"/>
<path transform="matrix(.1,0,0,-.1,0,201.26)" d="M 4969.42 1545.73 L 4828.2 1545.73 C 4828.2 1545.73 4760.97 1233.09 4756.31 1213.75 C 4749.28 1184.59 4728.2 1142.76 4684.88 1133.89 C 4662.41 1129.3 4635.73 1129.12 4635.73 1129.12 C 4635.73 1129.12 4609.05 1129.3 4586.59 1133.89 C 4543.26 1142.76 4522.19 1184.59 4515.16 1213.75 C 4510.5 1233.09 4443.26 1545.73 4443.26 1545.73 L 4302.04 1545.73 L 4384.01 1173.19 C 4426.17 989.398 4591.98 1008.89 4635.73 1006.58 C 4679.49 1008.89 4845.3 989.398 4887.45 1173.19 L 4969.42 1545.73 " fill="#005096"/>
<path transform="matrix(.1,0,0,-.1,0,201.26)" d="M 5669.29 1170.71 C 5669.29 1248.41 5647.24 1283.11 5622.43 1302.73 C 5605.2 1316.3 5590.04 1322.34 5550.07 1326.86 L 5257.87 1338.18 C 5239.26 1339.69 5222.73 1340.44 5209.63 1358.55 C 5206.87 1361.57 5201.36 1370.62 5201.36 1381.93 C 5201.36 1393.25 5207.56 1403.05 5209.63 1406.07 C 5221.35 1422.67 5238.53 1427.24 5257.14 1428 C 5284.46 1428.73 5603.4 1427.9 5630.68 1428 L 5630.68 1544.78 C 5588.28 1544.13 5206.08 1547.21 5185.7 1544.78 C 5145.05 1539.5 5109.71 1530.55 5081.45 1497.35 C 5073.18 1487.55 5066.29 1476.23 5061.47 1463.41 C 5049.06 1429.46 5049.06 1371.37 5049.06 1367.6 C 5049.06 1313.29 5062.84 1280.85 5078 1262.74 C 5101.43 1234.83 5135.21 1228.8 5144.85 1227.29 C 5151.74 1225.78 5159.32 1225.03 5166.22 1223.52 C 5188.96 1222.01 5211.7 1219.75 5234.44 1218.23 C 5305.42 1213.71 5377.09 1212.96 5448.76 1211.45 C 5483.22 1206.16 5498.38 1206.92 5510.1 1188.82 C 5516.3 1179.01 5516.99 1169.96 5516.99 1165.43 C 5516.99 1147.33 5503.9 1130.73 5488.74 1124.7 C 5473.57 1117.91 5452.21 1120.17 5447.39 1120.17 C 5420.23 1119.56 5182.12 1124.24 5066.63 1124.23 L 5066.63 1006.28 C 5200.88 1007.12 5492.73 1003.93 5541.8 1007.01 C 5575.64 1010.22 5601.75 1017.57 5624.5 1035.68 C 5632.77 1042.47 5638.28 1049.26 5644.48 1058.31 C 5659.64 1081.7 5669.29 1110.36 5669.29 1170.71 " fill="#005096"/>
<path transform="matrix(.1,0,0,-.1,0,201.26)" d="M 3504.89 1006.6 L 3422.92 1379.14 C 3380.76 1562.93 3214.95 1543.44 3171.2 1545.75 C 3127.44 1543.44 2961.63 1562.93 2919.48 1379.14 L 2837.51 1006.6 L 2978.73 1006.6 C 2978.73 1006.6 2994.12 1078.17 3010.68 1154.93 L 3138.46 1154.93 L 3172.32 1273.29 L 3036.28 1273.29 C 3043.81 1307.97 3049.4 1333.5 3050.63 1338.58 C 3057.65 1367.74 3078.73 1409.57 3122.05 1418.44 C 3144.52 1423.03 3171.2 1423.2 3171.2 1423.2 C 3171.2 1423.2 3197.88 1423.03 3220.34 1418.44 C 3263.67 1409.57 3284.74 1367.74 3291.77 1338.58 C 3296.43 1319.24 3363.67 1006.6 3363.67 1006.6 L 3504.89 1006.6 " fill="#005096"/>
<path transform="matrix(.1,0,0,-.1,0,201.26)" d="M 2803.91 1514.24 C 2738.53 1538.3 2661.56 1550.65 2579.58 1546.74 C 2353.1 1535.88 2175.31 1406.35 2182.47 1257.37 C 2189.62 1108.46 2379.01 996.512 2605.49 1007.37 C 2631.55 1008.62 2656.88 1011.66 2681.45 1015.88 L 2717.22 1161.43 C 2681.07 1150.73 2640.24 1143.54 2596.63 1141.43 C 2445.72 1134.24 2320.48 1188.7 2316.9 1263.3 C 2313.32 1337.84 2432.75 1404.24 2583.66 1411.43 C 2655.84 1414.95 2721.96 1404.09 2771.89 1383.93 L 2803.91 1514.24 " fill="#005096"/>
<path transform="matrix(.1,0,0,-.1,0,201.26)" d="M 2344.38 362.84 C 2350.98 362.84 2357.62 362.5 2364.3 361.828 C 2370.99 361.16 2377.32 360.379 2383.31 359.48 L 2385.24 376.77 C 2381.77 377.379 2378.06 377.949 2374.12 378.488 C 2370.18 379.02 2366.09 379.488 2361.87 379.91 C 2357.65 380.328 2353.34 380.648 2348.95 380.879 C 2344.56 381.102 2340.19 381.211 2335.82 381.211 C 2325.14 381.211 2315.65 380.34 2307.34 378.609 C 2299.04 376.879 2292.06 373.969 2286.41 369.891 C 2280.76 365.801 2276.47 360.43 2273.54 353.781 C 2270.6 347.121 2269.13 338.898 2269.13 329.121 C 2269.13 320.391 2270.38 313.129 2272.86 307.352 C 2275.35 301.559 2278.96 296.691 2283.69 292.75 C 2288.41 288.809 2294.19 285.461 2301.01 282.719 C 2307.83 279.98 2315.58 277.332 2324.25 274.75 C 2330.9 272.738 2336.9 270.711 2342.24 268.672 C 2347.58 266.629 2352.13 264.18 2355.87 261.328 C 2359.62 258.48 2362.5 255.031 2364.51 250.969 C 2366.53 246.922 2367.53 241.84 2367.53 235.75 C 2367.53 228.48 2366.36 222.531 2364.01 217.922 C 2361.66 213.309 2358.36 209.699 2354.11 207.102 C 2349.86 204.5 2344.81 202.711 2338.97 201.73 C 2333.13 200.75 2326.71 200.262 2319.72 200.262 C 2316.14 200.262 2312.4 200.34 2308.52 200.512 C 2304.63 200.68 2300.67 200.93 2296.65 201.27 C 2292.62 201.602 2288.58 201.988 2284.52 202.441 C 2280.47 202.891 2276.51 203.391 2272.65 203.949 L 2270.56 186.328 C 2274.36 185.551 2278.14 184.879 2281.88 184.32 C 2285.63 183.762 2289.49 183.289 2293.46 182.891 C 2297.43 182.5 2301.64 182.211 2306.08 182.012 C 2310.53 181.82 2315.35 181.719 2320.56 181.719 C 2331.69 181.719 2341.56 182.699 2350.17 184.66 C 2358.78 186.609 2366.04 189.77 2371.94 194.141 C 2377.84 198.5 2382.31 204.18 2385.36 211.172 C 2388.41 218.16 2389.93 226.691 2389.93 236.75 C 2389.93 245.371 2388.59 252.719 2385.91 258.82 C 2383.22 264.91 2379.47 270.109 2374.67 274.422 C 2369.86 278.73 2364.12 282.332 2357.47 285.238 C 2350.81 288.148 2343.51 290.75 2335.57 293.039 C 2327.13 295.449 2320.04 297.672 2314.31 299.711 C 2308.57 301.75 2303.96 304.16 2300.46 306.93 C 2296.97 309.699 2294.47 313.109 2292.96 317.16 C 2291.45 321.219 2290.69 326.461 2290.69 332.891 C 2290.69 337.25 2291.36 341.031 2292.7 344.219 C 2294.05 347.398 2295.91 350.102 2298.28 352.309 C 2300.66 354.52 2303.51 356.309 2306.84 357.68 C 2310.17 359.051 2313.83 360.109 2317.83 360.871 C 2321.83 361.621 2326.06 362.141 2330.54 362.422 C 2335.01 362.699 2339.63 362.84 2344.38 362.84 " fill="#005096"/>
<path transform="matrix(.1,0,0,-.1,0,201.26)" d="M 2499.66 183.73 L 2499.66 259.738 L 2562.57 379.199 L 2540.09 379.199 L 2489.09 281.629 L 2439 379.199 L 2415.6 379.199 L 2477.93 259.738 L 2477.93 183.73 L 2499.66 183.73 " fill="#005096"/>
<path transform="matrix(.1,0,0,-.1,0,201.26)" d="M 2658.63 362.84 C 2665.23 362.84 2671.87 362.5 2678.55 361.828 C 2685.23 361.16 2691.57 360.379 2697.55 359.48 L 2699.48 376.77 C 2696.01 377.379 2692.31 377.949 2688.37 378.488 C 2684.42 379.02 2680.34 379.488 2676.12 379.91 C 2671.9 380.328 2667.59 380.648 2663.2 380.879 C 2658.81 381.102 2654.43 381.211 2650.07 381.211 C 2639.39 381.211 2629.89 380.34 2621.59 378.609 C 2613.28 376.879 2606.31 373.969 2600.66 369.891 C 2595.01 365.801 2590.72 360.43 2587.78 353.781 C 2584.84 347.121 2583.38 338.898 2583.38 329.121 C 2583.38 320.391 2584.62 313.129 2587.11 307.352 C 2589.6 301.559 2593.21 296.691 2597.93 292.75 C 2602.66 288.809 2608.43 285.461 2615.26 282.719 C 2622.08 279.98 2629.82 277.332 2638.49 274.75 C 2645.15 272.738 2651.15 270.711 2656.49 268.672 C 2661.83 266.629 2666.37 264.18 2670.12 261.328 C 2673.87 258.48 2676.75 255.031 2678.76 250.969 C 2680.77 246.922 2681.78 241.84 2681.78 235.75 C 2681.78 228.48 2680.61 222.531 2678.26 217.922 C 2675.91 213.309 2672.61 209.699 2668.36 207.102 C 2664.11 204.5 2659.06 202.711 2653.22 201.73 C 2647.37 200.75 2640.95 200.262 2633.96 200.262 C 2630.38 200.262 2626.65 200.34 2622.76 200.512 C 2618.88 200.68 2614.92 200.93 2610.89 201.27 C 2606.87 201.602 2602.83 201.988 2598.77 202.441 C 2594.72 202.891 2590.76 203.391 2586.9 203.949 L 2584.8 186.328 C 2588.61 185.551 2592.38 184.879 2596.13 184.32 C 2599.88 183.762 2603.73 183.289 2607.7 182.891 C 2611.68 182.5 2615.88 182.211 2620.33 182.012 C 2624.78 181.82 2629.6 181.719 2634.8 181.719 C 2645.93 181.719 2655.8 182.699 2664.41 184.66 C 2673.03 186.609 2680.28 189.77 2686.18 194.141 C 2692.08 198.5 2696.56 204.18 2699.61 211.172 C 2702.65 218.16 2704.18 226.691 2704.18 236.75 C 2704.18 245.371 2702.84 252.719 2700.15 258.82 C 2697.47 264.91 2693.72 270.109 2688.91 274.422 C 2684.1 278.73 2678.37 282.332 2671.71 285.238 C 2665.06 288.148 2657.76 290.75 2649.82 293.039 C 2641.37 295.449 2634.28 297.672 2628.55 299.711 C 2622.82 301.75 2618.21 304.16 2614.71 306.93 C 2611.21 309.699 2608.71 313.109 2607.2 317.16 C 2605.69 321.219 2604.94 326.461 2604.94 332.891 C 2604.94 337.25 2605.61 341.031 2606.95 344.219 C 2608.29 347.398 2610.15 350.102 2612.53 352.309 C 2614.91 354.52 2617.76 356.309 2621.09 357.68 C 2624.41 359.051 2628.08 360.109 2632.07 360.871 C 2636.07 361.621 2640.31 362.141 2644.78 362.422 C 2649.26 362.699 2653.87 362.84 2658.63 362.84 " fill="#005096"/>
<path transform="matrix(.1,0,0,-.1,0,201.26)" d="M 2858.87 361.41 L 2858.87 379.199 L 2730.35 379.199 L 2730.35 361.41 L 2783.87 361.41 L 2783.87 183.73 L 2805.43 183.73 L 2805.43 361.41 L 2858.87 361.41 " fill="#005096"/>
<path transform="matrix(.1,0,0,-.1,0,201.26)" d="M 3002.24 361.672 L 3002.24 378.531 C 2998.21 378.699 2994.03 378.852 2989.7 378.988 C 2985.36 379.129 2981.07 379.25 2976.82 379.371 C 2972.57 379.48 2968.5 379.559 2964.61 379.621 C 2960.73 379.672 2957.22 379.699 2954.08 379.699 C 2948.55 379.699 2943.12 379.59 2937.81 379.371 C 2932.5 379.148 2927.46 378.59 2922.71 377.691 C 2917.96 376.801 2913.57 375.441 2909.54 373.621 C 2905.51 371.801 2902.04 369.289 2899.14 366.07 C 2896.23 362.852 2893.95 358.828 2892.3 353.988 C 2890.65 349.148 2889.82 343.289 2889.82 336.41 L 2889.82 226.352 C 2889.82 219.422 2890.65 213.539 2892.3 208.73 C 2893.95 203.922 2896.23 199.922 2899.14 196.738 C 2902.04 193.551 2905.51 191.051 2909.54 189.23 C 2913.57 187.41 2917.96 186.07 2922.71 185.199 C 2927.46 184.34 2932.51 183.789 2937.85 183.57 C 2943.19 183.34 2948.6 183.23 2954.08 183.23 C 2957.83 183.23 2961.72 183.238 2965.74 183.27 C 2969.77 183.301 2973.84 183.359 2977.95 183.441 C 2982.06 183.52 2986.17 183.621 2990.28 183.73 C 2994.39 183.852 2998.38 183.988 3002.24 184.148 L 3002.24 201.27 L 2953.25 201.27 C 2947.26 201.27 2942.06 201.48 2937.64 201.898 C 2933.22 202.32 2929.48 203.039 2926.4 204.078 C 2923.32 205.109 2920.81 206.512 2918.85 208.27 C 2916.89 210.031 2915.35 212.301 2914.24 215.07 C 2913.12 217.84 2912.36 221.141 2911.97 224.969 C 2911.58 228.801 2911.38 233.289 2911.38 238.43 L 2911.38 274.5 L 2998.21 274.5 L 2998.21 292.039 L 2911.38 292.039 L 2911.38 324.25 C 2911.38 329.398 2911.58 333.898 2911.97 337.762 C 2912.36 341.621 2913.12 344.93 2914.24 347.699 C 2915.35 350.469 2916.89 352.762 2918.85 354.578 C 2920.81 356.391 2923.32 357.82 2926.4 358.859 C 2929.48 359.891 2933.22 360.621 2937.64 361.039 C 2942.06 361.461 2947.26 361.672 2953.25 361.672 L 3002.24 361.672 " fill="#005096"/>
<path transform="matrix(.1,0,0,-.1,0,201.26)" d="M 3137.71 238.512 L 3079.66 367.621 C 3077.54 372.379 3075.12 375.828 3072.41 377.98 C 3069.69 380.141 3066.74 381.211 3063.56 381.211 C 3059.19 381.211 3055.89 380.02 3053.66 377.648 C 3051.42 375.27 3050.13 371.449 3049.8 366.199 L 3038.72 183.73 L 3059.11 183.73 L 3068.67 347.32 L 3124.96 220.898 C 3126.53 217.371 3128.28 214.699 3130.21 212.891 C 3132.14 211.07 3134.61 210.16 3137.63 210.16 C 3140.65 210.16 3143.11 211.07 3145.01 212.891 C 3146.91 214.699 3148.65 217.371 3150.21 220.898 L 3206.59 347.398 L 3215.9 183.73 L 3237.12 183.73 L 3226.55 366.109 C 3226.28 371.371 3224.97 375.199 3222.65 377.602 C 3220.33 380.012 3216.99 381.211 3212.63 381.211 C 3209.39 381.211 3206.39 380.09 3203.65 377.859 C 3200.91 375.621 3198.48 372.129 3196.35 367.371 L 3137.71 238.512 " fill="#005096"/>
<path transform="matrix(.1,0,0,-.1,0,201.26)" d="M 3347.44 362.84 C 3354.04 362.84 3360.68 362.5 3367.36 361.828 C 3374.04 361.16 3380.38 360.379 3386.36 359.48 L 3388.29 376.77 C 3384.82 377.379 3381.12 377.949 3377.18 378.488 C 3373.23 379.02 3369.15 379.488 3364.93 379.91 C 3360.71 380.328 3356.4 380.648 3352.01 380.879 C 3347.62 381.102 3343.24 381.211 3338.88 381.211 C 3328.2 381.211 3318.7 380.34 3310.4 378.609 C 3302.09 376.879 3295.12 373.969 3289.47 369.891 C 3283.82 365.801 3279.53 360.43 3276.59 353.781 C 3273.66 347.121 3272.19 338.898 3272.19 329.121 C 3272.19 320.391 3273.43 313.129 3275.92 307.352 C 3278.41 301.559 3282.02 296.691 3286.74 292.75 C 3291.47 288.809 3297.24 285.461 3304.07 282.719 C 3310.89 279.98 3318.63 277.332 3327.3 274.75 C 3333.96 272.738 3339.96 270.711 3345.3 268.672 C 3350.64 266.629 3355.18 264.18 3358.93 261.328 C 3362.68 258.48 3365.56 255.031 3367.57 250.969 C 3369.58 246.922 3370.59 241.84 3370.59 235.75 C 3370.59 228.48 3369.42 222.531 3367.07 217.922 C 3364.72 213.309 3361.42 209.699 3357.17 207.102 C 3352.92 204.5 3347.87 202.711 3342.03 201.73 C 3336.18 200.75 3329.76 200.262 3322.77 200.262 C 3319.19 200.262 3315.46 200.34 3311.57 200.512 C 3307.69 200.68 3303.73 200.93 3299.7 201.27 C 3295.68 201.602 3291.64 201.988 3287.58 202.441 C 3283.53 202.891 3279.57 203.391 3275.71 203.949 L 3273.61 186.328 C 3277.42 185.551 3281.19 184.879 3284.94 184.32 C 3288.69 183.762 3292.54 183.289 3296.52 182.891 C 3300.49 182.5 3304.69 182.211 3309.14 182.012 C 3313.59 181.82 3318.41 181.719 3323.61 181.719 C 3334.74 181.719 3344.61 182.699 3353.23 184.66 C 3361.84 186.609 3369.09 189.77 3374.99 194.141 C 3380.9 198.5 3385.37 204.18 3388.42 211.172 C 3391.47 218.16 3392.99 226.691 3392.99 236.75 C 3392.99 245.371 3391.65 252.719 3388.96 258.82 C 3386.28 264.91 3382.53 270.109 3377.72 274.422 C 3372.91 278.73 3367.18 282.332 3360.52 285.238 C 3353.87 288.148 3346.57 290.75 3338.63 293.039 C 3330.18 295.449 3323.09 297.672 3317.36 299.711 C 3311.63 301.75 3307.02 304.16 3303.52 306.93 C 3300.03 309.699 3297.52 313.109 3296.01 317.16 C 3294.5 321.219 3293.75 326.461 3293.75 332.891 C 3293.75 337.25 3294.42 341.031 3295.76 344.219 C 3297.1 347.398 3298.96 350.102 3301.34 352.309 C 3303.72 354.52 3306.57 356.309 3309.9 357.68 C 3313.22 359.051 3316.89 360.109 3320.89 360.871 C 3324.88 361.621 3329.12 362.141 3333.59 362.422 C 3338.07 362.699 3342.68 362.84 3347.44 362.84 " fill="#005096"/>
<path transform="matrix(.1,0,0,-.1,0,201.26)" d="M 3649.02 246.898 L 3649.02 379.199 L 3627.63 379.199 L 3627.63 244.719 C 3627.63 237.172 3626.73 230.602 3624.94 225.012 C 3623.15 219.422 3620.3 214.77 3616.39 211.082 C 3612.47 207.391 3607.4 204.648 3601.16 202.859 C 3594.92 201.07 3587.36 200.18 3578.47 200.18 C 3569.63 200.18 3562.11 201.07 3555.9 202.859 C 3549.69 204.648 3544.62 207.391 3540.67 211.082 C 3536.73 214.77 3533.85 219.422 3532.03 225.012 C 3530.22 230.602 3529.31 237.172 3529.31 244.719 L 3529.31 379.199 L 3508 379.199 L 3508 246.898 C 3508 238.289 3508.75 230.699 3510.26 224.129 C 3511.77 217.559 3513.96 211.852 3516.81 207.012 C 3519.66 202.18 3523.16 198.148 3527.29 194.93 C 3531.43 191.719 3536.1 189.129 3541.3 187.172 C 3546.51 185.219 3552.22 183.82 3558.46 182.98 C 3564.7 182.141 3571.36 181.719 3578.47 181.719 C 3589.15 181.719 3598.82 182.699 3607.49 184.66 C 3616.16 186.609 3623.57 190.039 3629.72 194.93 C 3635.88 199.832 3640.63 206.48 3643.99 214.898 C 3647.34 223.32 3649.02 233.98 3649.02 246.898 " fill="#005096"/>
<path transform="matrix(.1,0,0,-.1,0,201.26)" d="M 3824.94 212.172 L 3728.63 367.199 C 3725.72 371.898 3722.77 375.41 3719.78 377.73 C 3716.79 380.051 3713.39 381.211 3709.59 381.211 C 3707.63 381.211 3705.84 380.922 3704.22 380.328 C 3702.6 379.738 3701.2 378.828 3700.02 377.602 C 3698.85 376.371 3697.94 374.781 3697.3 372.82 C 3696.66 370.871 3696.33 368.539 3696.33 365.859 L 3696.33 183.73 L 3716.13 183.73 L 3716.13 350.93 L 3812.35 195.809 C 3815.32 191.059 3818.25 187.52 3821.16 185.199 C 3824.07 182.879 3827.51 181.719 3831.48 181.719 C 3833.44 181.719 3835.23 182.012 3836.85 182.602 C 3838.47 183.191 3839.87 184.109 3841.04 185.371 C 3842.22 186.629 3843.13 188.219 3843.77 190.148 C 3844.41 192.078 3844.74 194.391 3844.74 197.07 L 3844.74 379.199 L 3824.94 379.199 L 3824.94 212.172 " fill="#005096"/>
<path transform="matrix(.1,0,0,-.1,0,201.26)" d="M 4185.33 361.672 L 4185.33 378.531 C 4181.3 378.699 4177.12 378.852 4172.78 378.988 C 4168.45 379.129 4164.16 379.25 4159.91 379.371 C 4155.66 379.48 4151.59 379.559 4147.7 379.621 C 4143.81 379.672 4140.3 379.699 4137.17 379.699 C 4131.64 379.699 4126.21 379.59 4120.9 379.371 C 4115.58 379.148 4110.55 378.59 4105.8 377.691 C 4101.04 376.801 4096.65 375.441 4092.63 373.621 C 4088.6 371.801 4085.13 369.289 4082.22 366.07 C 4079.32 362.852 4077.04 358.828 4075.39 353.988 C 4073.74 349.148 4072.91 343.289 4072.91 336.41 L 4072.91 226.352 C 4072.91 219.422 4073.74 213.539 4075.39 208.73 C 4077.04 203.922 4079.32 199.922 4082.22 196.738 C 4085.13 193.551 4088.6 191.051 4092.63 189.23 C 4096.65 187.41 4101.04 186.07 4105.8 185.199 C 4110.55 184.34 4115.6 183.789 4120.94 183.57 C 4126.28 183.34 4131.69 183.23 4137.17 183.23 C 4140.92 183.23 4144.81 183.238 4148.83 183.27 C 4152.86 183.301 4156.93 183.359 4161.04 183.441 C 4165.15 183.52 4169.26 183.621 4173.37 183.73 C 4177.48 183.852 4181.47 183.988 4185.33 184.148 L 4185.33 201.27 L 4136.33 201.27 C 4130.35 201.27 4125.15 201.48 4120.73 201.898 C 4116.31 202.32 4112.56 203.039 4109.49 204.078 C 4106.41 205.109 4103.9 206.512 4101.94 208.27 C 4099.98 210.031 4098.44 212.301 4097.32 215.07 C 4096.21 217.84 4095.45 221.141 4095.06 224.969 C 4094.67 228.801 4094.47 233.289 4094.47 238.43 L 4094.47 274.5 L 4181.3 274.5 L 4181.3 292.039 L 4094.47 292.039 L 4094.47 324.25 C 4094.47 329.398 4094.67 333.898 4095.06 337.762 C 4095.45 341.621 4096.21 344.93 4097.32 347.699 C 4098.44 350.469 4099.98 352.762 4101.94 354.578 C 4103.9 356.391 4106.41 357.82 4109.49 358.859 C 4112.56 359.891 4116.31 360.621 4120.73 361.039 C 4125.15 361.461 4130.35 361.672 4136.33 361.672 L 4185.33 361.672 " fill="#005096"/>
<path transform="matrix(.1,0,0,-.1,0,201.26)" d="M 4360.07 323.238 C 4360.07 331.578 4359.16 338.809 4357.34 344.93 C 4355.52 351.051 4352.95 356.27 4349.62 360.57 C 4346.3 364.879 4342.31 368.379 4337.67 371.059 C 4333.03 373.75 4327.88 375.84 4322.23 377.352 C 4316.58 378.859 4310.54 379.879 4304.11 380.422 C 4297.68 380.949 4291 381.211 4284.06 381.211 C 4273.55 381.211 4263.15 380.809 4252.86 380 C 4242.57 379.191 4233.09 378.051 4224.42 376.602 L 4224.42 183.73 L 4245.89 183.73 L 4245.89 265.281 C 4248.3 265.16 4251.26 265.02 4254.79 264.859 C 4258.31 264.691 4261.96 264.531 4265.73 264.391 C 4269.51 264.25 4273.21 264.141 4276.85 264.059 C 4280.48 263.98 4283.64 263.93 4286.33 263.93 L 4289.35 263.93 L 4334.73 183.73 L 4359.9 183.73 L 4312 265.699 C 4319.27 266.871 4325.85 268.73 4331.75 271.27 C 4337.65 273.82 4342.7 277.359 4346.9 281.891 C 4351.09 286.422 4354.34 292.059 4356.63 298.828 C 4358.92 305.602 4360.07 313.738 4360.07 323.238 Z M 4338.59 323.238 C 4338.59 314.969 4337.38 308.141 4334.94 302.77 C 4332.51 297.41 4328.97 293.16 4324.33 290.02 C 4319.69 286.891 4313.98 284.711 4307.22 283.48 C 4300.45 282.25 4292.73 281.629 4284.06 281.629 C 4281.21 281.629 4278.36 281.648 4275.51 281.68 C 4272.65 281.699 4269.69 281.77 4266.61 281.891 C 4263.54 282 4260.29 282.172 4256.88 282.391 C 4253.47 282.609 4249.81 282.949 4245.89 283.398 L 4245.89 361.082 C 4252.94 362.031 4259.85 362.699 4266.61 363.09 C 4273.38 363.48 4279.53 363.68 4285.07 363.68 C 4294.86 363.68 4303.15 362.941 4309.94 361.461 C 4316.74 359.98 4322.26 357.609 4326.51 354.371 C 4330.76 351.121 4333.84 346.941 4335.74 341.828 C 4337.64 336.711 4338.59 330.512 4338.59 323.238 " fill="#005096"/>
<path transform="matrix(.1,0,0,-.1,0,201.26)" d="M 4469.96 362.84 C 4476.56 362.84 4483.2 362.5 4489.88 361.828 C 4496.57 361.16 4502.9 360.379 4508.88 359.48 L 4510.81 376.77 C 4507.35 377.379 4503.64 377.949 4499.7 378.488 C 4495.76 379.02 4491.67 379.488 4487.45 379.91 C 4483.23 380.328 4478.92 380.648 4474.53 380.879 C 4470.14 381.102 4465.76 381.211 4461.4 381.211 C 4450.72 381.211 4441.23 380.34 4432.92 378.609 C 4424.62 376.879 4417.64 373.969 4411.99 369.891 C 4406.34 365.801 4402.05 360.43 4399.11 353.781 C 4396.18 347.121 4394.71 338.898 4394.71 329.121 C 4394.71 320.391 4395.95 313.129 4398.44 307.352 C 4400.93 301.559 4404.54 296.691 4409.26 292.75 C 4413.99 288.809 4419.76 285.461 4426.59 282.719 C 4433.41 279.98 4441.16 277.332 4449.83 274.75 C 4456.48 272.738 4462.48 270.711 4467.82 268.672 C 4473.16 266.629 4477.7 264.18 4481.45 261.328 C 4485.2 258.48 4488.08 255.031 4490.09 250.969 C 4492.11 246.922 4493.11 241.84 4493.11 235.75 C 4493.11 228.48 4491.94 222.531 4489.59 217.922 C 4487.24 213.309 4483.94 209.699 4479.69 207.102 C 4475.44 204.5 4470.39 202.711 4464.55 201.73 C 4458.7 200.75 4452.29 200.262 4445.3 200.262 C 4441.72 200.262 4437.98 200.34 4434.1 200.512 C 4430.21 200.68 4426.25 200.93 4422.23 201.27 C 4418.2 201.602 4414.16 201.988 4410.1 202.441 C 4406.05 202.891 4402.09 203.391 4398.23 203.949 L 4396.14 186.328 C 4399.94 185.551 4403.71 184.879 4407.46 184.32 C 4411.21 183.762 4415.07 183.289 4419.04 182.891 C 4423.01 182.5 4427.22 182.211 4431.66 182.012 C 4436.11 181.82 4440.93 181.719 4446.13 181.719 C 4457.26 181.719 4467.13 182.699 4475.75 184.66 C 4484.36 186.609 4491.62 189.77 4497.52 194.141 C 4503.42 198.5 4507.89 204.18 4510.94 211.172 C 4513.99 218.16 4515.51 226.691 4515.51 236.75 C 4515.51 245.371 4514.17 252.719 4511.48 258.82 C 4508.8 264.91 4505.05 270.109 4500.24 274.422 C 4495.43 278.73 4489.7 282.332 4483.05 285.238 C 4476.39 288.148 4469.09 290.75 4461.15 293.039 C 4452.71 295.449 4445.62 297.672 4439.88 299.711 C 4434.15 301.75 4429.54 304.16 4426.04 306.93 C 4422.55 309.699 4420.04 313.109 4418.53 317.16 C 4417.02 321.219 4416.27 326.461 4416.27 332.891 C 4416.27 337.25 4416.94 341.031 4418.28 344.219 C 4419.62 347.398 4421.48 350.102 4423.86 352.309 C 4426.24 354.52 4429.09 356.309 4432.42 357.68 C 4435.75 359.051 4439.41 360.109 4443.41 360.871 C 4447.41 361.621 4451.64 362.141 4456.12 362.422 C 4460.59 362.699 4465.2 362.84 4469.96 362.84 " fill="#005096"/>
<path transform="matrix(.1,0,0,-.1,0,201.26)" d="M 4670.2 361.41 L 4670.2 379.199 L 4541.68 379.199 L 4541.68 361.41 L 4595.2 361.41 L 4595.2 183.73 L 4616.76 183.73 L 4616.76 361.41 L 4670.2 361.41 " fill="#005096"/>
<path transform="matrix(.1,0,0,-.1,0,201.26)" d="M 4837.9 183.73 L 4771.12 366.531 C 4767.54 376.32 4761.78 381.211 4753.84 381.211 C 4746.01 381.211 4740.31 376.32 4736.73 366.531 L 4669.03 183.73 L 4691.09 183.73 L 4711.22 239.941 L 4794.78 239.941 L 4814.91 183.73 L 4837.9 183.73 Z M 4788.66 257.141 L 4717.43 257.141 L 4753.09 356.461 L 4788.66 257.141 Z " fill="#005096"/>
<path transform="matrix(.1,0,0,-.1,0,201.26)" d="M 4998.13 212.172 L 4901.83 367.199 C 4898.92 371.898 4895.97 375.41 4892.98 377.73 C 4889.98 380.051 4886.59 381.211 4882.78 381.211 C 4880.83 381.211 4879.04 380.922 4877.41 380.328 C 4875.79 379.738 4874.39 378.828 4873.22 377.602 C 4872.04 376.371 4871.14 374.781 4870.49 372.82 C 4869.85 370.871 4869.53 368.539 4869.53 365.859 L 4869.53 183.73 L 4889.33 183.73 L 4889.33 350.93 L 4985.55 195.809 C 4988.51 191.059 4991.45 187.52 4994.36 185.199 C 4997.27 182.879 5000.7 181.719 5004.68 181.719 C 5006.63 181.719 5008.42 182.012 5010.04 182.602 C 5011.67 183.191 5013.06 184.109 5014.24 185.371 C 5015.41 186.629 5016.32 188.219 5016.97 190.148 C 5017.61 192.078 5017.93 194.391 5017.93 197.07 L 5017.93 379.199 L 4998.13 379.199 L 4998.13 212.172 " fill="#005096"/>
<path transform="matrix(.1,0,0,-.1,0,201.26)" d="M 5209.7 281.469 C 5209.7 292.539 5209.28 302.691 5208.44 311.922 C 5207.61 321.148 5206.04 329.449 5203.75 336.828 C 5201.46 344.219 5198.32 350.691 5194.35 356.25 C 5190.38 361.82 5185.25 366.449 5178.96 370.141 C 5172.67 373.828 5165.09 376.602 5156.22 378.441 C 5147.36 380.289 5136.91 381.211 5124.89 381.211 C 5114.49 381.211 5104.16 380.82 5093.89 380.039 C 5083.63 379.25 5074.16 378.16 5065.5 376.77 L 5065.5 186.34 C 5074.16 184.879 5083.63 183.75 5093.89 182.941 C 5104.16 182.129 5114.49 181.719 5124.89 181.719 C 5136.91 181.719 5147.36 182.641 5156.22 184.488 C 5165.09 186.34 5172.67 189.102 5178.96 192.789 C 5185.25 196.488 5190.38 201.109 5194.35 206.68 C 5198.32 212.238 5201.45 218.719 5203.75 226.102 C 5206.04 233.48 5207.61 241.789 5208.44 251.012 C 5209.28 260.238 5209.7 270.391 5209.7 281.469 Z M 5188.06 281.469 C 5188.06 273.75 5187.95 266.371 5187.72 259.32 C 5187.5 252.27 5186.73 245.719 5185.42 239.648 C 5184.1 233.582 5182.06 228.102 5179.29 223.199 C 5176.53 218.309 5172.58 214.121 5167.46 210.621 C 5162.35 207.129 5155.86 204.441 5148 202.57 C 5140.14 200.691 5130.51 199.762 5119.1 199.762 C 5116.64 199.762 5114.05 199.832 5111.34 199.969 C 5108.63 200.109 5105.89 200.289 5103.12 200.512 C 5100.35 200.738 5097.6 201 5094.86 201.309 C 5092.12 201.621 5089.49 201.941 5086.97 202.27 L 5086.97 360.738 C 5089.49 361.082 5092.12 361.391 5094.86 361.672 C 5097.6 361.949 5100.35 362.199 5103.12 362.422 C 5105.89 362.641 5108.63 362.828 5111.34 362.969 C 5114.05 363.109 5116.64 363.18 5119.1 363.18 C 5130.51 363.18 5140.14 362.238 5148 360.371 C 5155.86 358.488 5162.35 355.809 5167.46 352.309 C 5172.58 348.82 5176.53 344.621 5179.29 339.73 C 5182.06 334.832 5184.1 329.352 5185.42 323.289 C 5186.73 317.219 5187.5 310.66 5187.72 303.609 C 5187.95 296.57 5188.06 289.18 5188.06 281.469 " fill="#005096"/>
<path transform="matrix(.1,0,0,-.1,0,201.26)" d="M 4033.87 281.469 C 4033.87 292.539 4033.45 302.691 4032.61 311.922 C 4031.77 321.148 4030.21 329.449 4027.91 336.828 C 4025.62 344.219 4022.49 350.691 4018.52 356.25 C 4014.55 361.82 4009.41 366.449 4003.12 370.141 C 3996.83 373.828 3989.25 376.602 3980.39 378.441 C 3971.52 380.289 3961.08 381.211 3949.06 381.211 C 3938.65 381.211 3928.32 380.82 3918.06 380.039 C 3907.8 379.25 3898.33 378.16 3889.66 376.77 L 3889.66 186.34 C 3898.33 184.879 3907.8 183.75 3918.06 182.941 C 3928.32 182.129 3938.65 181.719 3949.06 181.719 C 3961.08 181.719 3971.52 182.641 3980.39 184.488 C 3989.25 186.34 3996.83 189.102 4003.12 192.789 C 4009.41 196.488 4014.55 201.109 4018.52 206.68 C 4022.49 212.238 4025.62 218.719 4027.91 226.102 C 4030.21 233.48 4031.77 241.789 4032.61 251.012 C 4033.45 260.238 4033.87 270.391 4033.87 281.469 Z M 4012.22 281.469 C 4012.22 273.75 4012.11 266.371 4011.89 259.32 C 4011.67 252.27 4010.9 245.719 4009.58 239.648 C 4008.27 233.582 4006.23 228.102 4003.46 223.199 C 4000.69 218.309 3996.75 214.121 3991.63 210.621 C 3986.51 207.129 3980.03 204.441 3972.17 202.57 C 3964.31 200.691 3954.68 199.762 3943.27 199.762 C 3940.81 199.762 3938.22 199.832 3935.51 199.969 C 3932.79 200.109 3930.05 200.289 3927.29 200.512 C 3924.52 200.738 3921.76 201 3919.02 201.309 C 3916.28 201.621 3913.65 201.941 3911.14 202.27 L 3911.14 360.738 C 3913.65 361.082 3916.28 361.391 3919.02 361.672 C 3921.76 361.949 3924.52 362.199 3927.29 362.422 C 3930.05 362.641 3932.79 362.828 3935.51 362.969 C 3938.22 363.109 3940.81 363.18 3943.27 363.18 C 3954.68 363.18 3964.31 362.238 3972.17 360.371 C 3980.03 358.488 3986.51 355.809 3991.63 352.309 C 3996.75 348.82 4000.69 344.621 4003.46 339.73 C 4006.23 334.832 4008.27 329.352 4009.58 323.289 C 4010.89 317.219 4011.66 310.66 4011.89 303.609 C 4012.11 296.57 4012.22 289.18 4012.22 281.469 " fill="#005096"/>
<path transform="matrix(.1,0,0,-.1,0,201.26)" d="M 5252.99 379.199 L 5252.99 183.73 L 5274.55 183.73 L 5274.55 379.199 L 5252.99 379.199 " fill="#005096"/>
<path transform="matrix(.1,0,0,-.1,0,201.26)" d="M 5450.8 212.172 L 5354.5 367.199 C 5351.59 371.898 5348.64 375.41 5345.65 377.73 C 5342.65 380.051 5339.26 381.211 5335.45 381.211 C 5333.5 381.211 5331.71 380.922 5330.08 380.328 C 5328.46 379.738 5327.06 378.828 5325.89 377.602 C 5324.72 376.371 5323.81 374.781 5323.16 372.82 C 5322.52 370.871 5322.2 368.539 5322.2 365.859 L 5322.2 183.73 L 5342 183.73 L 5342 350.93 L 5438.22 195.809 C 5441.18 191.059 5444.12 187.52 5447.03 185.199 C 5449.94 182.879 5453.38 181.719 5457.35 181.719 C 5459.3 181.719 5461.09 182.012 5462.72 182.602 C 5464.34 183.191 5465.74 184.109 5466.91 185.371 C 5468.08 186.629 5468.99 188.219 5469.64 190.148 C 5470.28 192.078 5470.6 194.391 5470.6 197.07 L 5470.6 379.199 L 5450.8 379.199 L 5450.8 212.172 " fill="#005096"/>
<path transform="matrix(.1,0,0,-.1,0,201.26)" d="M 5597.95 286.25 L 5597.95 268.879 L 5633.52 268.879 L 5633.52 224.09 C 5633.52 221.68 5633.43 219.43 5633.26 217.332 C 5633.1 215.23 5632.65 213.309 5631.92 211.539 C 5631.2 209.781 5630.12 208.191 5628.69 206.762 C 5627.27 205.34 5625.31 204.129 5622.82 203.148 C 5620.33 202.18 5617.23 201.422 5613.51 200.891 C 5609.79 200.359 5605.27 200.09 5599.96 200.09 C 5590.01 200.09 5581.49 200.891 5574.42 202.48 C 5567.34 204.078 5561.4 206.441 5556.59 209.57 C 5551.78 212.699 5547.96 216.559 5545.14 221.148 C 5542.31 225.73 5540.16 231.051 5538.68 237.09 C 5537.2 243.129 5536.23 249.852 5535.78 257.262 C 5535.34 264.672 5535.11 272.738 5535.11 281.469 C 5535.11 290.25 5535.32 298.371 5535.74 305.84 C 5536.16 313.301 5537.11 320.039 5538.59 326.051 C 5540.08 332.07 5542.23 337.359 5545.05 341.949 C 5547.88 346.539 5551.7 350.371 5556.51 353.441 C 5561.31 356.52 5567.26 358.84 5574.33 360.41 C 5581.41 361.969 5589.95 362.762 5599.96 362.762 C 5603.37 362.762 5607.02 362.691 5610.91 362.551 C 5614.79 362.41 5618.77 362.199 5622.82 361.922 C 5626.88 361.641 5630.96 361.289 5635.07 360.871 C 5639.18 360.449 5643.16 359.988 5647.02 359.48 L 5648.95 376.77 C 5640.23 378.328 5631.04 379.461 5621.39 380.16 C 5611.75 380.859 5601.81 381.211 5591.57 381.211 C 5581.06 381.211 5571.83 380.371 5563.89 378.699 C 5555.95 377.02 5549.07 374.43 5543.25 370.941 C 5537.43 367.441 5532.6 363.012 5528.74 357.641 C 5524.88 352.27 5521.79 345.891 5519.47 338.512 C 5517.15 331.129 5515.51 322.699 5514.56 313.219 C 5513.61 303.738 5513.13 293.148 5513.13 281.469 C 5513.13 269.891 5513.61 259.391 5514.56 249.969 C 5515.51 240.539 5517.15 232.141 5519.47 224.762 C 5521.79 217.371 5524.88 210.98 5528.74 205.59 C 5532.6 200.191 5537.43 195.719 5543.25 192.16 C 5549.07 188.609 5555.96 185.98 5563.93 184.281 C 5571.9 182.57 5581.11 181.719 5591.57 181.719 C 5597.61 181.719 5603.39 181.82 5608.89 182.012 C 5614.4 182.211 5619.49 182.66 5624.16 183.359 C 5628.83 184.059 5633.06 185.102 5636.83 186.5 C 5640.61 187.898 5643.83 189.801 5646.52 192.211 C 5649.2 194.609 5651.26 197.602 5652.69 201.18 C 5654.11 204.762 5654.82 209.07 5654.82 214.102 L 5654.82 286.25 L 5597.95 286.25 " fill="#005096"/>
<path transform="matrix(.1,0,0,-.1,0,201.26)" d="M 2397.48 573.309 L 2395.55 590.262 C 2389.91 589.422 2384.23 588.711 2378.52 588.121 C 2372.82 587.531 2367.09 587.238 2361.33 587.238 C 2351.48 587.238 2343.05 588.02 2336.03 589.59 C 2329.01 591.148 2323.1 593.488 2318.29 596.59 C 2313.48 599.699 2309.64 603.539 2306.76 608.129 C 2303.88 612.711 2301.68 618.031 2300.17 624.07 C 2298.66 630.109 2297.67 636.852 2297.19 644.289 C 2296.72 651.719 2296.48 659.832 2296.48 668.609 C 2296.48 677.391 2296.69 685.488 2297.11 692.898 C 2297.53 700.309 2298.48 707.039 2299.96 713.078 C 2301.44 719.121 2303.6 724.43 2306.42 729.012 C 2309.24 733.602 2313.06 737.449 2317.87 740.551 C 2322.68 743.648 2328.62 746 2335.7 747.602 C 2342.77 749.191 2351.32 749.988 2361.33 749.988 C 2367.03 749.988 2372.81 749.672 2378.65 749.02 C 2384.49 748.379 2390.1 747.672 2395.47 746.879 L 2397.48 764.078 C 2391.28 765.359 2384.42 766.398 2376.93 767.18 C 2369.44 767.969 2361.44 768.359 2352.94 768.359 C 2342.42 768.359 2333.18 767.512 2325.21 765.801 C 2317.24 764.09 2310.35 761.48 2304.53 757.961 C 2298.72 754.43 2293.89 749.961 2290.06 744.531 C 2286.23 739.109 2283.15 732.711 2280.83 725.32 C 2278.51 717.941 2276.88 709.539 2275.93 700.109 C 2274.98 690.691 2274.5 680.191 2274.5 668.609 C 2274.5 657.039 2274.98 646.539 2275.93 637.109 C 2276.88 627.691 2278.5 619.289 2280.79 611.898 C 2283.08 604.52 2286.16 598.129 2290.02 592.73 C 2293.88 587.34 2298.72 582.859 2304.53 579.309 C 2310.35 575.762 2317.24 573.129 2325.21 571.43 C 2333.18 569.719 2342.42 568.871 2352.94 568.871 C 2361.55 568.871 2369.58 569.289 2377.01 570.129 C 2384.45 570.969 2391.28 572.031 2397.48 573.309 Z M 2539.51 748.809 L 2539.51 765.672 C 2535.48 765.84 2531.3 766 2526.97 766.141 C 2522.63 766.281 2518.34 766.398 2514.09 766.512 C 2509.84 766.629 2505.77 766.711 2501.89 766.77 C 2498 766.82 2494.49 766.852 2491.36 766.852 C 2485.82 766.852 2480.4 766.738 2475.08 766.512 C 2469.77 766.301 2464.74 765.738 2459.98 764.84 C 2455.23 763.941 2450.84 762.59 2446.81 760.77 C 2442.78 758.949 2439.32 756.43 2436.41 753.219 C 2433.5 750 2431.22 745.969 2429.57 741.141 C 2427.92 736.301 2427.1 730.441 2427.1 723.559 L 2427.1 613.5 C 2427.1 606.559 2427.92 600.691 2429.57 595.879 C 2431.22 591.07 2433.5 587.07 2436.41 583.879 C 2439.32 580.699 2442.78 578.191 2446.81 576.379 C 2450.84 574.559 2455.23 573.219 2459.98 572.352 C 2464.74 571.48 2469.78 570.941 2475.12 570.711 C 2480.47 570.488 2485.88 570.379 2491.36 570.379 C 2495.1 570.379 2498.99 570.391 2503.02 570.422 C 2507.04 570.449 2511.11 570.5 2515.22 570.59 C 2519.33 570.672 2523.45 570.77 2527.56 570.879 C 2531.67 570.988 2535.65 571.129 2539.51 571.301 L 2539.51 588.41 L 2490.52 588.41 C 2484.53 588.41 2479.33 588.621 2474.92 589.039 C 2470.5 589.461 2466.75 590.191 2463.67 591.219 C 2460.6 592.262 2458.08 593.66 2456.12 595.422 C 2454.17 597.18 2452.63 599.449 2451.51 602.211 C 2450.39 604.98 2449.64 608.281 2449.24 612.109 C 2448.85 615.941 2448.66 620.43 2448.66 625.578 L 2448.66 661.648 L 2535.48 661.648 L 2535.48 679.18 L 2448.66 679.18 L 2448.66 711.398 C 2448.66 716.539 2448.85 721.051 2449.24 724.898 C 2449.64 728.762 2450.39 732.078 2451.51 734.852 C 2452.63 737.609 2454.17 739.91 2456.12 741.719 C 2458.08 743.539 2460.6 744.969 2463.67 746 C 2466.75 747.039 2470.5 747.762 2474.92 748.18 C 2479.33 748.602 2484.53 748.809 2490.52 748.809 L 2539.51 748.809 Z M 2707.63 599.32 L 2611.32 754.352 C 2608.41 759.051 2605.46 762.559 2602.47 764.879 C 2599.48 767.199 2596.08 768.359 2592.28 768.359 C 2590.32 768.359 2588.53 768.07 2586.91 767.48 C 2585.29 766.891 2583.89 765.98 2582.71 764.75 C 2581.54 763.52 2580.63 761.93 2579.99 759.969 C 2579.34 758.012 2579.02 755.691 2579.02 753.012 L 2579.02 570.879 L 2598.82 570.879 L 2598.82 738.07 L 2695.04 582.961 C 2698.01 578.211 2700.94 574.672 2703.85 572.352 C 2706.76 570.031 2710.2 568.871 2714.17 568.871 C 2716.13 568.871 2717.92 569.16 2719.54 569.75 C 2721.16 570.34 2722.56 571.262 2723.73 572.52 C 2724.91 573.781 2725.82 575.371 2726.46 577.301 C 2727.1 579.23 2727.42 581.539 2727.42 584.219 L 2727.42 766.352 L 2707.63 766.352 L 2707.63 599.32 Z M 2890.34 748.559 L 2890.34 766.352 L 2761.82 766.352 L 2761.82 748.559 L 2815.34 748.559 L 2815.34 570.879 L 2836.9 570.879 L 2836.9 748.559 L 2890.34 748.559 Z M 3033.7 748.809 L 3033.7 765.672 C 3029.68 765.84 3025.5 766 3021.16 766.141 C 3016.83 766.281 3012.53 766.398 3008.28 766.512 C 3004.03 766.629 2999.96 766.711 2996.08 766.77 C 2992.19 766.82 2988.68 766.852 2985.55 766.852 C 2980.01 766.852 2974.59 766.738 2969.27 766.512 C 2963.96 766.301 2958.93 765.738 2954.17 764.84 C 2949.42 763.941 2945.03 762.59 2941 760.77 C 2936.98 758.949 2933.51 756.43 2930.6 753.219 C 2927.69 750 2925.41 745.969 2923.76 741.141 C 2922.11 736.301 2921.29 730.441 2921.29 723.559 L 2921.29 613.5 C 2921.29 606.559 2922.11 600.691 2923.76 595.879 C 2925.41 591.07 2927.69 587.07 2930.6 583.879 C 2933.51 580.699 2936.98 578.191 2941 576.379 C 2945.03 574.559 2949.42 573.219 2954.17 572.352 C 2958.93 571.48 2963.98 570.941 2969.32 570.711 C 2974.66 570.488 2980.07 570.379 2985.55 570.379 C 2989.3 570.379 2993.18 570.391 2997.21 570.422 C 3001.24 570.449 3005.31 570.5 3009.42 570.59 C 3013.53 570.672 3017.64 570.77 3021.75 570.879 C 3025.86 570.988 3029.84 571.129 3033.7 571.301 L 3033.7 588.41 L 2984.71 588.41 C 2978.73 588.41 2973.53 588.621 2969.11 589.039 C 2964.69 589.461 2960.94 590.191 2957.87 591.219 C 2954.79 592.262 2952.27 593.66 2950.32 595.422 C 2948.36 597.18 2946.82 599.449 2945.7 602.211 C 2944.58 604.98 2943.83 608.281 2943.44 612.109 C 2943.05 615.941 2942.85 620.43 2942.85 625.578 L 2942.85 661.648 L 3029.68 661.648 L 3029.68 679.18 L 2942.85 679.18 L 2942.85 711.398 C 2942.85 716.539 2943.05 721.051 2943.44 724.898 C 2943.83 728.762 2944.58 732.078 2945.7 734.852 C 2946.82 737.609 2948.36 739.91 2950.32 741.719 C 2952.27 743.539 2954.79 744.969 2957.87 746 C 2960.94 747.039 2964.69 747.762 2969.11 748.18 C 2973.53 748.602 2978.73 748.809 2984.71 748.809 L 3033.7 748.809 Z M 3072.79 570.879 L 3094.27 570.879 L 3094.27 652.422 C 3096.67 652.309 3099.64 652.172 3103.16 652 C 3106.69 651.84 3110.34 651.68 3114.11 651.539 C 3117.89 651.398 3121.59 651.289 3125.23 651.211 C 3128.86 651.121 3132.02 651.082 3134.71 651.082 L 3137.73 651.082 L 3183.11 570.879 L 3208.28 570.879 L 3160.38 652.84 C 3167.65 654.02 3174.23 655.879 3180.13 658.422 C 3186.03 660.969 3191.08 664.5 3195.27 669.031 C 3199.47 673.559 3202.71 679.211 3205.01 685.98 C 3207.3 692.75 3208.44 700.879 3208.44 710.391 C 3208.44 718.719 3207.54 725.949 3205.72 732.078 C 3203.9 738.199 3201.33 743.422 3198 747.719 C 3194.67 752.031 3190.69 755.52 3186.05 758.211 C 3181.4 760.891 3176.26 762.988 3170.61 764.5 C 3164.96 766.012 3158.92 767.031 3152.49 767.559 C 3146.06 768.09 3139.38 768.359 3132.44 768.359 C 3121.93 768.359 3111.52 767.949 3101.23 767.141 C 3090.94 766.328 3081.46 765.199 3072.79 763.75 L 3072.79 570.879 Z M 3094.27 670.539 L 3094.27 748.23 C 3101.32 749.18 3108.22 749.852 3114.99 750.238 C 3121.76 750.629 3127.91 750.828 3133.45 750.828 C 3143.23 750.828 3151.53 750.09 3158.32 748.602 C 3165.12 747.121 3170.64 744.762 3174.89 741.512 C 3179.14 738.27 3182.21 734.09 3184.12 728.969 C 3186.02 723.859 3186.97 717.66 3186.97 710.391 C 3186.97 702.109 3185.75 695.289 3183.32 689.922 C 3180.89 684.551 3177.35 680.301 3172.71 677.172 C 3168.07 674.039 3162.36 671.859 3155.59 670.629 C 3148.83 669.398 3141.11 668.781 3132.44 668.781 C 3129.59 668.781 3126.74 668.801 3123.88 668.82 C 3121.03 668.852 3118.07 668.922 3114.99 669.031 C 3111.91 669.148 3108.67 669.309 3105.26 669.539 C 3101.85 669.762 3098.19 670.102 3094.27 670.539 Z M 3327.56 570.879 L 3349.04 570.879 L 3349.04 661.648 L 3435.87 661.648 L 3435.87 679.18 L 3349.04 679.18 L 3349.04 711.398 C 3349.04 716.539 3349.24 721.051 3349.63 724.898 C 3350.02 728.762 3350.77 732.078 3351.89 734.852 C 3353.01 737.609 3354.55 739.91 3356.51 741.719 C 3358.46 743.539 3360.99 744.969 3364.1 746 C 3367.2 747.039 3370.96 747.762 3375.38 748.18 C 3379.8 748.602 3385 748.809 3390.99 748.809 L 3439.89 748.809 L 3439.89 765.672 C 3435.92 765.898 3431.76 766.09 3427.39 766.262 C 3423.03 766.43 3418.74 766.559 3414.52 766.641 C 3410.29 766.719 3406.23 766.781 3402.31 766.809 C 3398.4 766.84 3394.9 766.852 3391.82 766.852 C 3386.29 766.852 3380.86 766.738 3375.55 766.512 C 3370.24 766.301 3365.2 765.738 3360.45 764.84 C 3355.7 763.941 3351.31 762.59 3347.28 760.77 C 3343.25 758.949 3339.78 756.43 3336.88 753.219 C 3333.97 750 3331.69 745.969 3330.04 741.141 C 3328.39 736.301 3327.56 730.441 3327.56 723.559 L 3327.56 570.879 Z M 3547.27 568.871 C 3557.11 568.871 3565.81 569.691 3573.36 571.34 C 3580.91 572.988 3587.48 575.539 3593.07 578.98 C 3598.67 582.422 3603.36 586.82 3607.17 592.191 C 3610.97 597.559 3614.03 603.93 3616.35 611.32 C 3618.67 618.699 3620.34 627.141 3621.34 636.648 C 3622.35 646.16 3622.85 656.809 3622.85 668.609 C 3622.85 680.41 3622.35 691.07 3621.34 700.578 C 3620.34 710.078 3618.67 718.531 3616.35 725.91 C 3614.03 733.289 3610.97 739.672 3607.17 745.039 C 3603.36 750.41 3598.67 754.809 3593.07 758.25 C 3587.48 761.691 3580.91 764.23 3573.36 765.879 C 3565.81 767.531 3557.11 768.359 3547.27 768.359 C 3537.43 768.359 3528.73 767.531 3521.18 765.879 C 3513.63 764.23 3507.04 761.691 3501.42 758.25 C 3495.8 754.809 3491.09 750.41 3487.29 745.039 C 3483.48 739.672 3480.42 733.289 3478.1 725.91 C 3475.78 718.531 3474.12 710.078 3473.11 700.578 C 3472.1 691.07 3471.6 680.41 3471.6 668.609 C 3471.6 656.809 3472.1 646.16 3473.11 636.648 C 3474.12 627.141 3475.78 618.699 3478.1 611.32 C 3480.42 603.93 3483.48 597.559 3487.29 592.191 C 3491.09 586.82 3495.8 582.422 3501.42 578.98 C 3507.04 575.539 3513.63 572.988 3521.18 571.34 C 3528.73 569.691 3537.43 568.871 3547.27 568.871 Z M 3547.27 587.07 C 3538.6 587.07 3531.26 587.98 3525.25 589.801 C 3519.24 591.621 3514.24 594.219 3510.27 597.602 C 3506.3 600.98 3503.2 605.09 3500.96 609.93 C 3498.72 614.77 3497.05 620.211 3495.93 626.25 C 3494.81 632.289 3494.13 638.871 3493.87 646.012 C 3493.62 653.141 3493.5 660.672 3493.5 668.609 C 3493.5 676.609 3493.62 684.18 3493.87 691.309 C 3494.13 698.441 3494.81 705.02 3495.93 711.059 C 3497.05 717.102 3498.72 722.531 3500.96 727.34 C 3503.2 732.148 3506.3 736.238 3510.27 739.629 C 3514.24 743.012 3519.24 745.609 3525.25 747.43 C 3531.26 749.25 3538.6 750.16 3547.27 750.16 C 3555.88 750.16 3563.19 749.25 3569.21 747.43 C 3575.22 745.609 3580.21 743.012 3584.18 739.629 C 3588.15 736.238 3591.27 732.148 3593.54 727.34 C 3595.8 722.531 3597.49 717.102 3598.61 711.059 C 3599.73 705.02 3600.41 698.441 3600.67 691.309 C 3600.92 684.18 3601.04 676.609 3601.04 668.609 C 3601.04 660.672 3600.92 653.141 3600.67 646.012 C 3600.41 638.871 3599.73 632.289 3598.61 626.25 C 3597.49 620.211 3595.8 614.77 3593.54 609.93 C 3591.27 605.09 3588.15 600.98 3584.18 597.602 C 3580.21 594.219 3575.22 591.621 3569.21 589.801 C 3563.19 587.98 3555.88 587.07 3547.27 587.07 Z M 3665.64 570.879 L 3687.12 570.879 L 3687.12 652.422 C 3689.52 652.309 3692.48 652.172 3696.01 652 C 3699.53 651.84 3703.18 651.68 3706.96 651.539 C 3710.73 651.398 3714.44 651.289 3718.07 651.211 C 3721.71 651.121 3724.87 651.082 3727.55 651.082 L 3730.57 651.082 L 3775.96 570.879 L 3801.12 570.879 L 3753.22 652.84 C 3760.49 654.02 3767.08 655.879 3772.98 658.422 C 3778.88 660.969 3783.92 664.5 3788.12 669.031 C 3792.31 673.559 3795.56 679.211 3797.85 685.98 C 3800.14 692.75 3801.29 700.879 3801.29 710.391 C 3801.29 718.719 3800.38 725.949 3798.56 732.078 C 3796.75 738.199 3794.17 743.422 3790.85 747.719 C 3787.52 752.031 3783.53 755.52 3778.89 758.211 C 3774.25 760.891 3769.1 762.988 3763.46 764.5 C 3757.81 766.012 3751.77 767.031 3745.34 767.559 C 3738.9 768.09 3732.22 768.359 3725.29 768.359 C 3714.77 768.359 3704.37 767.949 3694.08 767.141 C 3683.79 766.328 3674.31 765.199 3665.64 763.75 L 3665.64 570.879 Z M 3687.12 670.539 L 3687.12 748.23 C 3694.16 749.18 3701.07 749.852 3707.84 750.238 C 3714.6 750.629 3720.76 750.828 3726.29 750.828 C 3736.08 750.828 3744.37 750.09 3751.17 748.602 C 3757.96 747.121 3763.48 744.762 3767.73 741.512 C 3771.98 738.27 3775.06 734.09 3776.96 728.969 C 3778.86 723.859 3779.81 717.66 3779.81 710.391 C 3779.81 702.109 3778.6 695.289 3776.16 689.922 C 3773.73 684.551 3770.19 680.301 3765.55 677.172 C 3760.91 674.039 3755.21 671.859 3748.44 670.629 C 3741.67 669.398 3733.95 668.781 3725.29 668.781 C 3722.43 668.781 3719.58 668.801 3716.73 668.82 C 3713.88 668.852 3710.91 668.922 3707.84 669.031 C 3704.76 669.148 3701.52 669.309 3698.1 669.539 C 3694.69 669.762 3691.03 670.102 3687.12 670.539 Z M 3904.89 570.879 L 3926.95 570.879 L 3947.09 627.09 L 4030.64 627.09 L 4050.78 570.879 L 4073.76 570.879 L 4006.98 753.68 C 4003.41 763.469 3997.64 768.359 3989.7 768.359 C 3981.87 768.359 3976.17 763.469 3972.59 753.68 L 3904.89 570.879 Z M 4024.52 644.289 L 3953.29 644.289 L 3988.95 743.609 L 4024.52 644.289 Z M 4158.66 750.32 C 4170.07 750.32 4179.7 749.391 4187.56 747.512 C 4195.42 745.641 4201.9 742.949 4207.02 739.461 C 4212.14 735.961 4216.08 731.77 4218.85 726.879 C 4221.62 721.98 4223.66 716.5 4224.97 710.43 C 4226.29 704.359 4227.06 697.809 4227.28 690.762 C 4227.51 683.711 4227.62 676.328 4227.62 668.609 C 4227.62 660.898 4227.51 653.512 4227.28 646.469 C 4227.06 639.422 4226.29 632.859 4224.97 626.789 C 4223.66 620.73 4221.62 615.25 4218.85 610.352 C 4216.08 605.461 4212.14 601.262 4207.02 597.77 C 4201.9 594.27 4195.42 591.59 4187.56 589.711 C 4179.7 587.84 4170.07 586.898 4158.66 586.898 C 4156.2 586.898 4153.61 586.969 4150.9 587.109 C 4148.19 587.25 4145.45 587.441 4142.68 587.66 C 4139.91 587.879 4137.16 588.148 4134.41 588.461 C 4131.67 588.762 4129.05 589.09 4126.53 589.422 L 4126.53 747.891 C 4129.05 748.23 4131.67 748.531 4134.41 748.809 C 4137.16 749.09 4139.91 749.34 4142.68 749.57 C 4145.45 749.789 4148.19 749.969 4150.9 750.109 C 4153.61 750.25 4156.2 750.32 4158.66 750.32 Z M 4105.05 763.91 L 4105.05 573.48 C 4113.72 572.031 4123.19 570.898 4133.45 570.078 C 4143.71 569.27 4154.05 568.871 4164.45 568.871 C 4176.47 568.871 4186.92 569.789 4195.78 571.641 C 4204.65 573.48 4212.22 576.25 4218.51 579.941 C 4224.81 583.629 4229.94 588.262 4233.91 593.828 C 4237.88 599.391 4241.01 605.859 4243.3 613.25 C 4245.6 620.629 4247.16 628.93 4248 638.16 C 4248.84 647.391 4249.26 657.539 4249.26 668.609 C 4249.26 679.691 4248.84 689.84 4248 699.07 C 4247.16 708.289 4245.6 716.602 4243.3 723.98 C 4241.01 731.359 4237.88 737.84 4233.91 743.398 C 4229.94 748.969 4224.81 753.59 4218.51 757.289 C 4212.22 760.98 4204.65 763.75 4195.78 765.59 C 4186.92 767.441 4176.47 768.359 4164.45 768.359 C 4154.05 768.359 4143.71 767.969 4133.45 767.18 C 4123.19 766.398 4113.72 765.309 4105.05 763.91 Z M 4368.64 583.629 L 4432.4 766.352 L 4410.42 766.352 L 4352.53 596.641 L 4295.4 766.352 L 4272.5 766.352 L 4335.84 583.629 C 4337.63 578.43 4339.87 574.672 4342.55 572.352 C 4345.23 570.031 4348.51 568.871 4352.37 568.871 C 4356.28 568.871 4359.52 570.031 4362.1 572.352 C 4364.67 574.672 4366.85 578.43 4368.64 583.629 Z M 4429.46 570.879 L 4451.53 570.879 L 4471.66 627.09 L 4555.22 627.09 L 4575.35 570.879 L 4598.33 570.879 L 4531.56 753.68 C 4527.98 763.469 4522.22 768.359 4514.28 768.359 C 4506.45 768.359 4500.74 763.469 4497.16 753.68 L 4429.46 570.879 Z M 4549.09 644.289 L 4477.87 644.289 L 4513.52 743.609 L 4549.09 644.289 Z M 4758.57 599.32 L 4662.26 754.352 C 4659.35 759.051 4656.4 762.559 4653.41 764.879 C 4650.42 767.199 4647.02 768.359 4643.22 768.359 C 4641.26 768.359 4639.47 768.07 4637.85 767.48 C 4636.23 766.891 4634.83 765.98 4633.65 764.75 C 4632.48 763.52 4631.57 761.93 4630.93 759.969 C 4630.28 758.012 4629.96 755.691 4629.96 753.012 L 4629.96 570.879 L 4649.76 570.879 L 4649.76 738.07 L 4745.98 582.961 C 4748.95 578.211 4751.88 574.672 4754.79 572.352 C 4757.7 570.031 4761.14 568.871 4765.11 568.871 C 4767.07 568.871 4768.86 569.16 4770.48 569.75 C 4772.1 570.34 4773.5 571.262 4774.67 572.52 C 4775.85 573.781 4776.76 575.371 4777.4 577.301 C 4778.04 579.23 4778.36 581.539 4778.36 584.219 L 4778.36 766.352 L 4758.57 766.352 L 4758.57 599.32 Z M 4943.46 573.309 L 4941.53 590.262 C 4935.88 589.422 4930.21 588.711 4924.5 588.121 C 4918.8 587.531 4913.07 587.238 4907.3 587.238 C 4897.46 587.238 4889.03 588.02 4882.01 589.59 C 4874.99 591.148 4869.08 593.488 4864.27 596.59 C 4859.46 599.699 4855.61 603.539 4852.73 608.129 C 4849.85 612.711 4847.66 618.031 4846.15 624.07 C 4844.64 630.109 4843.65 636.852 4843.17 644.289 C 4842.7 651.719 4842.46 659.832 4842.46 668.609 C 4842.46 677.391 4842.67 685.488 4843.09 692.898 C 4843.51 700.309 4844.46 707.039 4845.94 713.078 C 4847.42 719.121 4849.57 724.43 4852.4 729.012 C 4855.22 733.602 4859.04 737.449 4863.85 740.551 C 4868.66 743.648 4874.6 746 4881.68 747.602 C 4888.75 749.191 4897.29 749.988 4907.3 749.988 C 4913.01 749.988 4918.78 749.672 4924.63 749.02 C 4930.47 748.379 4936.08 747.672 4941.45 746.879 L 4943.46 764.078 C 4937.25 765.359 4930.4 766.398 4922.91 767.18 C 4915.41 767.969 4907.42 768.359 4898.92 768.359 C 4888.4 768.359 4879.16 767.512 4871.19 765.801 C 4863.22 764.09 4856.33 761.48 4850.51 757.961 C 4844.69 754.43 4839.87 749.961 4836.04 744.531 C 4832.21 739.109 4829.13 732.711 4826.81 725.32 C 4824.49 717.941 4822.85 709.539 4821.9 700.109 C 4820.95 690.691 4820.48 680.191 4820.48 668.609 C 4820.48 657.039 4820.95 646.539 4821.9 637.109 C 4822.85 627.691 4824.48 619.289 4826.77 611.898 C 4829.06 604.52 4832.14 598.129 4836 592.73 C 4839.86 587.34 4844.69 582.859 4850.51 579.309 C 4856.33 575.762 4863.22 573.129 4871.19 571.43 C 4879.16 569.719 4888.4 568.871 4898.92 568.871 C 4907.53 568.871 4915.55 569.289 4922.99 570.129 C 4930.43 570.969 4937.25 572.031 4943.46 573.309 Z M 5085.49 748.809 L 5085.49 765.672 C 5081.46 765.84 5077.28 766 5072.95 766.141 C 5068.61 766.281 5064.32 766.398 5060.07 766.512 C 5055.82 766.629 5051.75 766.711 5047.86 766.77 C 5043.98 766.82 5040.47 766.852 5037.34 766.852 C 5031.8 766.852 5026.37 766.738 5021.06 766.512 C 5015.75 766.301 5010.71 765.738 5005.96 764.84 C 5001.21 763.941 4996.82 762.59 4992.79 760.77 C 4988.76 758.949 4985.3 756.43 4982.39 753.219 C 4979.48 750 4977.2 745.969 4975.55 741.141 C 4973.9 736.301 4973.08 730.441 4973.08 723.559 L 4973.08 613.5 C 4973.08 606.559 4973.9 600.691 4975.55 595.879 C 4977.2 591.07 4979.48 587.07 4982.39 583.879 C 4985.3 580.699 4988.76 578.191 4992.79 576.379 C 4996.82 574.559 5001.21 573.219 5005.96 572.352 C 5010.71 571.48 5015.76 570.941 5021.1 570.711 C 5026.44 570.488 5031.85 570.379 5037.34 570.379 C 5041.08 570.379 5044.97 570.391 5049 570.422 C 5053.02 570.449 5057.09 570.5 5061.2 570.59 C 5065.31 570.672 5069.42 570.77 5073.53 570.879 C 5077.64 570.988 5081.63 571.129 5085.49 571.301 L 5085.49 588.41 L 5036.5 588.41 C 5030.51 588.41 5025.31 588.621 5020.89 589.039 C 5016.48 589.461 5012.73 590.191 5009.65 591.219 C 5006.58 592.262 5004.06 593.66 5002.1 595.422 C 5000.14 597.18 4998.61 599.449 4997.49 602.211 C 4996.37 604.98 4995.61 608.281 4995.22 612.109 C 4994.83 615.941 4994.64 620.43 4994.64 625.578 L 4994.64 661.648 L 5081.46 661.648 L 5081.46 679.18 L 4994.64 679.18 L 4994.64 711.398 C 4994.64 716.539 4994.83 721.051 4995.22 724.898 C 4995.61 728.762 4996.37 732.078 4997.49 734.852 C 4998.61 737.609 5000.14 739.91 5002.1 741.719 C 5004.06 743.539 5006.58 744.969 5009.65 746 C 5012.73 747.039 5016.48 747.762 5020.89 748.18 C 5025.31 748.602 5030.51 748.809 5036.5 748.809 L 5085.49 748.809 Z M 5178.27 750.32 C 5189.68 750.32 5199.31 749.391 5207.17 747.512 C 5215.03 745.641 5221.52 742.949 5226.63 739.461 C 5231.75 735.961 5235.69 731.77 5238.46 726.879 C 5241.23 721.98 5243.27 716.5 5244.58 710.43 C 5245.9 704.359 5246.67 697.809 5246.89 690.762 C 5247.12 683.711 5247.23 676.328 5247.23 668.609 C 5247.23 660.898 5247.12 653.512 5246.89 646.469 C 5246.67 639.422 5245.9 632.859 5244.58 626.789 C 5243.27 620.73 5241.23 615.25 5238.46 610.352 C 5235.69 605.461 5231.75 601.262 5226.63 597.77 C 5221.52 594.27 5215.03 591.59 5207.17 589.711 C 5199.31 587.84 5189.68 586.898 5178.27 586.898 C 5175.81 586.898 5173.22 586.969 5170.51 587.109 C 5167.8 587.25 5165.06 587.441 5162.29 587.66 C 5159.52 587.879 5156.77 588.148 5154.03 588.461 C 5151.28 588.762 5148.66 589.09 5146.14 589.422 L 5146.14 747.891 C 5148.66 748.23 5151.28 748.531 5154.03 748.809 C 5156.77 749.09 5159.52 749.34 5162.29 749.57 C 5165.06 749.789 5167.8 749.969 5170.51 750.109 C 5173.22 750.25 5175.81 750.32 5178.27 750.32 Z M 5124.66 763.91 L 5124.66 573.48 C 5133.33 572.031 5142.8 570.898 5153.06 570.078 C 5163.32 569.27 5173.66 568.871 5184.06 568.871 C 5196.08 568.871 5206.53 569.789 5215.39 571.641 C 5224.26 573.48 5231.83 576.25 5238.13 579.941 C 5244.42 583.629 5249.55 588.262 5253.52 593.828 C 5257.49 599.391 5260.62 605.859 5262.92 613.25 C 5265.21 620.629 5266.77 628.93 5267.61 638.16 C 5268.45 647.391 5268.87 657.539 5268.87 668.609 C 5268.87 679.691 5268.45 689.84 5267.61 699.07 C 5266.77 708.289 5265.21 716.602 5262.92 723.98 C 5260.62 731.359 5257.49 737.84 5253.52 743.398 C 5249.55 748.969 5244.42 753.59 5238.13 757.289 C 5231.83 760.98 5224.26 763.75 5215.39 765.59 C 5206.53 767.441 5196.08 768.359 5184.06 768.359 C 5173.66 768.359 5163.32 767.969 5153.06 767.18 C 5142.8 766.398 5133.33 765.309 5124.66 763.91 " fill="#005096"/>
</g>
</svg>
